<svg id="visual" viewBox="0 0 1200 720" width="1200" height="720" xmlns="http://www.w3.org/2000/svg" xmlns:xlink="http://www.w3.org/1999/xlink" version="1.1"><rect x="0" y="0" width="1200" height="720" fill="#1f1212"></rect><path d="M0 432L28.5 418.5C57 405 114 378 171.2 382.5C228.3 387 285.7 423 342.8 448.2C400 473.3 457 487.7 514.2 467.2C571.3 446.7 628.7 391.3 685.8 367.7C743 344 800 352 857.2 385C914.3 418 971.7 476 1028.8 450.5C1086 425 1143 316 1171.5 261.5L1200 207L1200 721L1171.5 721C1143 721 1086 721 1028.8 721C971.7 721 914.3 721 857.2 721C800 721 743 721 685.8 721C628.7 721 571.3 721 514.2 721C457 721 400 721 342.8 721C285.7 721 228.3 721 171.2 721C114 721 57 721 28.5 721L0 721Z" fill="#7f4a4a" stroke-linecap="round" stroke-linejoin="miter"></path></svg>