<?xml version="1.0" standalone="no"?><svg xmlns:xlink="http://www.w3.org/1999/xlink" xmlns="http://www.w3.org/2000/svg" viewBox="0 0 1000 545.4590152851445" preserveAspectRatio="xMaxYMax slice"><g transform="scale(1.5365042684088577)"><rect x="0" y="0" width="650.8333333333333" height="355" fill="#1f1212"/><rect x="59.17" y="0" width="59.17" height="59.17" fill="#1f1212"/><path d="M 59.17 0 A 59.17 59.17 0 0 1  118.34 59.17 L 59.17 0 A 59.17 59.17 0 0 0 118.34 59.17" fill="#1f1212"/><rect x="118.33333333333333" y="0" width="59.166666666666664" height="59.166666666666664" fill="#1f1212"/><rect x="118.33" y="0" width="29.58" height="29.58" fill="#321d1d"/><path d="M 118.33 29.58 A 29.58 29.58 0 0 1 147.91 0 L 147.91 7.395 A 22.185 22.185 0 0 0 125.725 29.58" fill="#1f1212"/><rect x="147.92" y="0" width="29.58" height="29.58" fill="#291818"/><path d="M 147.92 0 A 29.58 29.58 0 0 1 177.5 29.58 L 170.105 29.58 A 22.185 22.185 0 0 0 147.92 7.395" fill="#402525"/><rect x="147.92" y="29.58" width="29.58" height="29.58" fill="#492b2b"/><path d="M 147.92 59.16 A 29.58 29.58 0 0 0 177.5 29.58 L 170.105 29.58 A 22.185 22.185 0 0 1 147.92 51.765" fill="#1f1212"/><rect x="236.66666666666666" y="0" width="59.166666666666664" height="59.166666666666664" fill="#1f1212"/><rect x="266.25" y="0" width="29.58" height="29.58" fill="#1f1212"/><polygon points="266.25,0 295.83,29.58 266.25,29.58" fill="#231515"/><rect x="236.67" y="29.58" width="29.58" height="29.58" fill="#1f1212"/><polygon points="236.67,29.58 266.25,29.58 236.67,59.16" fill="#1f1212"/><rect x="295.83" y="0" width="59.17" height="59.17" fill="#231414"/><rect x="295.83" y="0" width="59.17" height="59.17" fill="#3c2323"/><rect x="414.16666666666663" y="0" width="59.166666666666664" height="59.166666666666664" fill="#1f1212"/><rect x="414.17" y="0" width="29.58" height="29.58" fill="#462929"/><path d="M 414.17 29.58 A 29.58 29.58 0 0 1  443.75 0 L 443.75 29.58" fill="#1f1212"/><rect x="443.75" y="0" width="29.58" height="29.58" fill="#4e2e2e"/><path d="M 443.75 0 A 29.58 29.58 0 0 1 473.33 29.58 L 443.75 29.58" fill="#1f1212"/><rect x="414.17" y="29.58" width="29.58" height="29.58" fill="#1f1212"/><path d="M 414.17 29.58 A 29.58 29.58 0 0 0 443.75 59.16 L 443.75 29.58" fill="#362020"/><rect x="473.33" y="0" width="59.17" height="59.17" fill="#1f1212"/><path d="M 473.33 59.17 A 59.17 59.17 0 0 0 532.5 0 L 473.33 0" fill="#1f1212"/><rect x="0" y="59.166666666666664" width="59.166666666666664" height="59.166666666666664" fill="#1f1212"/><rect x="0" y="59.17" width="29.58" height="29.58" fill="#392121"/><polygon points="29.58,59.17 29.58,88.75 0,88.75" fill="#2f1b1b"/><rect x="29.58" y="59.17" width="29.58" height="29.58" fill="#1f1212"/><polygon points="29.58,59.17 59.16,88.75 29.58,88.75" fill="#1f1212"/><rect x="0" y="88.75" width="29.58" height="29.58" fill="#452828"/><polygon points="0,88.75 29.58,88.75 29.58,118.33" fill="#1f1212"/><rect x="29.58" y="88.75" width="29.58" height="29.58" fill="#331e1e"/><polygon points="29.58,88.75 59.16,88.75 29.58,118.33" fill="#1f1212"/><rect x="177.5" y="59.17" width="59.17" height="59.17" fill="#331e1e"/><polygon points="177.5,59.17 236.67000000000002,118.34 177.5,118.34" fill="#331d1d"/><rect x="295.8333333333333" y="59.166666666666664" width="59.166666666666664" height="59.166666666666664" fill="#1f1212"/><rect x="295.83" y="59.17" width="29.58" height="29.58" fill="#462929"/><polygon points="325.40999999999997,59.17 325.40999999999997,88.75 295.83,88.75" fill="#1f1212"/><rect x="325.42" y="59.17" width="29.58" height="29.58" fill="#452828"/><polygon points="325.42,59.17 355,88.75 325.42,88.75" fill="#1f1212"/><rect x="295.83" y="88.75" width="29.58" height="29.58" fill="#301c1c"/><polygon points="295.83,88.75 325.40999999999997,88.75 295.83,118.33" fill="#331e1e"/><rect x="325.42" y="88.75" width="29.58" height="29.58" fill="#1f1212"/><polygon points="325.42,88.75 355,88.75 355,118.33" fill="#2e1b1b"/><rect x="355" y="59.17" width="59.17" height="59.17" fill="#482a2a"/><polygon points="355,59.17 414.17,59.17 355,118.34" fill="#452828"/><rect x="414.17" y="59.17" width="59.17" height="59.17" fill="#281717"/><path d="M 414.17 118.34 A 59.17 59.17 0 0 0 473.34000000000003 59.17 L 414.17 59.17" fill="#1f1212"/><rect x="532.5" y="59.166666666666664" width="59.166666666666664" height="59.166666666666664" fill="#1f1212"/><rect x="562.08" y="59.17" width="29.58" height="29.58" fill="#2c1919"/><path d="M 562.08 59.17 A 29.58 29.58 0 0 1 591.6600000000001 88.75 L 562.08 88.75" fill="#1f1212"/><rect x="532.5" y="88.75" width="29.58" height="29.58" fill="#3a2222"/><path d="M 532.5 88.75 A 29.58 29.58 0 0 0 562.08 118.33 L 562.08 88.75" fill="#1f1212"/><rect x="562.08" y="88.75" width="29.58" height="29.58" fill="#1f1212"/><path d="M 562.08 118.33 A 29.58 29.58 0 0 0 591.6600000000001 88.75 L 562.08 88.75" fill="#2b1919"/><rect x="591.67" y="59.17" width="59.17" height="59.17" fill="#3f2424"/><path d="M 591.67 118.34 A 59.17 59.17 0 0 0 650.8399999999999 59.17 L 591.67 59.17" fill="#1f1212"/><rect x="0" y="118.33" width="59.17" height="59.17" fill="#1f1212"/><rect x="0" y="118.33" width="59.17" height="59.17" fill="#1f1212"/><rect x="59.17" y="118.33" width="59.17" height="59.17" fill="#1f1212"/><rect x="59.17" y="118.33" width="59.17" height="59.17" fill="#2b1919"/><rect x="177.5" y="118.33333333333333" width="59.166666666666664" height="59.166666666666664" fill="#1f1212"/><rect x="177.5" y="118.33" width="29.58" height="29.58" fill="#241515"/><polygon points="207.07999999999998,118.33 207.07999999999998,147.91 177.5,147.91" fill="#2b1919"/><rect x="207.08" y="147.92" width="29.58" height="29.58" fill="#1f1212"/><polygon points="207.08,147.92 236.66000000000003,177.5 207.08,177.5" fill="#1f1212"/><rect x="236.66666666666666" y="118.33333333333333" width="59.166666666666664" height="59.166666666666664" fill="#1f1212"/><rect x="266.25" y="118.33" width="29.58" height="29.58" fill="#1f1212"/><path d="M 266.25 147.91 A 29.58 29.58 0 0 0 295.83 118.33 L 266.25 118.33" fill="#1f1212"/><rect x="236.67" y="147.92" width="29.58" height="29.58" fill="#1f1212"/><path d="M 236.67 177.5 A 29.58 29.58 0 0 1  266.25 147.92 L 266.25 177.5" fill="#281717"/><rect x="266.25" y="147.92" width="29.58" height="29.58" fill="#1f1212"/><path d="M 266.25 147.92 A 29.58 29.58 0 0 1 295.83 177.5 L 266.25 177.5" fill="#412626"/><rect x="295.83" y="118.33" width="59.17" height="59.17" fill="#4a2b2b"/><path d="M 295.83 118.33 A 59.17 59.17 0 0 1  355 177.5 L 295.83 118.33 A 59.17 59.17 0 0 0 355 177.5" fill="#301c1c"/><rect x="414.16666666666663" y="118.33333333333333" width="59.166666666666664" height="59.166666666666664" fill="#1f1212"/><rect x="443.75" y="118.33" width="29.58" height="29.58" fill="#361f1f"/><path d="M 443.75 118.33 A 29.58 29.58 0 0 1 473.33 147.91 L 465.935 147.91 A 22.185 22.185 0 0 0 443.75 125.725" fill="#291818"/><rect x="414.17" y="147.92" width="29.58" height="29.58" fill="#1f1212"/><path d="M 414.17 147.92 A 29.58 29.58 0 0 0 443.75 177.5 L 443.75 170.105 A 22.185 22.185 0 0 1 421.565 147.92" fill="#1f1212"/><rect x="443.75" y="147.92" width="29.58" height="29.58" fill="#382121"/><path d="M 443.75 177.5 A 29.58 29.58 0 0 0 473.33 147.92 L 465.935 147.92 A 22.185 22.185 0 0 1 443.75 170.105" fill="#1f1212"/><rect x="473.3333333333333" y="118.33333333333333" width="59.166666666666664" height="59.166666666666664" fill="#1f1212"/><rect x="473.33" y="147.92" width="29.58" height="29.58" fill="#221313"/><polygon points="473.33,147.92 502.90999999999997,147.92 502.90999999999997,177.5" fill="#1f1212"/><rect x="502.92" y="147.92" width="29.58" height="29.58" fill="#291818"/><polygon points="502.92,147.92 532.5,177.5 502.92,177.5" fill="#3f2525"/><rect x="0" y="177.5" width="59.17" height="59.17" fill="#382121"/><polygon points="0,177.5 59.17,177.5 0,236.67000000000002" fill="#4a2b2b"/><rect x="59.17" y="177.5" width="59.17" height="59.17" fill="#1f1212"/><rect x="59.17" y="177.5" width="59.17" height="59.17" fill="#1f1212"/><rect x="118.33333333333333" y="177.5" width="59.166666666666664" height="59.166666666666664" fill="#1f1212"/><rect x="118.33" y="177.5" width="29.58" height="29.58" fill="#1f1212"/><path d="M 118.33 207.07999999999998 A 29.58 29.58 0 0 0 147.91 177.5 L 118.33 177.5" fill="#1f1212"/><rect x="147.92" y="177.5" width="29.58" height="29.58" fill="#482a2a"/><path d="M 147.92 177.5 A 29.58 29.58 0 0 0 177.5 207.07999999999998 L 177.5 177.5" fill="#392121"/><rect x="177.5" y="177.5" width="59.17" height="59.17" fill="#1f1212"/><polygon points="177.5,177.5 236.67000000000002,177.5 177.5,236.67000000000002" fill="#2d1a1a"/><rect x="236.67" y="177.5" width="59.17" height="59.17" fill="#251616"/><path d="M 236.67 177.5 A 59.17 59.17 0 0 1 295.84 236.67000000000002 L 236.67 236.67000000000002" fill="#2b1919"/><rect x="414.17" y="177.5" width="59.17" height="59.17" fill="#1f1212"/><rect x="414.17" y="177.5" width="59.17" height="59.17" fill="#3c2323"/><rect x="0" y="236.67" width="59.17" height="59.17" fill="#341e1e"/><rect x="0" y="236.67" width="59.17" height="59.17" fill="#3e2424"/><rect x="59.17" y="236.67" width="59.17" height="59.17" fill="#1f1212"/><polygon points="59.17,236.67 118.34,236.67 59.17,295.84" fill="#241515"/><rect x="118.33333333333333" y="236.66666666666666" width="59.166666666666664" height="59.166666666666664" fill="#1f1212"/><rect x="118.33" y="236.67" width="29.58" height="29.58" fill="#1f1212"/><path d="M 118.33 266.25 A 29.58 29.58 0 0 1  147.91 236.67 L 147.91 266.25" fill="#281717"/><rect x="147.92" y="236.67" width="29.58" height="29.58" fill="#1f1212"/><path d="M 147.92 236.67 A 29.58 29.58 0 0 1 177.5 266.25 L 147.92 266.25" fill="#1f1212"/><rect x="118.33" y="266.25" width="29.58" height="29.58" fill="#2b1919"/><path d="M 118.33 266.25 A 29.58 29.58 0 0 0 147.91 295.83 L 147.91 266.25" fill="#1f1212"/><rect x="236.67" y="236.67" width="59.17" height="59.17" fill="#1f1212"/><rect x="236.67" y="236.67" width="59.17" height="59.17" fill="#482a2a"/><rect x="295.83" y="236.67" width="59.17" height="59.17" fill="#4b2c2c"/><polygon points="295.83,236.67 355,295.84 295.83,295.84" fill="#1f1212"/><rect x="473.3333333333333" y="236.66666666666666" width="59.166666666666664" height="59.166666666666664" fill="#1f1212"/><rect x="473.33" y="236.67" width="29.58" height="29.58" fill="#3f2525"/><polygon points="502.90999999999997,236.67 502.90999999999997,266.25 473.33,266.25" fill="#251515"/><rect x="502.92" y="236.67" width="29.58" height="29.58" fill="#241515"/><polygon points="502.92,236.67 532.5,266.25 502.92,266.25" fill="#1f1212"/><rect x="473.33" y="266.25" width="29.58" height="29.58" fill="#2e1b1b"/><polygon points="473.33,266.25 502.90999999999997,266.25 502.90999999999997,295.83" fill="#412626"/><rect x="502.92" y="266.25" width="29.58" height="29.58" fill="#341e1e"/><polygon points="502.92,266.25 532.5,266.25 502.92,295.83" fill="#4d2d2d"/><rect x="532.5" y="236.67" width="59.17" height="59.17" fill="#1f1212"/><path d="M 532.5 236.67 A 59.17 59.17 0 0 1  591.67 295.84 L 532.5 236.67 A 59.17 59.17 0 0 0 591.67 295.84" fill="#4d2d2d"/><rect x="0" y="295.8333333333333" width="59.166666666666664" height="59.166666666666664" fill="#1f1212"/><rect x="29.58" y="295.83" width="29.58" height="29.58" fill="#1f1212"/><polygon points="29.58,295.83 59.16,325.40999999999997 29.58,325.40999999999997" fill="#1f1212"/><rect x="0" y="325.42" width="29.58" height="29.58" fill="#341e1e"/><polygon points="0,325.42 29.58,325.42 0,355" fill="#1f1212"/><rect x="29.58" y="325.42" width="29.58" height="29.58" fill="#1f1212"/><polygon points="29.58,325.42 59.16,325.42 59.16,355" fill="#251616"/><rect x="59.17" y="295.83" width="59.17" height="59.17" fill="#281717"/><rect x="59.17" y="295.83" width="59.17" height="59.17" fill="#221414"/><rect x="118.33333333333333" y="295.8333333333333" width="59.166666666666664" height="59.166666666666664" fill="#1f1212"/><rect x="118.33" y="295.83" width="29.58" height="29.58" fill="#382121"/><polygon points="147.91,295.83 147.91,325.40999999999997 118.33,325.40999999999997" fill="#1f1212"/><rect x="118.33" y="325.42" width="29.58" height="29.58" fill="#1f1212"/><polygon points="118.33,325.42 147.91,325.42 118.33,355" fill="#1f1212"/><rect x="147.92" y="325.42" width="29.58" height="29.58" fill="#1f1212"/><polygon points="147.92,325.42 177.5,325.42 177.5,355" fill="#221414"/><rect x="177.5" y="295.83" width="59.17" height="59.17" fill="#452828"/><path d="M 177.5 355 A 59.17 59.17 0 0 0 236.67000000000002 295.83 L 177.5 295.83" fill="#1f1212"/><rect x="236.66666666666666" y="295.8333333333333" width="59.166666666666664" height="59.166666666666664" fill="#1f1212"/><rect x="236.67" y="295.83" width="29.58" height="29.58" fill="#1f1212"/><path d="M 236.67 325.40999999999997 A 29.58 29.58 0 0 1  266.25 295.83 L 266.25 325.40999999999997" fill="#3d2424"/><rect x="266.25" y="295.83" width="29.58" height="29.58" fill="#1f1212"/><path d="M 266.25 295.83 A 29.58 29.58 0 0 1 295.83 325.40999999999997 L 266.25 325.40999999999997" fill="#1f1212"/><rect x="295.83" y="295.83" width="59.17" height="59.17" fill="#412626"/><polygon points="295.83,295.83 355,355 295.83,355" fill="#1f1212"/><rect x="355" y="295.8333333333333" width="59.166666666666664" height="59.166666666666664" fill="#1f1212"/><rect x="355" y="295.83" width="29.58" height="29.58" fill="#432727"/><path d="M 355 295.83 A 29.58 29.58 0 0 0 384.58 325.40999999999997 L 384.58 295.83" fill="#2c1a1a"/><rect x="384.58" y="295.83" width="29.58" height="29.58" fill="#1f1212"/><path d="M 384.58 325.40999999999997 A 29.58 29.58 0 0 0 414.15999999999997 295.83 L 384.58 295.83" fill="#412626"/><rect x="384.58" y="325.42" width="29.58" height="29.58" fill="#1f1212"/><path d="M 384.58 325.42 A 29.58 29.58 0 0 1 414.15999999999997 355 L 384.58 355" fill="#1f1212"/><rect x="414.17" y="295.83" width="59.17" height="59.17" fill="#2f1b1b"/><path d="M 414.17 295.83 A 59.17 59.17 0 0 0 473.34000000000003 355 L 473.34000000000003 295.83" fill="#241515"/><rect x="473.33" y="295.83" width="59.17" height="59.17" fill="#4e2d2d"/><rect x="473.33" y="295.83" width="59.17" height="59.17" fill="#472929"/></g></svg>