<svg id="visual" viewBox="0 0 1200 720" width="1200" height="720" xmlns="http://www.w3.org/2000/svg" xmlns:xlink="http://www.w3.org/1999/xlink" version="1.1"><rect x="0" y="0" width="1200" height="720" fill="#7f4a4a"></rect><path d="M0 352L171 387L343 435L514 421L686 428L857 306L1029 390L1200 419L1200 721L1029 721L857 721L686 721L514 721L343 721L171 721L0 721Z" fill="#4f2e2e"></path><path d="M0 507L171 484L343 418L514 504L686 385L857 504L1029 501L1200 443L1200 721L1029 721L857 721L686 721L514 721L343 721L171 721L0 721Z" fill="#422727"></path><path d="M0 476L171 550L343 534L514 524L686 534L857 511L1029 463L1200 569L1200 721L1029 721L857 721L686 721L514 721L343 721L171 721L0 721Z" fill="#362020"></path><path d="M0 526L171 593L343 539L514 534L686 618L857 601L1029 585L1200 585L1200 721L1029 721L857 721L686 721L514 721L343 721L171 721L0 721Z" fill="#2a1919"></path><path d="M0 656L171 659L343 671L514 614L686 632L857 670L1029 649L1200 640L1200 721L1029 721L857 721L686 721L514 721L343 721L171 721L0 721Z" fill="#1f1212"></path></svg>