<svg id="visual" viewBox="0 0 1200 720" width="1200" height="720" xmlns="http://www.w3.org/2000/svg" xmlns:xlink="http://www.w3.org/1999/xlink" version="1.1"><rect x="0" y="0" width="1200" height="720" fill="#7f4a4a"></rect><path d="M0 252L28.5 261.2C57 270.3 114 288.7 171.2 295.5C228.3 302.3 285.7 297.7 342.8 288.7C400 279.7 457 266.3 514.2 275.8C571.3 285.3 628.7 317.7 685.8 331.2C743 344.7 800 339.3 857.2 342.7C914.3 346 971.7 358 1028.8 349C1086 340 1143 310 1171.5 295L1200 280L1200 721L1171.5 721C1143 721 1086 721 1028.8 721C971.7 721 914.3 721 857.2 721C800 721 743 721 685.8 721C628.7 721 571.3 721 514.2 721C457 721 400 721 342.8 721C285.7 721 228.3 721 171.2 721C114 721 57 721 28.5 721L0 721Z" fill="#4f2e2e"></path><path d="M0 542L28.5 536.3C57 530.7 114 519.3 171.2 505.7C228.3 492 285.7 476 342.8 463.3C400 450.7 457 441.3 514.2 456C571.3 470.7 628.7 509.3 685.8 514.3C743 519.3 800 490.7 857.2 485.7C914.3 480.7 971.7 499.3 1028.8 491.5C1086 483.7 1143 449.3 1171.5 432.2L1200 415L1200 721L1171.5 721C1143 721 1086 721 1028.8 721C971.7 721 914.3 721 857.2 721C800 721 743 721 685.8 721C628.7 721 571.3 721 514.2 721C457 721 400 721 342.8 721C285.7 721 228.3 721 171.2 721C114 721 57 721 28.5 721L0 721Z" fill="#1f1212"></path></svg>