<?xml version="1.0" standalone="no"?><svg xmlns:xlink="http://www.w3.org/1999/xlink" xmlns="http://www.w3.org/2000/svg" viewBox="0 0 1000 545.4590152851445" preserveAspectRatio="xMaxYMax slice"><g transform="scale(1.5365042684088577)"><rect x="0" y="0" width="650.8333333333333" height="355" fill="#ffffff"/><rect x="0" y="0" width="59.166666666666664" height="59.166666666666664" fill="#ffffff"/><rect x="0" y="0" width="29.58" height="29.58" fill="#2C3333"/><circle cx="14.79" cy="14.79" r="14.79" fill="#2C3333"/><rect x="29.58" y="0" width="29.58" height="29.58" fill="#2E4F4F"/><rect x="29.58" y="0" width="29.58" height="29.58" fill="#2C3333"/><rect x="0" y="29.58" width="29.58" height="29.58" fill="#2E4F4F"/><g transform="translate(0,29.58) scale(1.4789999999999999) rotate(0)"><path fill-rule="evenodd" clip-rule="evenodd" d="M10 20C15.5228 20 20 15.5228 20 10C20 4.47715 15.5228 0 10 0C4.47715 0 0 4.47715 0 10C0 15.5228 4.47715 20 10 20ZM10 17C13.866 17 17 13.866 17 10C17 6.13401 13.866 3 10 3C6.13401 3 3 6.13401 3 10C3 13.866 6.13401 17 10 17Z" fill="#2C3333"/></g><rect x="29.58" y="29.58" width="29.58" height="29.58" fill="#2C3333"/><circle cx="44.37" cy="44.37" r="14.79" fill="#2C3333"/><rect x="59.17" y="0" width="59.17" height="59.17" fill="#2E4F4F"/><rect x="59.17" y="0" width="59.17" height="59.17" fill="#2C3333"/><rect x="118.33333333333333" y="0" width="59.166666666666664" height="59.166666666666664" fill="#ffffff"/><rect x="118.33" y="0" width="29.58" height="29.58" fill="#2E4F4F"/><g transform="translate(118.33,0) scale(1.4789999999999999) rotate(0)"><path d="M10 5L5 0L0 5L5 10L0 15L5 20L10 15L15 20L20 15L15 10L20 5L15 0L10 5Z" fill="#2E4F4F"/></g><rect x="147.92" y="0" width="29.58" height="29.58" fill="#2E4F4F"/><g transform="translate(147.92,0) scale(1.4789999999999999) rotate(0)"><path fill-rule="evenodd" clip-rule="evenodd" d="M10 20C15.5228 20 20 15.5228 20 10C20 4.47715 15.5228 0 10 0C4.47715 0 0 4.47715 0 10C0 15.5228 4.47715 20 10 20ZM10 17C13.866 17 17 13.866 17 10C17 6.13401 13.866 3 10 3C6.13401 3 3 6.13401 3 10C3 13.866 6.13401 17 10 17Z" fill="#2C3333"/></g><rect x="118.33" y="29.58" width="29.58" height="29.58" fill="#2E4F4F"/><g transform="translate(118.33,29.58) scale(1.4789999999999999) rotate(0)"><path fill-rule="evenodd" clip-rule="evenodd" d="M10 20C15.5228 20 20 15.5228 20 10C20 4.47715 15.5228 0 10 0C4.47715 0 0 4.47715 0 10C0 15.5228 4.47715 20 10 20ZM10 17C13.866 17 17 13.866 17 10C17 6.13401 13.866 3 10 3C6.13401 3 3 6.13401 3 10C3 13.866 6.13401 17 10 17Z" fill="#2E4F4F"/></g><rect x="147.92" y="29.58" width="29.58" height="29.58" fill="#2C3333"/><g transform="translate(147.92,29.58) scale(1.4789999999999999) rotate(0)"><path fill-rule="evenodd" clip-rule="evenodd" d="M10 20C15.5228 20 20 15.5228 20 10C20 4.47715 15.5228 0 10 0C4.47715 0 0 4.47715 0 10C0 15.5228 4.47715 20 10 20ZM10 17C13.866 17 17 13.866 17 10C17 6.13401 13.866 3 10 3C6.13401 3 3 6.13401 3 10C3 13.866 6.13401 17 10 17Z" fill="#2E4F4F"/></g><rect x="177.5" y="0" width="59.166666666666664" height="59.166666666666664" fill="#ffffff"/><rect x="177.5" y="0" width="29.58" height="29.58" fill="#2E4F4F"/><g transform="translate(177.5,0) scale(1.4789999999999999) rotate(0)"><path d="M10 5L5 0L0 5L5 10L0 15L5 20L10 15L15 20L20 15L15 10L20 5L15 0L10 5Z" fill="#2C3333"/></g><rect x="207.08" y="0" width="29.58" height="29.58" fill="#2C3333"/><g transform="translate(207.08,0) scale(1.4789999999999999) rotate(0)"><path fill-rule="evenodd" clip-rule="evenodd" d="M10 20C15.5228 20 20 15.5228 20 10C20 4.47715 15.5228 0 10 0C4.47715 0 0 4.47715 0 10C0 15.5228 4.47715 20 10 20ZM10 17C13.866 17 17 13.866 17 10C17 6.13401 13.866 3 10 3C6.13401 3 3 6.13401 3 10C3 13.866 6.13401 17 10 17Z" fill="#2E4F4F"/></g><rect x="177.5" y="29.58" width="29.58" height="29.58" fill="#2C3333"/><rect x="177.5" y="29.58" width="29.58" height="29.58" fill="#2E4F4F"/><rect x="207.08" y="29.58" width="29.58" height="29.58" fill="#2E4F4F"/><g transform="translate(207.08,29.58) scale(1.4789999999999999) rotate(0)"><path d="M10 5L5 0L0 5L5 10L0 15L5 20L10 15L15 20L20 15L15 10L20 5L15 0L10 5Z" fill="#2C3333"/></g><rect x="236.66666666666666" y="0" width="59.166666666666664" height="59.166666666666664" fill="#ffffff"/><rect x="236.67" y="0" width="29.58" height="29.58" fill="#2E4F4F"/><g transform="translate(236.67,0) scale(1.4789999999999999) rotate(0)"><path d="M10 5L5 0L0 5L5 10L0 15L5 20L10 15L15 20L20 15L15 10L20 5L15 0L10 5Z" fill="#2E4F4F"/></g><rect x="266.25" y="0" width="29.58" height="29.58" fill="#2E4F4F"/><g transform="translate(266.25,0) scale(1.4789999999999999) rotate(0)"><path d="M10 5L5 0L0 5L5 10L0 15L5 20L10 15L15 20L20 15L15 10L20 5L15 0L10 5Z" fill="#2C3333"/></g><rect x="236.67" y="29.58" width="29.58" height="29.58" fill="#2C3333"/><g transform="translate(236.67,29.58) scale(1.4789999999999999) rotate(0)"><path d="M10 5L5 0L0 5L5 10L0 15L5 20L10 15L15 20L20 15L15 10L20 5L15 0L10 5Z" fill="#2C3333"/></g><rect x="266.25" y="29.58" width="29.58" height="29.58" fill="#2C3333"/><g transform="translate(266.25,29.58) scale(1.4789999999999999) rotate(0)"><path fill-rule="evenodd" clip-rule="evenodd" d="M10 20C15.5228 20 20 15.5228 20 10C20 4.47715 15.5228 0 10 0C4.47715 0 0 4.47715 0 10C0 15.5228 4.47715 20 10 20ZM10 17C13.866 17 17 13.866 17 10C17 6.13401 13.866 3 10 3C6.13401 3 3 6.13401 3 10C3 13.866 6.13401 17 10 17Z" fill="#2C3333"/></g><rect x="295.8333333333333" y="0" width="59.166666666666664" height="59.166666666666664" fill="#ffffff"/><rect x="295.83" y="0" width="29.58" height="29.58" fill="#2E4F4F"/><g transform="translate(295.83,0) scale(1.4789999999999999) rotate(0)"><path fill-rule="evenodd" clip-rule="evenodd" d="M10 20C15.5228 20 20 15.5228 20 10C20 4.47715 15.5228 0 10 0C4.47715 0 0 4.47715 0 10C0 15.5228 4.47715 20 10 20ZM10 17C13.866 17 17 13.866 17 10C17 6.13401 13.866 3 10 3C6.13401 3 3 6.13401 3 10C3 13.866 6.13401 17 10 17Z" fill="#2E4F4F"/></g><rect x="325.42" y="0" width="29.58" height="29.58" fill="#2E4F4F"/><rect x="325.42" y="0" width="29.58" height="29.58" fill="#2E4F4F"/><rect x="295.83" y="29.58" width="29.58" height="29.58" fill="#2C3333"/><g transform="translate(295.83,29.58) scale(1.4789999999999999) rotate(0)"><path d="M10 5L5 0L0 5L5 10L0 15L5 20L10 15L15 20L20 15L15 10L20 5L15 0L10 5Z" fill="#2E4F4F"/></g><rect x="325.42" y="29.58" width="29.58" height="29.58" fill="#2E4F4F"/><g transform="translate(325.42,29.58) scale(1.4789999999999999) rotate(0)"><path fill-rule="evenodd" clip-rule="evenodd" d="M10 20C15.5228 20 20 15.5228 20 10C20 4.47715 15.5228 0 10 0C4.47715 0 0 4.47715 0 10C0 15.5228 4.47715 20 10 20ZM10 17C13.866 17 17 13.866 17 10C17 6.13401 13.866 3 10 3C6.13401 3 3 6.13401 3 10C3 13.866 6.13401 17 10 17Z" fill="#2E4F4F"/></g><rect x="355" y="0" width="59.166666666666664" height="59.166666666666664" fill="#ffffff"/><rect x="355" y="0" width="29.58" height="29.58" fill="#2C3333"/><g transform="translate(355,0) scale(1.4789999999999999) rotate(0)"><path fill-rule="evenodd" clip-rule="evenodd" d="M10 20C15.5228 20 20 15.5228 20 10C20 4.47715 15.5228 0 10 0C4.47715 0 0 4.47715 0 10C0 15.5228 4.47715 20 10 20ZM10 17C13.866 17 17 13.866 17 10C17 6.13401 13.866 3 10 3C6.13401 3 3 6.13401 3 10C3 13.866 6.13401 17 10 17Z" fill="#2E4F4F"/></g><rect x="384.58" y="0" width="29.58" height="29.58" fill="#2E4F4F"/><rect x="384.58" y="0" width="29.58" height="29.58" fill="#2E4F4F"/><rect x="355" y="29.58" width="29.58" height="29.58" fill="#2E4F4F"/><circle cx="369.79" cy="44.37" r="14.79" fill="#2E4F4F"/><rect x="384.58" y="29.58" width="29.58" height="29.58" fill="#2C3333"/><circle cx="399.37" cy="44.37" r="14.79" fill="#2C3333"/><rect x="414.16666666666663" y="0" width="59.166666666666664" height="59.166666666666664" fill="#ffffff"/><rect x="414.17" y="0" width="29.58" height="29.58" fill="#2E4F4F"/><circle cx="428.96000000000004" cy="14.79" r="14.79" fill="#2C3333"/><rect x="443.75" y="0" width="29.58" height="29.58" fill="#2E4F4F"/><g transform="translate(443.75,0) scale(1.4789999999999999) rotate(0)"><path d="M10 5L5 0L0 5L5 10L0 15L5 20L10 15L15 20L20 15L15 10L20 5L15 0L10 5Z" fill="#2E4F4F"/></g><rect x="414.17" y="29.58" width="29.58" height="29.58" fill="#2C3333"/><circle cx="428.96000000000004" cy="44.37" r="14.79" fill="#2E4F4F"/><rect x="443.75" y="29.58" width="29.58" height="29.58" fill="#2C3333"/><g transform="translate(443.75,29.58) scale(1.4789999999999999) rotate(0)"><path fill-rule="evenodd" clip-rule="evenodd" d="M10 20C15.5228 20 20 15.5228 20 10C20 4.47715 15.5228 0 10 0C4.47715 0 0 4.47715 0 10C0 15.5228 4.47715 20 10 20ZM10 17C13.866 17 17 13.866 17 10C17 6.13401 13.866 3 10 3C6.13401 3 3 6.13401 3 10C3 13.866 6.13401 17 10 17Z" fill="#2E4F4F"/></g><rect x="473.3333333333333" y="0" width="59.166666666666664" height="59.166666666666664" fill="#ffffff"/><rect x="473.33" y="0" width="29.58" height="29.58" fill="#2C3333"/><g transform="translate(473.33,0) scale(1.4789999999999999) rotate(0)"><path fill-rule="evenodd" clip-rule="evenodd" d="M10 20C15.5228 20 20 15.5228 20 10C20 4.47715 15.5228 0 10 0C4.47715 0 0 4.47715 0 10C0 15.5228 4.47715 20 10 20ZM10 17C13.866 17 17 13.866 17 10C17 6.13401 13.866 3 10 3C6.13401 3 3 6.13401 3 10C3 13.866 6.13401 17 10 17Z" fill="#2C3333"/></g><rect x="502.92" y="0" width="29.58" height="29.58" fill="#2C3333"/><rect x="502.92" y="0" width="29.58" height="29.58" fill="#2C3333"/><rect x="473.33" y="29.58" width="29.58" height="29.58" fill="#2E4F4F"/><circle cx="488.12" cy="44.37" r="14.79" fill="#2C3333"/><rect x="502.92" y="29.58" width="29.58" height="29.58" fill="#2C3333"/><g transform="translate(502.92,29.58) scale(1.4789999999999999) rotate(0)"><path fill-rule="evenodd" clip-rule="evenodd" d="M10 20C15.5228 20 20 15.5228 20 10C20 4.47715 15.5228 0 10 0C4.47715 0 0 4.47715 0 10C0 15.5228 4.47715 20 10 20ZM10 17C13.866 17 17 13.866 17 10C17 6.13401 13.866 3 10 3C6.13401 3 3 6.13401 3 10C3 13.866 6.13401 17 10 17Z" fill="#2E4F4F"/></g><rect x="532.5" y="0" width="59.17" height="59.17" fill="#2E4F4F"/><circle cx="562.085" cy="29.585" r="29.585" fill="#2C3333"/><rect x="591.6666666666666" y="0" width="59.166666666666664" height="59.166666666666664" fill="#ffffff"/><rect x="591.67" y="0" width="29.58" height="29.58" fill="#2E4F4F"/><g transform="translate(591.67,0) scale(1.4789999999999999) rotate(0)"><path fill-rule="evenodd" clip-rule="evenodd" d="M10 20C15.5228 20 20 15.5228 20 10C20 4.47715 15.5228 0 10 0C4.47715 0 0 4.47715 0 10C0 15.5228 4.47715 20 10 20ZM10 17C13.866 17 17 13.866 17 10C17 6.13401 13.866 3 10 3C6.13401 3 3 6.13401 3 10C3 13.866 6.13401 17 10 17Z" fill="#2C3333"/></g><rect x="621.25" y="0" width="29.58" height="29.58" fill="#2E4F4F"/><g transform="translate(621.25,0) scale(1.4789999999999999) rotate(0)"><path fill-rule="evenodd" clip-rule="evenodd" d="M10 20C15.5228 20 20 15.5228 20 10C20 4.47715 15.5228 0 10 0C4.47715 0 0 4.47715 0 10C0 15.5228 4.47715 20 10 20ZM10 17C13.866 17 17 13.866 17 10C17 6.13401 13.866 3 10 3C6.13401 3 3 6.13401 3 10C3 13.866 6.13401 17 10 17Z" fill="#2C3333"/></g><rect x="591.67" y="29.58" width="29.58" height="29.58" fill="#2C3333"/><g transform="translate(591.67,29.58) scale(1.4789999999999999) rotate(0)"><path d="M10 5L5 0L0 5L5 10L0 15L5 20L10 15L15 20L20 15L15 10L20 5L15 0L10 5Z" fill="#2E4F4F"/></g><rect x="621.25" y="29.58" width="29.58" height="29.58" fill="#2E4F4F"/><circle cx="636.04" cy="44.37" r="14.79" fill="#2C3333"/><rect x="0" y="59.17" width="59.17" height="59.17" fill="#2C3333"/><g transform="translate(0,59.17) scale(2.9585) rotate(0)"><path d="M10 5L5 0L0 5L5 10L0 15L5 20L10 15L15 20L20 15L15 10L20 5L15 0L10 5Z" fill="#2C3333"/></g><rect x="59.166666666666664" y="59.166666666666664" width="59.166666666666664" height="59.166666666666664" fill="#ffffff"/><rect x="59.17" y="59.17" width="29.58" height="29.58" fill="#2C3333"/><rect x="59.17" y="59.17" width="29.58" height="29.58" fill="#2E4F4F"/><rect x="88.75" y="59.17" width="29.58" height="29.58" fill="#2E4F4F"/><rect x="88.75" y="59.17" width="29.58" height="29.58" fill="#2E4F4F"/><rect x="59.17" y="88.75" width="29.58" height="29.58" fill="#2E4F4F"/><g transform="translate(59.17,88.75) scale(1.4789999999999999) rotate(0)"><path fill-rule="evenodd" clip-rule="evenodd" d="M10 20C15.5228 20 20 15.5228 20 10C20 4.47715 15.5228 0 10 0C4.47715 0 0 4.47715 0 10C0 15.5228 4.47715 20 10 20ZM10 17C13.866 17 17 13.866 17 10C17 6.13401 13.866 3 10 3C6.13401 3 3 6.13401 3 10C3 13.866 6.13401 17 10 17Z" fill="#2E4F4F"/></g><rect x="88.75" y="88.75" width="29.58" height="29.58" fill="#2E4F4F"/><rect x="88.75" y="88.75" width="29.58" height="29.58" fill="#2C3333"/><rect x="118.33" y="59.17" width="59.17" height="59.17" fill="#2E4F4F"/><rect x="118.33" y="59.17" width="59.17" height="59.17" fill="#2C3333"/><rect x="177.5" y="59.166666666666664" width="59.166666666666664" height="59.166666666666664" fill="#ffffff"/><rect x="177.5" y="59.17" width="29.58" height="29.58" fill="#2E4F4F"/><g transform="translate(177.5,59.17) scale(1.4789999999999999) rotate(0)"><path d="M10 5L5 0L0 5L5 10L0 15L5 20L10 15L15 20L20 15L15 10L20 5L15 0L10 5Z" fill="#2C3333"/></g><rect x="207.08" y="59.17" width="29.58" height="29.58" fill="#2C3333"/><circle cx="221.87" cy="73.96000000000001" r="14.79" fill="#2E4F4F"/><rect x="177.5" y="88.75" width="29.58" height="29.58" fill="#2C3333"/><g transform="translate(177.5,88.75) scale(1.4789999999999999) rotate(0)"><path d="M10 5L5 0L0 5L5 10L0 15L5 20L10 15L15 20L20 15L15 10L20 5L15 0L10 5Z" fill="#2C3333"/></g><rect x="207.08" y="88.75" width="29.58" height="29.58" fill="#2E4F4F"/><rect x="207.08" y="88.75" width="29.58" height="29.58" fill="#2C3333"/><rect x="236.67" y="59.17" width="59.17" height="59.17" fill="#2E4F4F"/><g transform="translate(236.67,59.17) scale(2.9585) rotate(0)"><path fill-rule="evenodd" clip-rule="evenodd" d="M10 20C15.5228 20 20 15.5228 20 10C20 4.47715 15.5228 0 10 0C4.47715 0 0 4.47715 0 10C0 15.5228 4.47715 20 10 20ZM10 17C13.866 17 17 13.866 17 10C17 6.13401 13.866 3 10 3C6.13401 3 3 6.13401 3 10C3 13.866 6.13401 17 10 17Z" fill="#2C3333"/></g><rect x="295.8333333333333" y="59.166666666666664" width="59.166666666666664" height="59.166666666666664" fill="#ffffff"/><rect x="295.83" y="59.17" width="29.58" height="29.58" fill="#2E4F4F"/><circle cx="310.62" cy="73.96000000000001" r="14.79" fill="#2C3333"/><rect x="325.42" y="59.17" width="29.58" height="29.58" fill="#2C3333"/><g transform="translate(325.42,59.17) scale(1.4789999999999999) rotate(0)"><path fill-rule="evenodd" clip-rule="evenodd" d="M10 20C15.5228 20 20 15.5228 20 10C20 4.47715 15.5228 0 10 0C4.47715 0 0 4.47715 0 10C0 15.5228 4.47715 20 10 20ZM10 17C13.866 17 17 13.866 17 10C17 6.13401 13.866 3 10 3C6.13401 3 3 6.13401 3 10C3 13.866 6.13401 17 10 17Z" fill="#2C3333"/></g><rect x="295.83" y="88.75" width="29.58" height="29.58" fill="#2C3333"/><g transform="translate(295.83,88.75) scale(1.4789999999999999) rotate(0)"><path d="M10 5L5 0L0 5L5 10L0 15L5 20L10 15L15 20L20 15L15 10L20 5L15 0L10 5Z" fill="#2E4F4F"/></g><rect x="325.42" y="88.75" width="29.58" height="29.58" fill="#2C3333"/><circle cx="340.21000000000004" cy="103.53999999999999" r="14.79" fill="#2E4F4F"/><rect x="355" y="59.166666666666664" width="59.166666666666664" height="59.166666666666664" fill="#ffffff"/><rect x="355" y="59.17" width="29.58" height="29.58" fill="#2C3333"/><g transform="translate(355,59.17) scale(1.4789999999999999) rotate(0)"><path d="M10 5L5 0L0 5L5 10L0 15L5 20L10 15L15 20L20 15L15 10L20 5L15 0L10 5Z" fill="#2C3333"/></g><rect x="384.58" y="59.17" width="29.58" height="29.58" fill="#2C3333"/><g transform="translate(384.58,59.17) scale(1.4789999999999999) rotate(0)"><path fill-rule="evenodd" clip-rule="evenodd" d="M10 20C15.5228 20 20 15.5228 20 10C20 4.47715 15.5228 0 10 0C4.47715 0 0 4.47715 0 10C0 15.5228 4.47715 20 10 20ZM10 17C13.866 17 17 13.866 17 10C17 6.13401 13.866 3 10 3C6.13401 3 3 6.13401 3 10C3 13.866 6.13401 17 10 17Z" fill="#2E4F4F"/></g><rect x="355" y="88.75" width="29.58" height="29.58" fill="#2C3333"/><rect x="355" y="88.75" width="29.58" height="29.58" fill="#2C3333"/><rect x="384.58" y="88.75" width="29.58" height="29.58" fill="#2C3333"/><circle cx="399.37" cy="103.53999999999999" r="14.79" fill="#2C3333"/><rect x="414.17" y="59.17" width="59.17" height="59.17" fill="#2E4F4F"/><rect x="414.17" y="59.17" width="59.17" height="59.17" fill="#2C3333"/><rect x="473.33" y="59.17" width="59.17" height="59.17" fill="#2C3333"/><circle cx="502.91499999999996" cy="88.755" r="29.585" fill="#2C3333"/><rect x="532.5" y="59.166666666666664" width="59.166666666666664" height="59.166666666666664" fill="#ffffff"/><rect x="532.5" y="59.17" width="29.58" height="29.58" fill="#2C3333"/><circle cx="547.29" cy="73.96000000000001" r="14.79" fill="#2C3333"/><rect x="562.08" y="59.17" width="29.58" height="29.58" fill="#2E4F4F"/><rect x="562.08" y="59.17" width="29.58" height="29.58" fill="#2E4F4F"/><rect x="532.5" y="88.75" width="29.58" height="29.58" fill="#2E4F4F"/><g transform="translate(532.5,88.75) scale(1.4789999999999999) rotate(0)"><path fill-rule="evenodd" clip-rule="evenodd" d="M10 20C15.5228 20 20 15.5228 20 10C20 4.47715 15.5228 0 10 0C4.47715 0 0 4.47715 0 10C0 15.5228 4.47715 20 10 20ZM10 17C13.866 17 17 13.866 17 10C17 6.13401 13.866 3 10 3C6.13401 3 3 6.13401 3 10C3 13.866 6.13401 17 10 17Z" fill="#2C3333"/></g><rect x="562.08" y="88.75" width="29.58" height="29.58" fill="#2C3333"/><g transform="translate(562.08,88.75) scale(1.4789999999999999) rotate(0)"><path fill-rule="evenodd" clip-rule="evenodd" d="M10 20C15.5228 20 20 15.5228 20 10C20 4.47715 15.5228 0 10 0C4.47715 0 0 4.47715 0 10C0 15.5228 4.47715 20 10 20ZM10 17C13.866 17 17 13.866 17 10C17 6.13401 13.866 3 10 3C6.13401 3 3 6.13401 3 10C3 13.866 6.13401 17 10 17Z" fill="#2C3333"/></g><rect x="591.6666666666666" y="59.166666666666664" width="59.166666666666664" height="59.166666666666664" fill="#ffffff"/><rect x="591.67" y="59.17" width="29.58" height="29.58" fill="#2E4F4F"/><rect x="591.67" y="59.17" width="29.58" height="29.58" fill="#2E4F4F"/><rect x="621.25" y="59.17" width="29.58" height="29.58" fill="#2C3333"/><g transform="translate(621.25,59.17) scale(1.4789999999999999) rotate(0)"><path fill-rule="evenodd" clip-rule="evenodd" d="M10 20C15.5228 20 20 15.5228 20 10C20 4.47715 15.5228 0 10 0C4.47715 0 0 4.47715 0 10C0 15.5228 4.47715 20 10 20ZM10 17C13.866 17 17 13.866 17 10C17 6.13401 13.866 3 10 3C6.13401 3 3 6.13401 3 10C3 13.866 6.13401 17 10 17Z" fill="#2E4F4F"/></g><rect x="591.67" y="88.75" width="29.58" height="29.58" fill="#2C3333"/><g transform="translate(591.67,88.75) scale(1.4789999999999999) rotate(0)"><path d="M10 5L5 0L0 5L5 10L0 15L5 20L10 15L15 20L20 15L15 10L20 5L15 0L10 5Z" fill="#2C3333"/></g><rect x="621.25" y="88.75" width="29.58" height="29.58" fill="#2C3333"/><rect x="621.25" y="88.75" width="29.58" height="29.58" fill="#2E4F4F"/><rect x="0" y="118.33333333333333" width="59.166666666666664" height="59.166666666666664" fill="#ffffff"/><rect x="0" y="118.33" width="29.58" height="29.58" fill="#2C3333"/><g transform="translate(0,118.33) scale(1.4789999999999999) rotate(0)"><path fill-rule="evenodd" clip-rule="evenodd" d="M10 20C15.5228 20 20 15.5228 20 10C20 4.47715 15.5228 0 10 0C4.47715 0 0 4.47715 0 10C0 15.5228 4.47715 20 10 20ZM10 17C13.866 17 17 13.866 17 10C17 6.13401 13.866 3 10 3C6.13401 3 3 6.13401 3 10C3 13.866 6.13401 17 10 17Z" fill="#2E4F4F"/></g><rect x="29.58" y="118.33" width="29.58" height="29.58" fill="#2C3333"/><circle cx="44.37" cy="133.12" r="14.79" fill="#2E4F4F"/><rect x="0" y="147.92" width="29.58" height="29.58" fill="#2C3333"/><g transform="translate(0,147.92) scale(1.4789999999999999) rotate(0)"><path fill-rule="evenodd" clip-rule="evenodd" d="M10 20C15.5228 20 20 15.5228 20 10C20 4.47715 15.5228 0 10 0C4.47715 0 0 4.47715 0 10C0 15.5228 4.47715 20 10 20ZM10 17C13.866 17 17 13.866 17 10C17 6.13401 13.866 3 10 3C6.13401 3 3 6.13401 3 10C3 13.866 6.13401 17 10 17Z" fill="#2C3333"/></g><rect x="29.58" y="147.92" width="29.58" height="29.58" fill="#2E4F4F"/><rect x="29.58" y="147.92" width="29.58" height="29.58" fill="#2E4F4F"/><rect x="59.166666666666664" y="118.33333333333333" width="59.166666666666664" height="59.166666666666664" fill="#ffffff"/><rect x="59.17" y="118.33" width="29.58" height="29.58" fill="#2E4F4F"/><g transform="translate(59.17,118.33) scale(1.4789999999999999) rotate(0)"><path fill-rule="evenodd" clip-rule="evenodd" d="M10 20C15.5228 20 20 15.5228 20 10C20 4.47715 15.5228 0 10 0C4.47715 0 0 4.47715 0 10C0 15.5228 4.47715 20 10 20ZM10 17C13.866 17 17 13.866 17 10C17 6.13401 13.866 3 10 3C6.13401 3 3 6.13401 3 10C3 13.866 6.13401 17 10 17Z" fill="#2E4F4F"/></g><rect x="88.75" y="118.33" width="29.58" height="29.58" fill="#2E4F4F"/><rect x="88.75" y="118.33" width="29.58" height="29.58" fill="#2C3333"/><rect x="59.17" y="147.92" width="29.58" height="29.58" fill="#2C3333"/><circle cx="73.96000000000001" cy="162.70999999999998" r="14.79" fill="#2C3333"/><rect x="88.75" y="147.92" width="29.58" height="29.58" fill="#2E4F4F"/><g transform="translate(88.75,147.92) scale(1.4789999999999999) rotate(0)"><path fill-rule="evenodd" clip-rule="evenodd" d="M10 20C15.5228 20 20 15.5228 20 10C20 4.47715 15.5228 0 10 0C4.47715 0 0 4.47715 0 10C0 15.5228 4.47715 20 10 20ZM10 17C13.866 17 17 13.866 17 10C17 6.13401 13.866 3 10 3C6.13401 3 3 6.13401 3 10C3 13.866 6.13401 17 10 17Z" fill="#2E4F4F"/></g><rect x="118.33333333333333" y="118.33333333333333" width="59.166666666666664" height="59.166666666666664" fill="#ffffff"/><rect x="118.33" y="118.33" width="29.58" height="29.58" fill="#2C3333"/><rect x="118.33" y="118.33" width="29.58" height="29.58" fill="#2E4F4F"/><rect x="147.92" y="118.33" width="29.58" height="29.58" fill="#2C3333"/><rect x="147.92" y="118.33" width="29.58" height="29.58" fill="#2C3333"/><rect x="118.33" y="147.92" width="29.58" height="29.58" fill="#2E4F4F"/><rect x="118.33" y="147.92" width="29.58" height="29.58" fill="#2C3333"/><rect x="147.92" y="147.92" width="29.58" height="29.58" fill="#2C3333"/><g transform="translate(147.92,147.92) scale(1.4789999999999999) rotate(0)"><path fill-rule="evenodd" clip-rule="evenodd" d="M10 20C15.5228 20 20 15.5228 20 10C20 4.47715 15.5228 0 10 0C4.47715 0 0 4.47715 0 10C0 15.5228 4.47715 20 10 20ZM10 17C13.866 17 17 13.866 17 10C17 6.13401 13.866 3 10 3C6.13401 3 3 6.13401 3 10C3 13.866 6.13401 17 10 17Z" fill="#2E4F4F"/></g><rect x="177.5" y="118.33333333333333" width="59.166666666666664" height="59.166666666666664" fill="#ffffff"/><rect x="177.5" y="118.33" width="29.58" height="29.58" fill="#2C3333"/><circle cx="192.29" cy="133.12" r="14.79" fill="#2E4F4F"/><rect x="207.08" y="118.33" width="29.58" height="29.58" fill="#2C3333"/><rect x="207.08" y="118.33" width="29.58" height="29.58" fill="#2E4F4F"/><rect x="177.5" y="147.92" width="29.58" height="29.58" fill="#2C3333"/><circle cx="192.29" cy="162.70999999999998" r="14.79" fill="#2E4F4F"/><rect x="207.08" y="147.92" width="29.58" height="29.58" fill="#2C3333"/><g transform="translate(207.08,147.92) scale(1.4789999999999999) rotate(0)"><path d="M10 5L5 0L0 5L5 10L0 15L5 20L10 15L15 20L20 15L15 10L20 5L15 0L10 5Z" fill="#2E4F4F"/></g><rect x="236.66666666666666" y="118.33333333333333" width="59.166666666666664" height="59.166666666666664" fill="#ffffff"/><rect x="236.67" y="118.33" width="29.58" height="29.58" fill="#2E4F4F"/><g transform="translate(236.67,118.33) scale(1.4789999999999999) rotate(0)"><path d="M10 5L5 0L0 5L5 10L0 15L5 20L10 15L15 20L20 15L15 10L20 5L15 0L10 5Z" fill="#2C3333"/></g><rect x="266.25" y="118.33" width="29.58" height="29.58" fill="#2E4F4F"/><g transform="translate(266.25,118.33) scale(1.4789999999999999) rotate(0)"><path d="M10 5L5 0L0 5L5 10L0 15L5 20L10 15L15 20L20 15L15 10L20 5L15 0L10 5Z" fill="#2C3333"/></g><rect x="236.67" y="147.92" width="29.58" height="29.58" fill="#2E4F4F"/><g transform="translate(236.67,147.92) scale(1.4789999999999999) rotate(0)"><path d="M10 5L5 0L0 5L5 10L0 15L5 20L10 15L15 20L20 15L15 10L20 5L15 0L10 5Z" fill="#2C3333"/></g><rect x="266.25" y="147.92" width="29.58" height="29.58" fill="#2E4F4F"/><g transform="translate(266.25,147.92) scale(1.4789999999999999) rotate(0)"><path d="M10 5L5 0L0 5L5 10L0 15L5 20L10 15L15 20L20 15L15 10L20 5L15 0L10 5Z" fill="#2E4F4F"/></g><rect x="295.8333333333333" y="118.33333333333333" width="59.166666666666664" height="59.166666666666664" fill="#ffffff"/><rect x="295.83" y="118.33" width="29.58" height="29.58" fill="#2E4F4F"/><circle cx="310.62" cy="133.12" r="14.79" fill="#2E4F4F"/><rect x="325.42" y="118.33" width="29.58" height="29.58" fill="#2E4F4F"/><g transform="translate(325.42,118.33) scale(1.4789999999999999) rotate(0)"><path d="M10 5L5 0L0 5L5 10L0 15L5 20L10 15L15 20L20 15L15 10L20 5L15 0L10 5Z" fill="#2C3333"/></g><rect x="295.83" y="147.92" width="29.58" height="29.58" fill="#2C3333"/><g transform="translate(295.83,147.92) scale(1.4789999999999999) rotate(0)"><path d="M10 5L5 0L0 5L5 10L0 15L5 20L10 15L15 20L20 15L15 10L20 5L15 0L10 5Z" fill="#2E4F4F"/></g><rect x="325.42" y="147.92" width="29.58" height="29.58" fill="#2C3333"/><circle cx="340.21000000000004" cy="162.70999999999998" r="14.79" fill="#2E4F4F"/><rect x="355" y="118.33" width="59.17" height="59.17" fill="#2E4F4F"/><circle cx="384.585" cy="147.915" r="29.585" fill="#2C3333"/><rect x="414.16666666666663" y="118.33333333333333" width="59.166666666666664" height="59.166666666666664" fill="#ffffff"/><rect x="414.17" y="118.33" width="29.58" height="29.58" fill="#2C3333"/><g transform="translate(414.17,118.33) scale(1.4789999999999999) rotate(0)"><path d="M10 5L5 0L0 5L5 10L0 15L5 20L10 15L15 20L20 15L15 10L20 5L15 0L10 5Z" fill="#2E4F4F"/></g><rect x="443.75" y="118.33" width="29.58" height="29.58" fill="#2C3333"/><rect x="443.75" y="118.33" width="29.58" height="29.58" fill="#2E4F4F"/><rect x="414.17" y="147.92" width="29.58" height="29.58" fill="#2E4F4F"/><rect x="414.17" y="147.92" width="29.58" height="29.58" fill="#2C3333"/><rect x="443.75" y="147.92" width="29.58" height="29.58" fill="#2C3333"/><g transform="translate(443.75,147.92) scale(1.4789999999999999) rotate(0)"><path fill-rule="evenodd" clip-rule="evenodd" d="M10 20C15.5228 20 20 15.5228 20 10C20 4.47715 15.5228 0 10 0C4.47715 0 0 4.47715 0 10C0 15.5228 4.47715 20 10 20ZM10 17C13.866 17 17 13.866 17 10C17 6.13401 13.866 3 10 3C6.13401 3 3 6.13401 3 10C3 13.866 6.13401 17 10 17Z" fill="#2E4F4F"/></g><rect x="473.33" y="118.33" width="59.17" height="59.17" fill="#2E4F4F"/><g transform="translate(473.33,118.33) scale(2.9585) rotate(0)"><path d="M10 5L5 0L0 5L5 10L0 15L5 20L10 15L15 20L20 15L15 10L20 5L15 0L10 5Z" fill="#2C3333"/></g><rect x="532.5" y="118.33333333333333" width="59.166666666666664" height="59.166666666666664" fill="#ffffff"/><rect x="532.5" y="118.33" width="29.58" height="29.58" fill="#2C3333"/><g transform="translate(532.5,118.33) scale(1.4789999999999999) rotate(0)"><path fill-rule="evenodd" clip-rule="evenodd" d="M10 20C15.5228 20 20 15.5228 20 10C20 4.47715 15.5228 0 10 0C4.47715 0 0 4.47715 0 10C0 15.5228 4.47715 20 10 20ZM10 17C13.866 17 17 13.866 17 10C17 6.13401 13.866 3 10 3C6.13401 3 3 6.13401 3 10C3 13.866 6.13401 17 10 17Z" fill="#2E4F4F"/></g><rect x="562.08" y="118.33" width="29.58" height="29.58" fill="#2C3333"/><circle cx="576.87" cy="133.12" r="14.79" fill="#2E4F4F"/><rect x="532.5" y="147.92" width="29.58" height="29.58" fill="#2C3333"/><g transform="translate(532.5,147.92) scale(1.4789999999999999) rotate(0)"><path d="M10 5L5 0L0 5L5 10L0 15L5 20L10 15L15 20L20 15L15 10L20 5L15 0L10 5Z" fill="#2E4F4F"/></g><rect x="562.08" y="147.92" width="29.58" height="29.58" fill="#2E4F4F"/><circle cx="576.87" cy="162.70999999999998" r="14.79" fill="#2E4F4F"/><rect x="591.67" y="118.33" width="59.17" height="59.17" fill="#2C3333"/><g transform="translate(591.67,118.33) scale(2.9585) rotate(0)"><path fill-rule="evenodd" clip-rule="evenodd" d="M10 20C15.5228 20 20 15.5228 20 10C20 4.47715 15.5228 0 10 0C4.47715 0 0 4.47715 0 10C0 15.5228 4.47715 20 10 20ZM10 17C13.866 17 17 13.866 17 10C17 6.13401 13.866 3 10 3C6.13401 3 3 6.13401 3 10C3 13.866 6.13401 17 10 17Z" fill="#2C3333"/></g><rect x="0" y="177.5" width="59.17" height="59.17" fill="#2E4F4F"/><g transform="translate(0,177.5) scale(2.9585) rotate(0)"><path d="M10 5L5 0L0 5L5 10L0 15L5 20L10 15L15 20L20 15L15 10L20 5L15 0L10 5Z" fill="#2C3333"/></g><rect x="59.166666666666664" y="177.5" width="59.166666666666664" height="59.166666666666664" fill="#ffffff"/><rect x="59.17" y="177.5" width="29.58" height="29.58" fill="#2C3333"/><g transform="translate(59.17,177.5) scale(1.4789999999999999) rotate(0)"><path d="M10 5L5 0L0 5L5 10L0 15L5 20L10 15L15 20L20 15L15 10L20 5L15 0L10 5Z" fill="#2C3333"/></g><rect x="88.75" y="177.5" width="29.58" height="29.58" fill="#2C3333"/><g transform="translate(88.75,177.5) scale(1.4789999999999999) rotate(0)"><path d="M10 5L5 0L0 5L5 10L0 15L5 20L10 15L15 20L20 15L15 10L20 5L15 0L10 5Z" fill="#2C3333"/></g><rect x="59.17" y="207.08" width="29.58" height="29.58" fill="#2C3333"/><g transform="translate(59.17,207.08) scale(1.4789999999999999) rotate(0)"><path d="M10 5L5 0L0 5L5 10L0 15L5 20L10 15L15 20L20 15L15 10L20 5L15 0L10 5Z" fill="#2E4F4F"/></g><rect x="88.75" y="207.08" width="29.58" height="29.58" fill="#2E4F4F"/><g transform="translate(88.75,207.08) scale(1.4789999999999999) rotate(0)"><path fill-rule="evenodd" clip-rule="evenodd" d="M10 20C15.5228 20 20 15.5228 20 10C20 4.47715 15.5228 0 10 0C4.47715 0 0 4.47715 0 10C0 15.5228 4.47715 20 10 20ZM10 17C13.866 17 17 13.866 17 10C17 6.13401 13.866 3 10 3C6.13401 3 3 6.13401 3 10C3 13.866 6.13401 17 10 17Z" fill="#2E4F4F"/></g><rect x="118.33" y="177.5" width="59.17" height="59.17" fill="#2E4F4F"/><g transform="translate(118.33,177.5) scale(2.9585) rotate(0)"><path d="M10 5L5 0L0 5L5 10L0 15L5 20L10 15L15 20L20 15L15 10L20 5L15 0L10 5Z" fill="#2C3333"/></g><rect x="177.5" y="177.5" width="59.166666666666664" height="59.166666666666664" fill="#ffffff"/><rect x="177.5" y="177.5" width="29.58" height="29.58" fill="#2C3333"/><g transform="translate(177.5,177.5) scale(1.4789999999999999) rotate(0)"><path fill-rule="evenodd" clip-rule="evenodd" d="M10 20C15.5228 20 20 15.5228 20 10C20 4.47715 15.5228 0 10 0C4.47715 0 0 4.47715 0 10C0 15.5228 4.47715 20 10 20ZM10 17C13.866 17 17 13.866 17 10C17 6.13401 13.866 3 10 3C6.13401 3 3 6.13401 3 10C3 13.866 6.13401 17 10 17Z" fill="#2C3333"/></g><rect x="207.08" y="177.5" width="29.58" height="29.58" fill="#2E4F4F"/><g transform="translate(207.08,177.5) scale(1.4789999999999999) rotate(0)"><path fill-rule="evenodd" clip-rule="evenodd" d="M10 20C15.5228 20 20 15.5228 20 10C20 4.47715 15.5228 0 10 0C4.47715 0 0 4.47715 0 10C0 15.5228 4.47715 20 10 20ZM10 17C13.866 17 17 13.866 17 10C17 6.13401 13.866 3 10 3C6.13401 3 3 6.13401 3 10C3 13.866 6.13401 17 10 17Z" fill="#2E4F4F"/></g><rect x="177.5" y="207.08" width="29.58" height="29.58" fill="#2E4F4F"/><circle cx="192.29" cy="221.87" r="14.79" fill="#2C3333"/><rect x="207.08" y="207.08" width="29.58" height="29.58" fill="#2E4F4F"/><g transform="translate(207.08,207.08) scale(1.4789999999999999) rotate(0)"><path d="M10 5L5 0L0 5L5 10L0 15L5 20L10 15L15 20L20 15L15 10L20 5L15 0L10 5Z" fill="#2C3333"/></g><rect x="236.66666666666666" y="177.5" width="59.166666666666664" height="59.166666666666664" fill="#ffffff"/><rect x="236.67" y="177.5" width="29.58" height="29.58" fill="#2E4F4F"/><rect x="236.67" y="177.5" width="29.58" height="29.58" fill="#2E4F4F"/><rect x="266.25" y="177.5" width="29.58" height="29.58" fill="#2C3333"/><rect x="266.25" y="177.5" width="29.58" height="29.58" fill="#2E4F4F"/><rect x="236.67" y="207.08" width="29.58" height="29.58" fill="#2C3333"/><g transform="translate(236.67,207.08) scale(1.4789999999999999) rotate(0)"><path fill-rule="evenodd" clip-rule="evenodd" d="M10 20C15.5228 20 20 15.5228 20 10C20 4.47715 15.5228 0 10 0C4.47715 0 0 4.47715 0 10C0 15.5228 4.47715 20 10 20ZM10 17C13.866 17 17 13.866 17 10C17 6.13401 13.866 3 10 3C6.13401 3 3 6.13401 3 10C3 13.866 6.13401 17 10 17Z" fill="#2E4F4F"/></g><rect x="266.25" y="207.08" width="29.58" height="29.58" fill="#2E4F4F"/><rect x="266.25" y="207.08" width="29.58" height="29.58" fill="#2E4F4F"/><rect x="295.83" y="177.5" width="59.17" height="59.17" fill="#2C3333"/><rect x="295.83" y="177.5" width="59.17" height="59.17" fill="#2C3333"/><rect x="355" y="177.5" width="59.166666666666664" height="59.166666666666664" fill="#ffffff"/><rect x="355" y="177.5" width="29.58" height="29.58" fill="#2C3333"/><rect x="355" y="177.5" width="29.58" height="29.58" fill="#2C3333"/><rect x="384.58" y="177.5" width="29.58" height="29.58" fill="#2E4F4F"/><g transform="translate(384.58,177.5) scale(1.4789999999999999) rotate(0)"><path d="M10 5L5 0L0 5L5 10L0 15L5 20L10 15L15 20L20 15L15 10L20 5L15 0L10 5Z" fill="#2E4F4F"/></g><rect x="355" y="207.08" width="29.58" height="29.58" fill="#2C3333"/><rect x="355" y="207.08" width="29.58" height="29.58" fill="#2E4F4F"/><rect x="384.58" y="207.08" width="29.58" height="29.58" fill="#2C3333"/><g transform="translate(384.58,207.08) scale(1.4789999999999999) rotate(0)"><path d="M10 5L5 0L0 5L5 10L0 15L5 20L10 15L15 20L20 15L15 10L20 5L15 0L10 5Z" fill="#2E4F4F"/></g><rect x="414.16666666666663" y="177.5" width="59.166666666666664" height="59.166666666666664" fill="#ffffff"/><rect x="414.17" y="177.5" width="29.58" height="29.58" fill="#2E4F4F"/><circle cx="428.96000000000004" cy="192.29" r="14.79" fill="#2C3333"/><rect x="443.75" y="177.5" width="29.58" height="29.58" fill="#2E4F4F"/><g transform="translate(443.75,177.5) scale(1.4789999999999999) rotate(0)"><path fill-rule="evenodd" clip-rule="evenodd" d="M10 20C15.5228 20 20 15.5228 20 10C20 4.47715 15.5228 0 10 0C4.47715 0 0 4.47715 0 10C0 15.5228 4.47715 20 10 20ZM10 17C13.866 17 17 13.866 17 10C17 6.13401 13.866 3 10 3C6.13401 3 3 6.13401 3 10C3 13.866 6.13401 17 10 17Z" fill="#2C3333"/></g><rect x="414.17" y="207.08" width="29.58" height="29.58" fill="#2C3333"/><g transform="translate(414.17,207.08) scale(1.4789999999999999) rotate(0)"><path fill-rule="evenodd" clip-rule="evenodd" d="M10 20C15.5228 20 20 15.5228 20 10C20 4.47715 15.5228 0 10 0C4.47715 0 0 4.47715 0 10C0 15.5228 4.47715 20 10 20ZM10 17C13.866 17 17 13.866 17 10C17 6.13401 13.866 3 10 3C6.13401 3 3 6.13401 3 10C3 13.866 6.13401 17 10 17Z" fill="#2C3333"/></g><rect x="443.75" y="207.08" width="29.58" height="29.58" fill="#2E4F4F"/><g transform="translate(443.75,207.08) scale(1.4789999999999999) rotate(0)"><path d="M10 5L5 0L0 5L5 10L0 15L5 20L10 15L15 20L20 15L15 10L20 5L15 0L10 5Z" fill="#2E4F4F"/></g><rect x="473.33" y="177.5" width="59.17" height="59.17" fill="#2E4F4F"/><rect x="473.33" y="177.5" width="59.17" height="59.17" fill="#2E4F4F"/><rect x="532.5" y="177.5" width="59.166666666666664" height="59.166666666666664" fill="#ffffff"/><rect x="532.5" y="177.5" width="29.58" height="29.58" fill="#2C3333"/><rect x="532.5" y="177.5" width="29.58" height="29.58" fill="#2E4F4F"/><rect x="562.08" y="177.5" width="29.58" height="29.58" fill="#2E4F4F"/><circle cx="576.87" cy="192.29" r="14.79" fill="#2C3333"/><rect x="532.5" y="207.08" width="29.58" height="29.58" fill="#2C3333"/><g transform="translate(532.5,207.08) scale(1.4789999999999999) rotate(0)"><path fill-rule="evenodd" clip-rule="evenodd" d="M10 20C15.5228 20 20 15.5228 20 10C20 4.47715 15.5228 0 10 0C4.47715 0 0 4.47715 0 10C0 15.5228 4.47715 20 10 20ZM10 17C13.866 17 17 13.866 17 10C17 6.13401 13.866 3 10 3C6.13401 3 3 6.13401 3 10C3 13.866 6.13401 17 10 17Z" fill="#2C3333"/></g><rect x="562.08" y="207.08" width="29.58" height="29.58" fill="#2E4F4F"/><g transform="translate(562.08,207.08) scale(1.4789999999999999) rotate(0)"><path fill-rule="evenodd" clip-rule="evenodd" d="M10 20C15.5228 20 20 15.5228 20 10C20 4.47715 15.5228 0 10 0C4.47715 0 0 4.47715 0 10C0 15.5228 4.47715 20 10 20ZM10 17C13.866 17 17 13.866 17 10C17 6.13401 13.866 3 10 3C6.13401 3 3 6.13401 3 10C3 13.866 6.13401 17 10 17Z" fill="#2C3333"/></g><rect x="591.67" y="177.5" width="59.17" height="59.17" fill="#2E4F4F"/><g transform="translate(591.67,177.5) scale(2.9585) rotate(0)"><path d="M10 5L5 0L0 5L5 10L0 15L5 20L10 15L15 20L20 15L15 10L20 5L15 0L10 5Z" fill="#2C3333"/></g><rect x="0" y="236.67" width="59.17" height="59.17" fill="#2E4F4F"/><g transform="translate(0,236.67) scale(2.9585) rotate(0)"><path d="M10 5L5 0L0 5L5 10L0 15L5 20L10 15L15 20L20 15L15 10L20 5L15 0L10 5Z" fill="#2E4F4F"/></g><rect x="59.166666666666664" y="236.66666666666666" width="59.166666666666664" height="59.166666666666664" fill="#ffffff"/><rect x="59.17" y="236.67" width="29.58" height="29.58" fill="#2C3333"/><rect x="59.17" y="236.67" width="29.58" height="29.58" fill="#2C3333"/><rect x="88.75" y="236.67" width="29.58" height="29.58" fill="#2E4F4F"/><g transform="translate(88.75,236.67) scale(1.4789999999999999) rotate(0)"><path fill-rule="evenodd" clip-rule="evenodd" d="M10 20C15.5228 20 20 15.5228 20 10C20 4.47715 15.5228 0 10 0C4.47715 0 0 4.47715 0 10C0 15.5228 4.47715 20 10 20ZM10 17C13.866 17 17 13.866 17 10C17 6.13401 13.866 3 10 3C6.13401 3 3 6.13401 3 10C3 13.866 6.13401 17 10 17Z" fill="#2E4F4F"/></g><rect x="59.17" y="266.25" width="29.58" height="29.58" fill="#2C3333"/><circle cx="73.96000000000001" cy="281.04" r="14.79" fill="#2E4F4F"/><rect x="88.75" y="266.25" width="29.58" height="29.58" fill="#2C3333"/><g transform="translate(88.75,266.25) scale(1.4789999999999999) rotate(0)"><path d="M10 5L5 0L0 5L5 10L0 15L5 20L10 15L15 20L20 15L15 10L20 5L15 0L10 5Z" fill="#2E4F4F"/></g><rect x="118.33333333333333" y="236.66666666666666" width="59.166666666666664" height="59.166666666666664" fill="#ffffff"/><rect x="118.33" y="236.67" width="29.58" height="29.58" fill="#2C3333"/><circle cx="133.12" cy="251.45999999999998" r="14.79" fill="#2E4F4F"/><rect x="147.92" y="236.67" width="29.58" height="29.58" fill="#2C3333"/><rect x="147.92" y="236.67" width="29.58" height="29.58" fill="#2E4F4F"/><rect x="118.33" y="266.25" width="29.58" height="29.58" fill="#2E4F4F"/><g transform="translate(118.33,266.25) scale(1.4789999999999999) rotate(0)"><path d="M10 5L5 0L0 5L5 10L0 15L5 20L10 15L15 20L20 15L15 10L20 5L15 0L10 5Z" fill="#2E4F4F"/></g><rect x="147.92" y="266.25" width="29.58" height="29.58" fill="#2C3333"/><g transform="translate(147.92,266.25) scale(1.4789999999999999) rotate(0)"><path fill-rule="evenodd" clip-rule="evenodd" d="M10 20C15.5228 20 20 15.5228 20 10C20 4.47715 15.5228 0 10 0C4.47715 0 0 4.47715 0 10C0 15.5228 4.47715 20 10 20ZM10 17C13.866 17 17 13.866 17 10C17 6.13401 13.866 3 10 3C6.13401 3 3 6.13401 3 10C3 13.866 6.13401 17 10 17Z" fill="#2C3333"/></g><rect x="177.5" y="236.67" width="59.17" height="59.17" fill="#2C3333"/><circle cx="207.085" cy="266.255" r="29.585" fill="#2E4F4F"/><rect x="236.67" y="236.67" width="59.17" height="59.17" fill="#2E4F4F"/><circle cx="266.255" cy="266.255" r="29.585" fill="#2C3333"/><rect x="295.8333333333333" y="236.66666666666666" width="59.166666666666664" height="59.166666666666664" fill="#ffffff"/><rect x="295.83" y="236.67" width="29.58" height="29.58" fill="#2C3333"/><rect x="295.83" y="236.67" width="29.58" height="29.58" fill="#2E4F4F"/><rect x="325.42" y="236.67" width="29.58" height="29.58" fill="#2E4F4F"/><g transform="translate(325.42,236.67) scale(1.4789999999999999) rotate(0)"><path d="M10 5L5 0L0 5L5 10L0 15L5 20L10 15L15 20L20 15L15 10L20 5L15 0L10 5Z" fill="#2E4F4F"/></g><rect x="295.83" y="266.25" width="29.58" height="29.58" fill="#2C3333"/><g transform="translate(295.83,266.25) scale(1.4789999999999999) rotate(0)"><path fill-rule="evenodd" clip-rule="evenodd" d="M10 20C15.5228 20 20 15.5228 20 10C20 4.47715 15.5228 0 10 0C4.47715 0 0 4.47715 0 10C0 15.5228 4.47715 20 10 20ZM10 17C13.866 17 17 13.866 17 10C17 6.13401 13.866 3 10 3C6.13401 3 3 6.13401 3 10C3 13.866 6.13401 17 10 17Z" fill="#2C3333"/></g><rect x="325.42" y="266.25" width="29.58" height="29.58" fill="#2E4F4F"/><rect x="325.42" y="266.25" width="29.58" height="29.58" fill="#2E4F4F"/><rect x="355" y="236.67" width="59.17" height="59.17" fill="#2E4F4F"/><rect x="355" y="236.67" width="59.17" height="59.17" fill="#2C3333"/><rect x="414.17" y="236.67" width="59.17" height="59.17" fill="#2E4F4F"/><g transform="translate(414.17,236.67) scale(2.9585) rotate(0)"><path fill-rule="evenodd" clip-rule="evenodd" d="M10 20C15.5228 20 20 15.5228 20 10C20 4.47715 15.5228 0 10 0C4.47715 0 0 4.47715 0 10C0 15.5228 4.47715 20 10 20ZM10 17C13.866 17 17 13.866 17 10C17 6.13401 13.866 3 10 3C6.13401 3 3 6.13401 3 10C3 13.866 6.13401 17 10 17Z" fill="#2E4F4F"/></g><rect x="473.3333333333333" y="236.66666666666666" width="59.166666666666664" height="59.166666666666664" fill="#ffffff"/><rect x="473.33" y="236.67" width="29.58" height="29.58" fill="#2E4F4F"/><g transform="translate(473.33,236.67) scale(1.4789999999999999) rotate(0)"><path d="M10 5L5 0L0 5L5 10L0 15L5 20L10 15L15 20L20 15L15 10L20 5L15 0L10 5Z" fill="#2E4F4F"/></g><rect x="502.92" y="236.67" width="29.58" height="29.58" fill="#2E4F4F"/><g transform="translate(502.92,236.67) scale(1.4789999999999999) rotate(0)"><path fill-rule="evenodd" clip-rule="evenodd" d="M10 20C15.5228 20 20 15.5228 20 10C20 4.47715 15.5228 0 10 0C4.47715 0 0 4.47715 0 10C0 15.5228 4.47715 20 10 20ZM10 17C13.866 17 17 13.866 17 10C17 6.13401 13.866 3 10 3C6.13401 3 3 6.13401 3 10C3 13.866 6.13401 17 10 17Z" fill="#2E4F4F"/></g><rect x="473.33" y="266.25" width="29.58" height="29.58" fill="#2C3333"/><g transform="translate(473.33,266.25) scale(1.4789999999999999) rotate(0)"><path d="M10 5L5 0L0 5L5 10L0 15L5 20L10 15L15 20L20 15L15 10L20 5L15 0L10 5Z" fill="#2E4F4F"/></g><rect x="502.92" y="266.25" width="29.58" height="29.58" fill="#2C3333"/><g transform="translate(502.92,266.25) scale(1.4789999999999999) rotate(0)"><path d="M10 5L5 0L0 5L5 10L0 15L5 20L10 15L15 20L20 15L15 10L20 5L15 0L10 5Z" fill="#2E4F4F"/></g><rect x="532.5" y="236.67" width="59.17" height="59.17" fill="#2E4F4F"/><g transform="translate(532.5,236.67) scale(2.9585) rotate(0)"><path fill-rule="evenodd" clip-rule="evenodd" d="M10 20C15.5228 20 20 15.5228 20 10C20 4.47715 15.5228 0 10 0C4.47715 0 0 4.47715 0 10C0 15.5228 4.47715 20 10 20ZM10 17C13.866 17 17 13.866 17 10C17 6.13401 13.866 3 10 3C6.13401 3 3 6.13401 3 10C3 13.866 6.13401 17 10 17Z" fill="#2E4F4F"/></g><rect x="591.67" y="236.67" width="59.17" height="59.17" fill="#2E4F4F"/><g transform="translate(591.67,236.67) scale(2.9585) rotate(0)"><path fill-rule="evenodd" clip-rule="evenodd" d="M10 20C15.5228 20 20 15.5228 20 10C20 4.47715 15.5228 0 10 0C4.47715 0 0 4.47715 0 10C0 15.5228 4.47715 20 10 20ZM10 17C13.866 17 17 13.866 17 10C17 6.13401 13.866 3 10 3C6.13401 3 3 6.13401 3 10C3 13.866 6.13401 17 10 17Z" fill="#2C3333"/></g><rect x="0" y="295.8333333333333" width="59.166666666666664" height="59.166666666666664" fill="#ffffff"/><rect x="0" y="295.83" width="29.58" height="29.58" fill="#2C3333"/><rect x="0" y="295.83" width="29.58" height="29.58" fill="#2E4F4F"/><rect x="29.58" y="295.83" width="29.58" height="29.58" fill="#2E4F4F"/><g transform="translate(29.58,295.83) scale(1.4789999999999999) rotate(0)"><path d="M10 5L5 0L0 5L5 10L0 15L5 20L10 15L15 20L20 15L15 10L20 5L15 0L10 5Z" fill="#2C3333"/></g><rect x="0" y="325.42" width="29.58" height="29.58" fill="#2E4F4F"/><g transform="translate(0,325.42) scale(1.4789999999999999) rotate(0)"><path fill-rule="evenodd" clip-rule="evenodd" d="M10 20C15.5228 20 20 15.5228 20 10C20 4.47715 15.5228 0 10 0C4.47715 0 0 4.47715 0 10C0 15.5228 4.47715 20 10 20ZM10 17C13.866 17 17 13.866 17 10C17 6.13401 13.866 3 10 3C6.13401 3 3 6.13401 3 10C3 13.866 6.13401 17 10 17Z" fill="#2E4F4F"/></g><rect x="29.58" y="325.42" width="29.58" height="29.58" fill="#2E4F4F"/><circle cx="44.37" cy="340.21000000000004" r="14.79" fill="#2E4F4F"/><rect x="59.17" y="295.83" width="59.17" height="59.17" fill="#2E4F4F"/><rect x="59.17" y="295.83" width="59.17" height="59.17" fill="#2E4F4F"/><rect x="118.33" y="295.83" width="59.17" height="59.17" fill="#2E4F4F"/><rect x="118.33" y="295.83" width="59.17" height="59.17" fill="#2E4F4F"/><rect x="177.5" y="295.8333333333333" width="59.166666666666664" height="59.166666666666664" fill="#ffffff"/><rect x="177.5" y="295.83" width="29.58" height="29.58" fill="#2E4F4F"/><g transform="translate(177.5,295.83) scale(1.4789999999999999) rotate(0)"><path fill-rule="evenodd" clip-rule="evenodd" d="M10 20C15.5228 20 20 15.5228 20 10C20 4.47715 15.5228 0 10 0C4.47715 0 0 4.47715 0 10C0 15.5228 4.47715 20 10 20ZM10 17C13.866 17 17 13.866 17 10C17 6.13401 13.866 3 10 3C6.13401 3 3 6.13401 3 10C3 13.866 6.13401 17 10 17Z" fill="#2C3333"/></g><rect x="207.08" y="295.83" width="29.58" height="29.58" fill="#2E4F4F"/><g transform="translate(207.08,295.83) scale(1.4789999999999999) rotate(0)"><path fill-rule="evenodd" clip-rule="evenodd" d="M10 20C15.5228 20 20 15.5228 20 10C20 4.47715 15.5228 0 10 0C4.47715 0 0 4.47715 0 10C0 15.5228 4.47715 20 10 20ZM10 17C13.866 17 17 13.866 17 10C17 6.13401 13.866 3 10 3C6.13401 3 3 6.13401 3 10C3 13.866 6.13401 17 10 17Z" fill="#2E4F4F"/></g><rect x="177.5" y="325.42" width="29.58" height="29.58" fill="#2C3333"/><circle cx="192.29" cy="340.21000000000004" r="14.79" fill="#2E4F4F"/><rect x="207.08" y="325.42" width="29.58" height="29.58" fill="#2E4F4F"/><g transform="translate(207.08,325.42) scale(1.4789999999999999) rotate(0)"><path d="M10 5L5 0L0 5L5 10L0 15L5 20L10 15L15 20L20 15L15 10L20 5L15 0L10 5Z" fill="#2E4F4F"/></g><rect x="236.66666666666666" y="295.8333333333333" width="59.166666666666664" height="59.166666666666664" fill="#ffffff"/><rect x="236.67" y="295.83" width="29.58" height="29.58" fill="#2E4F4F"/><g transform="translate(236.67,295.83) scale(1.4789999999999999) rotate(0)"><path fill-rule="evenodd" clip-rule="evenodd" d="M10 20C15.5228 20 20 15.5228 20 10C20 4.47715 15.5228 0 10 0C4.47715 0 0 4.47715 0 10C0 15.5228 4.47715 20 10 20ZM10 17C13.866 17 17 13.866 17 10C17 6.13401 13.866 3 10 3C6.13401 3 3 6.13401 3 10C3 13.866 6.13401 17 10 17Z" fill="#2C3333"/></g><rect x="266.25" y="295.83" width="29.58" height="29.58" fill="#2E4F4F"/><g transform="translate(266.25,295.83) scale(1.4789999999999999) rotate(0)"><path fill-rule="evenodd" clip-rule="evenodd" d="M10 20C15.5228 20 20 15.5228 20 10C20 4.47715 15.5228 0 10 0C4.47715 0 0 4.47715 0 10C0 15.5228 4.47715 20 10 20ZM10 17C13.866 17 17 13.866 17 10C17 6.13401 13.866 3 10 3C6.13401 3 3 6.13401 3 10C3 13.866 6.13401 17 10 17Z" fill="#2C3333"/></g><rect x="236.67" y="325.42" width="29.58" height="29.58" fill="#2C3333"/><circle cx="251.45999999999998" cy="340.21000000000004" r="14.79" fill="#2E4F4F"/><rect x="266.25" y="325.42" width="29.58" height="29.58" fill="#2C3333"/><rect x="266.25" y="325.42" width="29.58" height="29.58" fill="#2E4F4F"/><rect x="295.8333333333333" y="295.8333333333333" width="59.166666666666664" height="59.166666666666664" fill="#ffffff"/><rect x="295.83" y="295.83" width="29.58" height="29.58" fill="#2E4F4F"/><rect x="295.83" y="295.83" width="29.58" height="29.58" fill="#2C3333"/><rect x="325.42" y="295.83" width="29.58" height="29.58" fill="#2E4F4F"/><circle cx="340.21000000000004" cy="310.62" r="14.79" fill="#2E4F4F"/><rect x="295.83" y="325.42" width="29.58" height="29.58" fill="#2C3333"/><circle cx="310.62" cy="340.21000000000004" r="14.79" fill="#2E4F4F"/><rect x="325.42" y="325.42" width="29.58" height="29.58" fill="#2C3333"/><circle cx="340.21000000000004" cy="340.21000000000004" r="14.79" fill="#2C3333"/><rect x="355" y="295.83" width="59.17" height="59.17" fill="#2C3333"/><g transform="translate(355,295.83) scale(2.9585) rotate(0)"><path d="M10 5L5 0L0 5L5 10L0 15L5 20L10 15L15 20L20 15L15 10L20 5L15 0L10 5Z" fill="#2C3333"/></g><rect x="414.17" y="295.83" width="59.17" height="59.17" fill="#2C3333"/><circle cx="443.755" cy="325.41499999999996" r="29.585" fill="#2C3333"/><rect x="473.33" y="295.83" width="59.17" height="59.17" fill="#2E4F4F"/><g transform="translate(473.33,295.83) scale(2.9585) rotate(0)"><path d="M10 5L5 0L0 5L5 10L0 15L5 20L10 15L15 20L20 15L15 10L20 5L15 0L10 5Z" fill="#2C3333"/></g><rect x="532.5" y="295.8333333333333" width="59.166666666666664" height="59.166666666666664" fill="#ffffff"/><rect x="532.5" y="295.83" width="29.58" height="29.58" fill="#2C3333"/><circle cx="547.29" cy="310.62" r="14.79" fill="#2C3333"/><rect x="562.08" y="295.83" width="29.58" height="29.58" fill="#2E4F4F"/><rect x="562.08" y="295.83" width="29.58" height="29.58" fill="#2C3333"/><rect x="532.5" y="325.42" width="29.58" height="29.58" fill="#2C3333"/><circle cx="547.29" cy="340.21000000000004" r="14.79" fill="#2C3333"/><rect x="562.08" y="325.42" width="29.58" height="29.58" fill="#2C3333"/><rect x="562.08" y="325.42" width="29.58" height="29.58" fill="#2C3333"/><rect x="591.67" y="295.83" width="59.17" height="59.17" fill="#2E4F4F"/><circle cx="621.255" cy="325.41499999999996" r="29.585" fill="#2C3333"/></g></svg>