<?xml version="1.0" standalone="no"?><svg xmlns:xlink="http://www.w3.org/1999/xlink" xmlns="http://www.w3.org/2000/svg" viewBox="0 0 1000 545.4590152851445" preserveAspectRatio="xMaxYMax slice"><g transform="scale(1.5365042684088577)"><rect x="0" y="0" width="650.8333333333333" height="355" fill="#ffffff"/><rect x="0" y="0" width="59.17" height="59.17" fill="#0e8388"/><polygon points="0,0 59.17,0 0,59.17" fill="#2E4F4F"/><rect x="59.166666666666664" y="0" width="59.166666666666664" height="59.166666666666664" fill="#ffffff"/><rect x="59.17" y="0" width="29.58" height="29.58" fill="#2E4F4F"/><polygon points="59.17,0 88.75,0 59.17,29.58" fill="#2C3333"/><rect x="88.75" y="0" width="29.58" height="29.58" fill="#2E4F4F"/><polygon points="88.75,0 118.33,0 118.33,29.58" fill="#2E4F4F"/><rect x="59.17" y="29.58" width="29.58" height="29.58" fill="#0e8388"/><polygon points="59.17,29.58 88.75,59.16 59.17,59.16" fill="#2C3333"/><rect x="88.75" y="29.58" width="29.58" height="29.58" fill="#0e8388"/><polygon points="88.75,29.58 118.33,29.58 88.75,59.16" fill="#2E4F4F"/><rect x="118.33333333333333" y="0" width="59.166666666666664" height="59.166666666666664" fill="#ffffff"/><rect x="118.33" y="0" width="29.58" height="29.58" fill="#2C3333"/><polygon points="118.33,0 147.91,0 147.91,29.58" fill="#2E4F4F"/><rect x="147.92" y="0" width="29.58" height="29.58" fill="#0e8388"/><polygon points="177.5,0 177.5,29.58 147.92,29.58" fill="#2E4F4F"/><rect x="118.33" y="29.58" width="29.58" height="29.58" fill="#0e8388"/><polygon points="118.33,29.58 147.91,29.58 147.91,59.16" fill="#0e8388"/><rect x="147.92" y="29.58" width="29.58" height="29.58" fill="#0e8388"/><polygon points="147.92,29.58 177.5,59.16 147.92,59.16" fill="#2E4F4F"/><rect x="177.5" y="0" width="59.166666666666664" height="59.166666666666664" fill="#ffffff"/><rect x="177.5" y="0" width="29.58" height="29.58" fill="#0e8388"/><polygon points="177.5,0 207.07999999999998,0 207.07999999999998,29.58" fill="#0e8388"/><rect x="207.08" y="0" width="29.58" height="29.58" fill="#0e8388"/><polygon points="207.08,0 236.66000000000003,29.58 207.08,29.58" fill="#2C3333"/><rect x="177.5" y="29.58" width="29.58" height="29.58" fill="#0e8388"/><polygon points="177.5,29.58 207.07999999999998,29.58 207.07999999999998,59.16" fill="#0e8388"/><rect x="207.08" y="29.58" width="29.58" height="29.58" fill="#2E4F4F"/><polygon points="207.08,29.58 236.66000000000003,29.58 207.08,59.16" fill="#2E4F4F"/><rect x="236.67" y="0" width="59.17" height="59.17" fill="#2C3333"/><polygon points="236.67,0 295.84,0 236.67,59.17" fill="#2E4F4F"/><rect x="295.8333333333333" y="0" width="59.166666666666664" height="59.166666666666664" fill="#ffffff"/><rect x="295.83" y="0" width="29.58" height="29.58" fill="#2C3333"/><polygon points="295.83,0 325.40999999999997,0 325.40999999999997,29.58" fill="#2E4F4F"/><rect x="325.42" y="0" width="29.58" height="29.58" fill="#0e8388"/><polygon points="355,0 355,29.58 325.42,29.58" fill="#0e8388"/><rect x="295.83" y="29.58" width="29.58" height="29.58" fill="#2E4F4F"/><polygon points="295.83,29.58 325.40999999999997,29.58 325.40999999999997,59.16" fill="#0e8388"/><rect x="325.42" y="29.58" width="29.58" height="29.58" fill="#0e8388"/><polygon points="325.42,29.58 355,29.58 325.42,59.16" fill="#2C3333"/><rect x="355" y="0" width="59.166666666666664" height="59.166666666666664" fill="#ffffff"/><rect x="355" y="0" width="29.58" height="29.58" fill="#2C3333"/><polygon points="384.58,0 384.58,29.58 355,29.58" fill="#2C3333"/><rect x="384.58" y="0" width="29.58" height="29.58" fill="#2E4F4F"/><polygon points="384.58,0 414.15999999999997,0 414.15999999999997,29.58" fill="#2C3333"/><rect x="355" y="29.58" width="29.58" height="29.58" fill="#0e8388"/><polygon points="355,29.58 384.58,29.58 355,59.16" fill="#0e8388"/><rect x="384.58" y="29.58" width="29.58" height="29.58" fill="#0e8388"/><polygon points="384.58,29.58 414.15999999999997,29.58 384.58,59.16" fill="#0e8388"/><rect x="414.16666666666663" y="0" width="59.166666666666664" height="59.166666666666664" fill="#ffffff"/><rect x="414.17" y="0" width="29.58" height="29.58" fill="#0e8388"/><polygon points="414.17,0 443.75,29.58 414.17,29.58" fill="#0e8388"/><rect x="443.75" y="0" width="29.58" height="29.58" fill="#2C3333"/><polygon points="443.75,0 473.33,29.58 443.75,29.58" fill="#2E4F4F"/><rect x="414.17" y="29.58" width="29.58" height="29.58" fill="#2C3333"/><polygon points="414.17,29.58 443.75,29.58 414.17,59.16" fill="#0e8388"/><rect x="443.75" y="29.58" width="29.58" height="29.58" fill="#0e8388"/><polygon points="443.75,29.58 473.33,29.58 473.33,59.16" fill="#2C3333"/><rect x="473.3333333333333" y="0" width="59.166666666666664" height="59.166666666666664" fill="#ffffff"/><rect x="473.33" y="0" width="29.58" height="29.58" fill="#2E4F4F"/><polygon points="473.33,0 502.90999999999997,0 502.90999999999997,29.58" fill="#2E4F4F"/><rect x="502.92" y="0" width="29.58" height="29.58" fill="#2C3333"/><polygon points="502.92,0 532.5,0 532.5,29.58" fill="#2C3333"/><rect x="473.33" y="29.58" width="29.58" height="29.58" fill="#2C3333"/><polygon points="473.33,29.58 502.90999999999997,29.58 502.90999999999997,59.16" fill="#2E4F4F"/><rect x="502.92" y="29.58" width="29.58" height="29.58" fill="#0e8388"/><polygon points="502.92,29.58 532.5,59.16 502.92,59.16" fill="#0e8388"/><rect x="532.5" y="0" width="59.166666666666664" height="59.166666666666664" fill="#ffffff"/><rect x="532.5" y="0" width="29.58" height="29.58" fill="#0e8388"/><polygon points="532.5,0 562.08,29.58 532.5,29.58" fill="#0e8388"/><rect x="562.08" y="0" width="29.58" height="29.58" fill="#2C3333"/><polygon points="562.08,0 591.6600000000001,29.58 562.08,29.58" fill="#0e8388"/><rect x="532.5" y="29.58" width="29.58" height="29.58" fill="#2C3333"/><polygon points="532.5,29.58 562.08,29.58 562.08,59.16" fill="#2E4F4F"/><rect x="562.08" y="29.58" width="29.58" height="29.58" fill="#2E4F4F"/><polygon points="562.08,29.58 591.6600000000001,29.58 591.6600000000001,59.16" fill="#0e8388"/><rect x="591.6666666666666" y="0" width="59.166666666666664" height="59.166666666666664" fill="#ffffff"/><rect x="591.67" y="0" width="29.58" height="29.58" fill="#0e8388"/><polygon points="621.25,0 621.25,29.58 591.67,29.58" fill="#2C3333"/><rect x="621.25" y="0" width="29.58" height="29.58" fill="#2C3333"/><polygon points="621.25,0 650.83,0 650.83,29.58" fill="#0e8388"/><rect x="591.67" y="29.58" width="29.58" height="29.58" fill="#2E4F4F"/><polygon points="591.67,29.58 621.25,59.16 591.67,59.16" fill="#0e8388"/><rect x="621.25" y="29.58" width="29.58" height="29.58" fill="#2E4F4F"/><polygon points="621.25,29.58 650.83,29.58 621.25,59.16" fill="#2C3333"/><rect x="0" y="59.17" width="59.17" height="59.17" fill="#2C3333"/><polygon points="0,59.17 59.17,118.34 0,118.34" fill="#2E4F4F"/><rect x="59.166666666666664" y="59.166666666666664" width="59.166666666666664" height="59.166666666666664" fill="#ffffff"/><rect x="59.17" y="59.17" width="29.58" height="29.58" fill="#2E4F4F"/><polygon points="88.75,59.17 88.75,88.75 59.17,88.75" fill="#0e8388"/><rect x="88.75" y="59.17" width="29.58" height="29.58" fill="#2C3333"/><polygon points="88.75,59.17 118.33,88.75 88.75,88.75" fill="#2C3333"/><rect x="59.17" y="88.75" width="29.58" height="29.58" fill="#2C3333"/><polygon points="59.17,88.75 88.75,88.75 59.17,118.33" fill="#0e8388"/><rect x="88.75" y="88.75" width="29.58" height="29.58" fill="#0e8388"/><polygon points="88.75,88.75 118.33,118.33 88.75,118.33" fill="#0e8388"/><rect x="118.33" y="59.17" width="59.17" height="59.17" fill="#2C3333"/><polygon points="177.5,59.17 177.5,118.34 118.33,118.34" fill="#0e8388"/><rect x="177.5" y="59.166666666666664" width="59.166666666666664" height="59.166666666666664" fill="#ffffff"/><rect x="177.5" y="59.17" width="29.58" height="29.58" fill="#2E4F4F"/><polygon points="177.5,59.17 207.07999999999998,88.75 177.5,88.75" fill="#2C3333"/><rect x="207.08" y="59.17" width="29.58" height="29.58" fill="#2E4F4F"/><polygon points="207.08,59.17 236.66000000000003,59.17 236.66000000000003,88.75" fill="#0e8388"/><rect x="177.5" y="88.75" width="29.58" height="29.58" fill="#2E4F4F"/><polygon points="207.07999999999998,88.75 207.07999999999998,118.33 177.5,118.33" fill="#2E4F4F"/><rect x="207.08" y="88.75" width="29.58" height="29.58" fill="#2E4F4F"/><polygon points="207.08,88.75 236.66000000000003,118.33 207.08,118.33" fill="#2C3333"/><rect x="236.67" y="59.17" width="59.17" height="59.17" fill="#2E4F4F"/><polygon points="236.67,59.17 295.84,118.34 236.67,118.34" fill="#0e8388"/><rect x="295.8333333333333" y="59.166666666666664" width="59.166666666666664" height="59.166666666666664" fill="#ffffff"/><rect x="295.83" y="59.17" width="29.58" height="29.58" fill="#2E4F4F"/><polygon points="295.83,59.17 325.40999999999997,88.75 295.83,88.75" fill="#2E4F4F"/><rect x="325.42" y="59.17" width="29.58" height="29.58" fill="#2E4F4F"/><polygon points="355,59.17 355,88.75 325.42,88.75" fill="#2E4F4F"/><rect x="295.83" y="88.75" width="29.58" height="29.58" fill="#2E4F4F"/><polygon points="325.40999999999997,88.75 325.40999999999997,118.33 295.83,118.33" fill="#2C3333"/><rect x="325.42" y="88.75" width="29.58" height="29.58" fill="#2E4F4F"/><polygon points="325.42,88.75 355,88.75 325.42,118.33" fill="#2E4F4F"/><rect x="355" y="59.17" width="59.17" height="59.17" fill="#2C3333"/><polygon points="355,59.17 414.17,59.17 414.17,118.34" fill="#0e8388"/><rect x="414.17" y="59.17" width="59.17" height="59.17" fill="#2C3333"/><polygon points="414.17,59.17 473.34000000000003,59.17 473.34000000000003,118.34" fill="#2E4F4F"/><rect x="473.3333333333333" y="59.166666666666664" width="59.166666666666664" height="59.166666666666664" fill="#ffffff"/><rect x="473.33" y="59.17" width="29.58" height="29.58" fill="#2C3333"/><polygon points="473.33,59.17 502.90999999999997,59.17 502.90999999999997,88.75" fill="#2C3333"/><rect x="502.92" y="59.17" width="29.58" height="29.58" fill="#2E4F4F"/><polygon points="502.92,59.17 532.5,59.17 532.5,88.75" fill="#0e8388"/><rect x="473.33" y="88.75" width="29.58" height="29.58" fill="#2E4F4F"/><polygon points="502.90999999999997,88.75 502.90999999999997,118.33 473.33,118.33" fill="#2E4F4F"/><rect x="502.92" y="88.75" width="29.58" height="29.58" fill="#2E4F4F"/><polygon points="502.92,88.75 532.5,88.75 502.92,118.33" fill="#0e8388"/><rect x="532.5" y="59.17" width="59.17" height="59.17" fill="#2C3333"/><polygon points="532.5,59.17 591.67,118.34 532.5,118.34" fill="#0e8388"/><rect x="591.6666666666666" y="59.166666666666664" width="59.166666666666664" height="59.166666666666664" fill="#ffffff"/><rect x="591.67" y="59.17" width="29.58" height="29.58" fill="#2C3333"/><polygon points="591.67,59.17 621.25,88.75 591.67,88.75" fill="#0e8388"/><rect x="621.25" y="59.17" width="29.58" height="29.58" fill="#0e8388"/><polygon points="621.25,59.17 650.83,59.17 621.25,88.75" fill="#2C3333"/><rect x="591.67" y="88.75" width="29.58" height="29.58" fill="#0e8388"/><polygon points="591.67,88.75 621.25,88.75 591.67,118.33" fill="#0e8388"/><rect x="621.25" y="88.75" width="29.58" height="29.58" fill="#0e8388"/><polygon points="650.83,88.75 650.83,118.33 621.25,118.33" fill="#0e8388"/><rect x="0" y="118.33" width="59.17" height="59.17" fill="#2C3333"/><polygon points="59.17,118.33 59.17,177.5 0,177.5" fill="#2C3333"/><rect x="59.17" y="118.33" width="59.17" height="59.17" fill="#0e8388"/><polygon points="59.17,118.33 118.34,118.33 59.17,177.5" fill="#2C3333"/><rect x="118.33" y="118.33" width="59.17" height="59.17" fill="#0e8388"/><polygon points="118.33,118.33 177.5,118.33 177.5,177.5" fill="#2C3333"/><rect x="177.5" y="118.33333333333333" width="59.166666666666664" height="59.166666666666664" fill="#ffffff"/><rect x="177.5" y="118.33" width="29.58" height="29.58" fill="#2E4F4F"/><polygon points="177.5,118.33 207.07999999999998,118.33 177.5,147.91" fill="#0e8388"/><rect x="207.08" y="118.33" width="29.58" height="29.58" fill="#2E4F4F"/><polygon points="207.08,118.33 236.66000000000003,118.33 207.08,147.91" fill="#2E4F4F"/><rect x="177.5" y="147.92" width="29.58" height="29.58" fill="#0e8388"/><polygon points="177.5,147.92 207.07999999999998,147.92 177.5,177.5" fill="#0e8388"/><rect x="207.08" y="147.92" width="29.58" height="29.58" fill="#0e8388"/><polygon points="207.08,147.92 236.66000000000003,147.92 236.66000000000003,177.5" fill="#2E4F4F"/><rect x="236.66666666666666" y="118.33333333333333" width="59.166666666666664" height="59.166666666666664" fill="#ffffff"/><rect x="236.67" y="118.33" width="29.58" height="29.58" fill="#0e8388"/><polygon points="266.25,118.33 266.25,147.91 236.67,147.91" fill="#2C3333"/><rect x="266.25" y="118.33" width="29.58" height="29.58" fill="#0e8388"/><polygon points="266.25,118.33 295.83,118.33 266.25,147.91" fill="#2E4F4F"/><rect x="236.67" y="147.92" width="29.58" height="29.58" fill="#0e8388"/><polygon points="236.67,147.92 266.25,147.92 236.67,177.5" fill="#2C3333"/><rect x="266.25" y="147.92" width="29.58" height="29.58" fill="#2E4F4F"/><polygon points="295.83,147.92 295.83,177.5 266.25,177.5" fill="#2C3333"/><rect x="295.8333333333333" y="118.33333333333333" width="59.166666666666664" height="59.166666666666664" fill="#ffffff"/><rect x="295.83" y="118.33" width="29.58" height="29.58" fill="#0e8388"/><polygon points="325.40999999999997,118.33 325.40999999999997,147.91 295.83,147.91" fill="#2C3333"/><rect x="325.42" y="118.33" width="29.58" height="29.58" fill="#0e8388"/><polygon points="325.42,118.33 355,147.91 325.42,147.91" fill="#2E4F4F"/><rect x="295.83" y="147.92" width="29.58" height="29.58" fill="#2E4F4F"/><polygon points="295.83,147.92 325.40999999999997,177.5 295.83,177.5" fill="#2E4F4F"/><rect x="325.42" y="147.92" width="29.58" height="29.58" fill="#0e8388"/><polygon points="325.42,147.92 355,147.92 355,177.5" fill="#2C3333"/><rect x="355" y="118.33333333333333" width="59.166666666666664" height="59.166666666666664" fill="#ffffff"/><rect x="355" y="118.33" width="29.58" height="29.58" fill="#2E4F4F"/><polygon points="355,118.33 384.58,118.33 355,147.91" fill="#2E4F4F"/><rect x="384.58" y="118.33" width="29.58" height="29.58" fill="#2E4F4F"/><polygon points="414.15999999999997,118.33 414.15999999999997,147.91 384.58,147.91" fill="#0e8388"/><rect x="355" y="147.92" width="29.58" height="29.58" fill="#2E4F4F"/><polygon points="355,147.92 384.58,177.5 355,177.5" fill="#0e8388"/><rect x="384.58" y="147.92" width="29.58" height="29.58" fill="#0e8388"/><polygon points="384.58,147.92 414.15999999999997,147.92 384.58,177.5" fill="#2E4F4F"/><rect x="414.16666666666663" y="118.33333333333333" width="59.166666666666664" height="59.166666666666664" fill="#ffffff"/><rect x="414.17" y="118.33" width="29.58" height="29.58" fill="#0e8388"/><polygon points="414.17,118.33 443.75,147.91 414.17,147.91" fill="#2E4F4F"/><rect x="443.75" y="118.33" width="29.58" height="29.58" fill="#2E4F4F"/><polygon points="443.75,118.33 473.33,118.33 443.75,147.91" fill="#2E4F4F"/><rect x="414.17" y="147.92" width="29.58" height="29.58" fill="#0e8388"/><polygon points="443.75,147.92 443.75,177.5 414.17,177.5" fill="#2C3333"/><rect x="443.75" y="147.92" width="29.58" height="29.58" fill="#2E4F4F"/><polygon points="443.75,147.92 473.33,177.5 443.75,177.5" fill="#0e8388"/><rect x="473.33" y="118.33" width="59.17" height="59.17" fill="#0e8388"/><polygon points="473.33,118.33 532.5,118.33 473.33,177.5" fill="#2E4F4F"/><rect x="532.5" y="118.33333333333333" width="59.166666666666664" height="59.166666666666664" fill="#ffffff"/><rect x="532.5" y="118.33" width="29.58" height="29.58" fill="#2E4F4F"/><polygon points="562.08,118.33 562.08,147.91 532.5,147.91" fill="#2E4F4F"/><rect x="562.08" y="118.33" width="29.58" height="29.58" fill="#2C3333"/><polygon points="562.08,118.33 591.6600000000001,118.33 562.08,147.91" fill="#2C3333"/><rect x="532.5" y="147.92" width="29.58" height="29.58" fill="#0e8388"/><polygon points="562.08,147.92 562.08,177.5 532.5,177.5" fill="#2C3333"/><rect x="562.08" y="147.92" width="29.58" height="29.58" fill="#0e8388"/><polygon points="562.08,147.92 591.6600000000001,177.5 562.08,177.5" fill="#2C3333"/><rect x="591.67" y="118.33" width="59.17" height="59.17" fill="#2E4F4F"/><polygon points="591.67,118.33 650.8399999999999,118.33 591.67,177.5" fill="#2E4F4F"/><rect x="0" y="177.5" width="59.166666666666664" height="59.166666666666664" fill="#ffffff"/><rect x="0" y="177.5" width="29.58" height="29.58" fill="#0e8388"/><polygon points="0,177.5 29.58,177.5 0,207.07999999999998" fill="#2C3333"/><rect x="29.58" y="177.5" width="29.58" height="29.58" fill="#2E4F4F"/><polygon points="29.58,177.5 59.16,207.07999999999998 29.58,207.07999999999998" fill="#2E4F4F"/><rect x="0" y="207.08" width="29.58" height="29.58" fill="#2C3333"/><polygon points="0,207.08 29.58,236.66000000000003 0,236.66000000000003" fill="#0e8388"/><rect x="29.58" y="207.08" width="29.58" height="29.58" fill="#2E4F4F"/><polygon points="29.58,207.08 59.16,207.08 59.16,236.66000000000003" fill="#2C3333"/><rect x="59.166666666666664" y="177.5" width="59.166666666666664" height="59.166666666666664" fill="#ffffff"/><rect x="59.17" y="177.5" width="29.58" height="29.58" fill="#0e8388"/><polygon points="59.17,177.5 88.75,177.5 59.17,207.07999999999998" fill="#2E4F4F"/><rect x="88.75" y="177.5" width="29.58" height="29.58" fill="#2E4F4F"/><polygon points="118.33,177.5 118.33,207.07999999999998 88.75,207.07999999999998" fill="#0e8388"/><rect x="59.17" y="207.08" width="29.58" height="29.58" fill="#2C3333"/><polygon points="88.75,207.08 88.75,236.66000000000003 59.17,236.66000000000003" fill="#2E4F4F"/><rect x="88.75" y="207.08" width="29.58" height="29.58" fill="#2C3333"/><polygon points="88.75,207.08 118.33,207.08 118.33,236.66000000000003" fill="#0e8388"/><rect x="118.33" y="177.5" width="59.17" height="59.17" fill="#2C3333"/><polygon points="118.33,177.5 177.5,177.5 177.5,236.67000000000002" fill="#2E4F4F"/><rect x="177.5" y="177.5" width="59.17" height="59.17" fill="#0e8388"/><polygon points="236.67000000000002,177.5 236.67000000000002,236.67000000000002 177.5,236.67000000000002" fill="#0e8388"/><rect x="236.67" y="177.5" width="59.17" height="59.17" fill="#2E4F4F"/><polygon points="236.67,177.5 295.84,177.5 236.67,236.67000000000002" fill="#2C3333"/><rect x="295.8333333333333" y="177.5" width="59.166666666666664" height="59.166666666666664" fill="#ffffff"/><rect x="295.83" y="177.5" width="29.58" height="29.58" fill="#2C3333"/><polygon points="295.83,177.5 325.40999999999997,177.5 295.83,207.07999999999998" fill="#2C3333"/><rect x="325.42" y="177.5" width="29.58" height="29.58" fill="#0e8388"/><polygon points="325.42,177.5 355,177.5 325.42,207.07999999999998" fill="#2C3333"/><rect x="295.83" y="207.08" width="29.58" height="29.58" fill="#2C3333"/><polygon points="295.83,207.08 325.40999999999997,207.08 325.40999999999997,236.66000000000003" fill="#0e8388"/><rect x="325.42" y="207.08" width="29.58" height="29.58" fill="#2C3333"/><polygon points="325.42,207.08 355,207.08 355,236.66000000000003" fill="#2E4F4F"/><rect x="355" y="177.5" width="59.166666666666664" height="59.166666666666664" fill="#ffffff"/><rect x="355" y="177.5" width="29.58" height="29.58" fill="#0e8388"/><polygon points="355,177.5 384.58,177.5 384.58,207.07999999999998" fill="#2C3333"/><rect x="384.58" y="177.5" width="29.58" height="29.58" fill="#0e8388"/><polygon points="384.58,177.5 414.15999999999997,177.5 384.58,207.07999999999998" fill="#0e8388"/><rect x="355" y="207.08" width="29.58" height="29.58" fill="#0e8388"/><polygon points="355,207.08 384.58,207.08 355,236.66000000000003" fill="#2C3333"/><rect x="384.58" y="207.08" width="29.58" height="29.58" fill="#2E4F4F"/><polygon points="384.58,207.08 414.15999999999997,207.08 384.58,236.66000000000003" fill="#0e8388"/><rect x="414.17" y="177.5" width="59.17" height="59.17" fill="#2E4F4F"/><polygon points="414.17,177.5 473.34000000000003,177.5 473.34000000000003,236.67000000000002" fill="#0e8388"/><rect x="473.3333333333333" y="177.5" width="59.166666666666664" height="59.166666666666664" fill="#ffffff"/><rect x="473.33" y="177.5" width="29.58" height="29.58" fill="#2E4F4F"/><polygon points="473.33,177.5 502.90999999999997,207.07999999999998 473.33,207.07999999999998" fill="#2E4F4F"/><rect x="502.92" y="177.5" width="29.58" height="29.58" fill="#2E4F4F"/><polygon points="502.92,177.5 532.5,177.5 502.92,207.07999999999998" fill="#2C3333"/><rect x="473.33" y="207.08" width="29.58" height="29.58" fill="#0e8388"/><polygon points="473.33,207.08 502.90999999999997,207.08 473.33,236.66000000000003" fill="#0e8388"/><rect x="502.92" y="207.08" width="29.58" height="29.58" fill="#2C3333"/><polygon points="502.92,207.08 532.5,236.66000000000003 502.92,236.66000000000003" fill="#0e8388"/><rect x="532.5" y="177.5" width="59.17" height="59.17" fill="#0e8388"/><polygon points="532.5,177.5 591.67,177.5 591.67,236.67000000000002" fill="#2C3333"/><rect x="591.67" y="177.5" width="59.17" height="59.17" fill="#2E4F4F"/><polygon points="591.67,177.5 650.8399999999999,177.5 650.8399999999999,236.67000000000002" fill="#2C3333"/><rect x="0" y="236.67" width="59.17" height="59.17" fill="#0e8388"/><polygon points="0,236.67 59.17,295.84 0,295.84" fill="#2E4F4F"/><rect x="59.17" y="236.67" width="59.17" height="59.17" fill="#0e8388"/><polygon points="59.17,236.67 118.34,295.84 59.17,295.84" fill="#2C3333"/><rect x="118.33" y="236.67" width="59.17" height="59.17" fill="#2E4F4F"/><polygon points="118.33,236.67 177.5,295.84 118.33,295.84" fill="#2E4F4F"/><rect x="177.5" y="236.66666666666666" width="59.166666666666664" height="59.166666666666664" fill="#ffffff"/><rect x="177.5" y="236.67" width="29.58" height="29.58" fill="#0e8388"/><polygon points="177.5,236.67 207.07999999999998,236.67 177.5,266.25" fill="#2C3333"/><rect x="207.08" y="236.67" width="29.58" height="29.58" fill="#0e8388"/><polygon points="207.08,236.67 236.66000000000003,266.25 207.08,266.25" fill="#0e8388"/><rect x="177.5" y="266.25" width="29.58" height="29.58" fill="#2E4F4F"/><polygon points="177.5,266.25 207.07999999999998,266.25 177.5,295.83" fill="#2E4F4F"/><rect x="207.08" y="266.25" width="29.58" height="29.58" fill="#0e8388"/><polygon points="207.08,266.25 236.66000000000003,295.83 207.08,295.83" fill="#0e8388"/><rect x="236.67" y="236.67" width="59.17" height="59.17" fill="#2C3333"/><polygon points="236.67,236.67 295.84,236.67 295.84,295.84" fill="#2C3333"/><rect x="295.83" y="236.67" width="59.17" height="59.17" fill="#0e8388"/><polygon points="355,236.67 355,295.84 295.83,295.84" fill="#0e8388"/><rect x="355" y="236.66666666666666" width="59.166666666666664" height="59.166666666666664" fill="#ffffff"/><rect x="355" y="236.67" width="29.58" height="29.58" fill="#0e8388"/><polygon points="355,236.67 384.58,236.67 355,266.25" fill="#2C3333"/><rect x="384.58" y="236.67" width="29.58" height="29.58" fill="#0e8388"/><polygon points="414.15999999999997,236.67 414.15999999999997,266.25 384.58,266.25" fill="#0e8388"/><rect x="355" y="266.25" width="29.58" height="29.58" fill="#0e8388"/><polygon points="384.58,266.25 384.58,295.83 355,295.83" fill="#2C3333"/><rect x="384.58" y="266.25" width="29.58" height="29.58" fill="#2E4F4F"/><polygon points="414.15999999999997,266.25 414.15999999999997,295.83 384.58,295.83" fill="#0e8388"/><rect x="414.17" y="236.67" width="59.17" height="59.17" fill="#2E4F4F"/><polygon points="414.17,236.67 473.34000000000003,236.67 414.17,295.84" fill="#0e8388"/><rect x="473.3333333333333" y="236.66666666666666" width="59.166666666666664" height="59.166666666666664" fill="#ffffff"/><rect x="473.33" y="236.67" width="29.58" height="29.58" fill="#2C3333"/><polygon points="473.33,236.67 502.90999999999997,236.67 502.90999999999997,266.25" fill="#2E4F4F"/><rect x="502.92" y="236.67" width="29.58" height="29.58" fill="#0e8388"/><polygon points="532.5,236.67 532.5,266.25 502.92,266.25" fill="#2C3333"/><rect x="473.33" y="266.25" width="29.58" height="29.58" fill="#2E4F4F"/><polygon points="473.33,266.25 502.90999999999997,266.25 473.33,295.83" fill="#0e8388"/><rect x="502.92" y="266.25" width="29.58" height="29.58" fill="#2C3333"/><polygon points="532.5,266.25 532.5,295.83 502.92,295.83" fill="#0e8388"/><rect x="532.5" y="236.66666666666666" width="59.166666666666664" height="59.166666666666664" fill="#ffffff"/><rect x="532.5" y="236.67" width="29.58" height="29.58" fill="#0e8388"/><polygon points="562.08,236.67 562.08,266.25 532.5,266.25" fill="#2E4F4F"/><rect x="562.08" y="236.67" width="29.58" height="29.58" fill="#2C3333"/><polygon points="562.08,236.67 591.6600000000001,236.67 591.6600000000001,266.25" fill="#2C3333"/><rect x="532.5" y="266.25" width="29.58" height="29.58" fill="#2E4F4F"/><polygon points="532.5,266.25 562.08,266.25 562.08,295.83" fill="#0e8388"/><rect x="562.08" y="266.25" width="29.58" height="29.58" fill="#2E4F4F"/><polygon points="591.6600000000001,266.25 591.6600000000001,295.83 562.08,295.83" fill="#2C3333"/><rect x="591.6666666666666" y="236.66666666666666" width="59.166666666666664" height="59.166666666666664" fill="#ffffff"/><rect x="591.67" y="236.67" width="29.58" height="29.58" fill="#0e8388"/><polygon points="591.67,236.67 621.25,236.67 621.25,266.25" fill="#2C3333"/><rect x="621.25" y="236.67" width="29.58" height="29.58" fill="#0e8388"/><polygon points="621.25,236.67 650.83,266.25 621.25,266.25" fill="#2E4F4F"/><rect x="591.67" y="266.25" width="29.58" height="29.58" fill="#2E4F4F"/><polygon points="591.67,266.25 621.25,266.25 591.67,295.83" fill="#2E4F4F"/><rect x="621.25" y="266.25" width="29.58" height="29.58" fill="#2C3333"/><polygon points="621.25,266.25 650.83,266.25 621.25,295.83" fill="#2E4F4F"/><rect x="0" y="295.8333333333333" width="59.166666666666664" height="59.166666666666664" fill="#ffffff"/><rect x="0" y="295.83" width="29.58" height="29.58" fill="#2C3333"/><polygon points="29.58,295.83 29.58,325.40999999999997 0,325.40999999999997" fill="#2C3333"/><rect x="29.58" y="295.83" width="29.58" height="29.58" fill="#0e8388"/><polygon points="29.58,295.83 59.16,295.83 29.58,325.40999999999997" fill="#0e8388"/><rect x="0" y="325.42" width="29.58" height="29.58" fill="#0e8388"/><polygon points="0,325.42 29.58,355 0,355" fill="#0e8388"/><rect x="29.58" y="325.42" width="29.58" height="29.58" fill="#2C3333"/><polygon points="29.58,325.42 59.16,325.42 59.16,355" fill="#2E4F4F"/><rect x="59.166666666666664" y="295.8333333333333" width="59.166666666666664" height="59.166666666666664" fill="#ffffff"/><rect x="59.17" y="295.83" width="29.58" height="29.58" fill="#0e8388"/><polygon points="59.17,295.83 88.75,295.83 88.75,325.40999999999997" fill="#0e8388"/><rect x="88.75" y="295.83" width="29.58" height="29.58" fill="#0e8388"/><polygon points="88.75,295.83 118.33,295.83 118.33,325.40999999999997" fill="#2C3333"/><rect x="59.17" y="325.42" width="29.58" height="29.58" fill="#2C3333"/><polygon points="59.17,325.42 88.75,325.42 88.75,355" fill="#0e8388"/><rect x="88.75" y="325.42" width="29.58" height="29.58" fill="#2C3333"/><polygon points="88.75,325.42 118.33,325.42 88.75,355" fill="#0e8388"/><rect x="118.33333333333333" y="295.8333333333333" width="59.166666666666664" height="59.166666666666664" fill="#ffffff"/><rect x="118.33" y="295.83" width="29.58" height="29.58" fill="#2E4F4F"/><polygon points="118.33,295.83 147.91,295.83 118.33,325.40999999999997" fill="#0e8388"/><rect x="147.92" y="295.83" width="29.58" height="29.58" fill="#2E4F4F"/><polygon points="147.92,295.83 177.5,325.40999999999997 147.92,325.40999999999997" fill="#2C3333"/><rect x="118.33" y="325.42" width="29.58" height="29.58" fill="#0e8388"/><polygon points="147.91,325.42 147.91,355 118.33,355" fill="#2C3333"/><rect x="147.92" y="325.42" width="29.58" height="29.58" fill="#2C3333"/><polygon points="147.92,325.42 177.5,325.42 147.92,355" fill="#0e8388"/><rect x="177.5" y="295.8333333333333" width="59.166666666666664" height="59.166666666666664" fill="#ffffff"/><rect x="177.5" y="295.83" width="29.58" height="29.58" fill="#0e8388"/><polygon points="207.07999999999998,295.83 207.07999999999998,325.40999999999997 177.5,325.40999999999997" fill="#0e8388"/><rect x="207.08" y="295.83" width="29.58" height="29.58" fill="#0e8388"/><polygon points="207.08,295.83 236.66000000000003,295.83 236.66000000000003,325.40999999999997" fill="#2E4F4F"/><rect x="177.5" y="325.42" width="29.58" height="29.58" fill="#2E4F4F"/><polygon points="177.5,325.42 207.07999999999998,325.42 177.5,355" fill="#2E4F4F"/><rect x="207.08" y="325.42" width="29.58" height="29.58" fill="#2E4F4F"/><polygon points="207.08,325.42 236.66000000000003,325.42 207.08,355" fill="#2C3333"/><rect x="236.66666666666666" y="295.8333333333333" width="59.166666666666664" height="59.166666666666664" fill="#ffffff"/><rect x="236.67" y="295.83" width="29.58" height="29.58" fill="#0e8388"/><polygon points="266.25,295.83 266.25,325.40999999999997 236.67,325.40999999999997" fill="#2C3333"/><rect x="266.25" y="295.83" width="29.58" height="29.58" fill="#0e8388"/><polygon points="295.83,295.83 295.83,325.40999999999997 266.25,325.40999999999997" fill="#0e8388"/><rect x="236.67" y="325.42" width="29.58" height="29.58" fill="#0e8388"/><polygon points="236.67,325.42 266.25,325.42 266.25,355" fill="#0e8388"/><rect x="266.25" y="325.42" width="29.58" height="29.58" fill="#2E4F4F"/><polygon points="295.83,325.42 295.83,355 266.25,355" fill="#2C3333"/><rect x="295.8333333333333" y="295.8333333333333" width="59.166666666666664" height="59.166666666666664" fill="#ffffff"/><rect x="295.83" y="295.83" width="29.58" height="29.58" fill="#2C3333"/><polygon points="295.83,295.83 325.40999999999997,295.83 295.83,325.40999999999997" fill="#0e8388"/><rect x="325.42" y="295.83" width="29.58" height="29.58" fill="#2C3333"/><polygon points="325.42,295.83 355,295.83 355,325.40999999999997" fill="#2E4F4F"/><rect x="295.83" y="325.42" width="29.58" height="29.58" fill="#0e8388"/><polygon points="295.83,325.42 325.40999999999997,325.42 295.83,355" fill="#2E4F4F"/><rect x="325.42" y="325.42" width="29.58" height="29.58" fill="#0e8388"/><polygon points="325.42,325.42 355,325.42 355,355" fill="#0e8388"/><rect x="355" y="295.83" width="59.17" height="59.17" fill="#0e8388"/><polygon points="355,295.83 414.17,295.83 414.17,355" fill="#2E4F4F"/><rect x="414.17" y="295.83" width="59.17" height="59.17" fill="#2E4F4F"/><polygon points="414.17,295.83 473.34000000000003,355 414.17,355" fill="#2E4F4F"/><rect x="473.33" y="295.83" width="59.17" height="59.17" fill="#0e8388"/><polygon points="532.5,295.83 532.5,355 473.33,355" fill="#2E4F4F"/><rect x="532.5" y="295.83" width="59.17" height="59.17" fill="#2E4F4F"/><polygon points="532.5,295.83 591.67,295.83 532.5,355" fill="#2C3333"/><rect x="591.67" y="295.83" width="59.17" height="59.17" fill="#0e8388"/><polygon points="650.8399999999999,295.83 650.8399999999999,355 591.67,355" fill="#2C3333"/></g></svg>