<?xml version="1.0" standalone="no"?><svg xmlns:xlink="http://www.w3.org/1999/xlink" xmlns="http://www.w3.org/2000/svg" viewBox="0 0 1000 545.4590152851445" preserveAspectRatio="xMaxYMax slice"><g transform="scale(1.5365042684088577)"><rect x="0" y="0" width="650.8333333333333" height="355" fill="#2E4F4F"/><rect x="0" y="0" width="59.166666666666664" height="59.166666666666664" fill="#2E4F4F"/><rect x="0" y="0" width="29.58" height="29.58" fill="#2C3333"/><polygon points="29.58,0 29.58,29.58 0,29.58" fill="#2E4F4F"/><rect x="29.58" y="0" width="29.58" height="29.58" fill="#2E4F4F"/><polygon points="29.58,0 59.16,29.58 29.58,29.58" fill="#2C3333"/><rect x="0" y="29.58" width="29.58" height="29.58" fill="#2E4F4F"/><polygon points="0,29.58 29.58,29.58 0,59.16" fill="#2C3333"/><rect x="29.58" y="29.58" width="29.58" height="29.58" fill="#2C3333"/><polygon points="29.58,29.58 59.16,29.58 59.16,59.16" fill="#2C3333"/><rect x="59.166666666666664" y="0" width="59.166666666666664" height="59.166666666666664" fill="#2E4F4F"/><rect x="59.17" y="0" width="29.58" height="29.58" fill="#2C3333"/><path d="M 59.17 0 A 29.58 29.58 0 0 0 88.75 29.58 L 88.75 0" fill="#2E4F4F"/><rect x="88.75" y="0" width="29.58" height="29.58" fill="#2C3333"/><path d="M 88.75 29.58 A 29.58 29.58 0 0 0 118.33 0 L 88.75 0" fill="#2C3333"/><rect x="59.17" y="29.58" width="29.58" height="29.58" fill="#2E4F4F"/><path d="M 59.17 59.16 A 29.58 29.58 0 0 1  88.75 29.58 L 88.75 59.16" fill="#2C3333"/><rect x="88.75" y="29.58" width="29.58" height="29.58" fill="#2E4F4F"/><path d="M 88.75 29.58 A 29.58 29.58 0 0 1 118.33 59.16 L 88.75 59.16" fill="#2C3333"/><rect x="118.33333333333333" y="0" width="59.166666666666664" height="59.166666666666664" fill="#2E4F4F"/><rect x="118.33" y="0" width="29.58" height="29.58" fill="#2C3333"/><path d="M 118.33 0 A 29.58 29.58 0 0 1 147.91 29.58 L 118.33 29.58" fill="#2C3333"/><rect x="147.92" y="0" width="29.58" height="29.58" fill="#2E4F4F"/><path d="M 147.92 29.58 A 29.58 29.58 0 0 1  177.5 0 L 177.5 29.58" fill="#2E4F4F"/><rect x="118.33" y="29.58" width="29.58" height="29.58" fill="#2C3333"/><path d="M 118.33 59.16 A 29.58 29.58 0 0 0 147.91 29.58 L 118.33 29.58" fill="#2C3333"/><rect x="147.92" y="29.58" width="29.58" height="29.58" fill="#2C3333"/><path d="M 147.92 29.58 A 29.58 29.58 0 0 0 177.5 59.16 L 177.5 29.58" fill="#2E4F4F"/><rect x="177.5" y="0" width="59.166666666666664" height="59.166666666666664" fill="#2E4F4F"/><rect x="177.5" y="0" width="29.58" height="29.58" fill="#2E4F4F"/><polygon points="207.07999999999998,0 207.07999999999998,29.58 177.5,29.58" fill="#2E4F4F"/><rect x="207.08" y="0" width="29.58" height="29.58" fill="#2E4F4F"/><polygon points="207.08,0 236.66000000000003,0 207.08,29.58" fill="#2C3333"/><rect x="177.5" y="29.58" width="29.58" height="29.58" fill="#2C3333"/><polygon points="177.5,29.58 207.07999999999998,29.58 207.07999999999998,59.16" fill="#2C3333"/><rect x="207.08" y="29.58" width="29.58" height="29.58" fill="#2C3333"/><polygon points="207.08,29.58 236.66000000000003,59.16 207.08,59.16" fill="#2E4F4F"/><rect x="236.67" y="0" width="59.17" height="59.17" fill="#2E4F4F"/><path d="M 236.67 59.17 A 59.17 59.17 0 0 1  295.84 0 L 295.84 59.17" fill="#2E4F4F"/><rect x="295.83" y="0" width="59.17" height="59.17" fill="#2E4F4F"/><path d="M 295.83 59.17 A 59.17 59.17 0 0 1  355 0 L 355 59.17" fill="#2C3333"/><rect x="355" y="0" width="59.166666666666664" height="59.166666666666664" fill="#2E4F4F"/><rect x="355" y="0" width="29.58" height="29.58" fill="#2E4F4F"/><path d="M 355 29.58 A 29.58 29.58 0 0 0 384.58 0 L 355 0" fill="#2E4F4F"/><rect x="384.58" y="0" width="29.58" height="29.58" fill="#2C3333"/><path d="M 384.58 0 A 29.58 29.58 0 0 0 414.15999999999997 29.58 L 414.15999999999997 0" fill="#2C3333"/><rect x="355" y="29.58" width="29.58" height="29.58" fill="#2C3333"/><path d="M 355 29.58 A 29.58 29.58 0 0 1 384.58 59.16 L 355 59.16" fill="#2C3333"/><rect x="384.58" y="29.58" width="29.58" height="29.58" fill="#2E4F4F"/><path d="M 384.58 59.16 A 29.58 29.58 0 0 1  414.15999999999997 29.58 L 414.15999999999997 59.16" fill="#2C3333"/><rect x="414.17" y="0" width="59.17" height="59.17" fill="#2C3333"/><polygon points="414.17,0 473.34000000000003,59.17 414.17,59.17" fill="#2E4F4F"/><rect x="473.3333333333333" y="0" width="59.166666666666664" height="59.166666666666664" fill="#2E4F4F"/><rect x="473.33" y="0" width="29.58" height="29.58" fill="#2E4F4F"/><polygon points="502.90999999999997,0 502.90999999999997,29.58 473.33,29.58" fill="#2E4F4F"/><rect x="502.92" y="0" width="29.58" height="29.58" fill="#2C3333"/><polygon points="502.92,0 532.5,29.58 502.92,29.58" fill="#2E4F4F"/><rect x="473.33" y="29.58" width="29.58" height="29.58" fill="#2C3333"/><polygon points="473.33,29.58 502.90999999999997,29.58 502.90999999999997,59.16" fill="#2E4F4F"/><rect x="502.92" y="29.58" width="29.58" height="29.58" fill="#2C3333"/><polygon points="502.92,29.58 532.5,29.58 502.92,59.16" fill="#2C3333"/><rect x="532.5" y="0" width="59.17" height="59.17" fill="#2E4F4F"/><polygon points="532.5,0 591.67,0 591.67,59.17" fill="#2C3333"/><rect x="591.67" y="0" width="59.17" height="59.17" fill="#2E4F4F"/><rect x="591.67" y="0" width="59.17" height="59.17" fill="#2C3333"/><rect x="0" y="59.17" width="59.17" height="59.17" fill="#2C3333"/><polygon points="59.17,59.17 59.17,118.34 0,118.34" fill="#2E4F4F"/><rect x="59.17" y="59.17" width="59.17" height="59.17" fill="#2C3333"/><rect x="59.17" y="59.17" width="59.17" height="59.17" fill="#2E4F4F"/><rect x="118.33333333333333" y="59.166666666666664" width="59.166666666666664" height="59.166666666666664" fill="#2E4F4F"/><rect x="118.33" y="59.17" width="29.58" height="29.58" fill="#2C3333"/><circle cx="133.12" cy="73.96000000000001" r="14.79" fill="#2E4F4F"/><rect x="147.92" y="59.17" width="29.58" height="29.58" fill="#2C3333"/><rect x="147.92" y="59.17" width="29.58" height="29.58" fill="#2C3333"/><rect x="118.33" y="88.75" width="29.58" height="29.58" fill="#2C3333"/><circle cx="133.12" cy="103.53999999999999" r="14.79" fill="#2E4F4F"/><rect x="147.92" y="88.75" width="29.58" height="29.58" fill="#2E4F4F"/><rect x="147.92" y="88.75" width="29.58" height="29.58" fill="#2E4F4F"/><rect x="177.5" y="59.17" width="59.17" height="59.17" fill="#2E4F4F"/><path d="M 177.5 59.17 A 59.17 59.17 0 0 1 236.67000000000002 118.34 L 177.5 118.34" fill="#2C3333"/><rect x="236.67" y="59.17" width="59.17" height="59.17" fill="#2E4F4F"/><polygon points="295.84,59.17 295.84,118.34 236.67,118.34" fill="#2C3333"/><rect x="295.8333333333333" y="59.166666666666664" width="59.166666666666664" height="59.166666666666664" fill="#2E4F4F"/><rect x="295.83" y="59.17" width="29.58" height="29.58" fill="#2E4F4F"/><circle cx="310.62" cy="73.96000000000001" r="14.79" fill="#2E4F4F"/><rect x="325.42" y="59.17" width="29.58" height="29.58" fill="#2E4F4F"/><rect x="325.42" y="59.17" width="29.58" height="29.58" fill="#2E4F4F"/><rect x="295.83" y="88.75" width="29.58" height="29.58" fill="#2E4F4F"/><circle cx="310.62" cy="103.53999999999999" r="14.79" fill="#2E4F4F"/><rect x="325.42" y="88.75" width="29.58" height="29.58" fill="#2E4F4F"/><rect x="325.42" y="88.75" width="29.58" height="29.58" fill="#2E4F4F"/><rect x="355" y="59.17" width="59.17" height="59.17" fill="#2C3333"/><polygon points="355,59.17 414.17,59.17 414.17,118.34" fill="#2E4F4F"/><rect x="414.17" y="59.17" width="59.17" height="59.17" fill="#2E4F4F"/><path d="M 414.17 118.34 A 59.17 59.17 0 0 0 473.34000000000003 59.17 L 414.17 59.17" fill="#2E4F4F"/><rect x="473.3333333333333" y="59.166666666666664" width="59.166666666666664" height="59.166666666666664" fill="#2E4F4F"/><rect x="473.33" y="59.17" width="29.58" height="29.58" fill="#2C3333"/><path d="M 473.33 59.17 A 29.58 29.58 0 0 1 502.90999999999997 88.75 L 473.33 88.75" fill="#2C3333"/><rect x="502.92" y="59.17" width="29.58" height="29.58" fill="#2C3333"/><path d="M 502.92 88.75 A 29.58 29.58 0 0 1  532.5 59.17 L 532.5 88.75" fill="#2E4F4F"/><rect x="473.33" y="88.75" width="29.58" height="29.58" fill="#2E4F4F"/><path d="M 473.33 118.33 A 29.58 29.58 0 0 0 502.90999999999997 88.75 L 473.33 88.75" fill="#2E4F4F"/><rect x="502.92" y="88.75" width="29.58" height="29.58" fill="#2E4F4F"/><path d="M 502.92 88.75 A 29.58 29.58 0 0 0 532.5 118.33 L 532.5 88.75" fill="#2C3333"/><rect x="532.5" y="59.166666666666664" width="59.166666666666664" height="59.166666666666664" fill="#2E4F4F"/><rect x="532.5" y="59.17" width="29.58" height="29.58" fill="#2C3333"/><polygon points="562.08,59.17 562.08,88.75 532.5,88.75" fill="#2C3333"/><rect x="562.08" y="59.17" width="29.58" height="29.58" fill="#2C3333"/><polygon points="562.08,59.17 591.6600000000001,88.75 562.08,88.75" fill="#2E4F4F"/><rect x="532.5" y="88.75" width="29.58" height="29.58" fill="#2E4F4F"/><polygon points="532.5,88.75 562.08,88.75 532.5,118.33" fill="#2C3333"/><rect x="562.08" y="88.75" width="29.58" height="29.58" fill="#2C3333"/><polygon points="562.08,88.75 591.6600000000001,88.75 591.6600000000001,118.33" fill="#2C3333"/><rect x="591.6666666666666" y="59.166666666666664" width="59.166666666666664" height="59.166666666666664" fill="#2E4F4F"/><rect x="591.67" y="59.17" width="29.58" height="29.58" fill="#2C3333"/><circle cx="606.4599999999999" cy="73.96000000000001" r="14.79" fill="#2C3333"/><rect x="621.25" y="59.17" width="29.58" height="29.58" fill="#2E4F4F"/><rect x="621.25" y="59.17" width="29.58" height="29.58" fill="#2C3333"/><rect x="591.67" y="88.75" width="29.58" height="29.58" fill="#2C3333"/><circle cx="606.4599999999999" cy="103.53999999999999" r="14.79" fill="#2C3333"/><rect x="621.25" y="88.75" width="29.58" height="29.58" fill="#2C3333"/><rect x="621.25" y="88.75" width="29.58" height="29.58" fill="#2C3333"/><rect x="0" y="118.33" width="59.17" height="59.17" fill="#2C3333"/><path d="M 0 177.5 A 59.17 59.17 0 0 0 59.17 118.33 L 0 118.33" fill="#2E4F4F"/><rect x="59.17" y="118.33" width="59.17" height="59.17" fill="#2C3333"/><path d="M 59.17 177.5 A 59.17 59.17 0 0 1  118.34 118.33 L 118.34 177.5" fill="#2C3333"/><rect x="118.33333333333333" y="118.33333333333333" width="59.166666666666664" height="59.166666666666664" fill="#2E4F4F"/><rect x="118.33" y="118.33" width="29.58" height="29.58" fill="#2E4F4F"/><path d="M 118.33 147.91 A 29.58 29.58 0 0 1  147.91 118.33 L 147.91 147.91" fill="#2C3333"/><rect x="147.92" y="118.33" width="29.58" height="29.58" fill="#2C3333"/><path d="M 147.92 118.33 A 29.58 29.58 0 0 1 177.5 147.91 L 147.92 147.91" fill="#2E4F4F"/><rect x="118.33" y="147.92" width="29.58" height="29.58" fill="#2C3333"/><path d="M 118.33 147.92 A 29.58 29.58 0 0 0 147.91 177.5 L 147.91 147.92" fill="#2E4F4F"/><rect x="147.92" y="147.92" width="29.58" height="29.58" fill="#2E4F4F"/><path d="M 147.92 177.5 A 29.58 29.58 0 0 0 177.5 147.92 L 147.92 147.92" fill="#2E4F4F"/><rect x="177.5" y="118.33" width="59.17" height="59.17" fill="#2E4F4F"/><polygon points="177.5,118.33 236.67000000000002,177.5 177.5,177.5" fill="#2E4F4F"/><rect x="236.67" y="118.33" width="59.17" height="59.17" fill="#2E4F4F"/><rect x="236.67" y="118.33" width="59.17" height="59.17" fill="#2C3333"/><rect x="295.83" y="118.33" width="59.17" height="59.17" fill="#2C3333"/><path d="M 295.83 118.33 A 59.17 59.17 0 0 1 355 177.5 L 295.83 177.5" fill="#2C3333"/><rect x="355" y="118.33333333333333" width="59.166666666666664" height="59.166666666666664" fill="#2E4F4F"/><rect x="355" y="118.33" width="29.58" height="29.58" fill="#2E4F4F"/><path d="M 355 147.91 A 29.58 29.58 0 0 1  384.58 118.33 L 384.58 147.91" fill="#2C3333"/><rect x="384.58" y="118.33" width="29.58" height="29.58" fill="#2E4F4F"/><path d="M 384.58 118.33 A 29.58 29.58 0 0 1 414.15999999999997 147.91 L 384.58 147.91" fill="#2E4F4F"/><rect x="355" y="147.92" width="29.58" height="29.58" fill="#2C3333"/><path d="M 355 147.92 A 29.58 29.58 0 0 0 384.58 177.5 L 384.58 147.92" fill="#2C3333"/><rect x="384.58" y="147.92" width="29.58" height="29.58" fill="#2E4F4F"/><path d="M 384.58 177.5 A 29.58 29.58 0 0 0 414.15999999999997 147.92 L 384.58 147.92" fill="#2E4F4F"/><rect x="414.16666666666663" y="118.33333333333333" width="59.166666666666664" height="59.166666666666664" fill="#2E4F4F"/><rect x="414.17" y="118.33" width="29.58" height="29.58" fill="#2E4F4F"/><path d="M 414.17 147.91 A 29.58 29.58 0 0 1 443.75 118.33 L 443.75 125.725 A 22.185 22.185 0 0 0 421.565 147.91" fill="#2E4F4F"/><rect x="443.75" y="118.33" width="29.58" height="29.58" fill="#2C3333"/><path d="M 443.75 118.33 A 29.58 29.58 0 0 1 473.33 147.91 L 465.935 147.91 A 22.185 22.185 0 0 0 443.75 125.725" fill="#2C3333"/><rect x="414.17" y="147.92" width="29.58" height="29.58" fill="#2E4F4F"/><path d="M 414.17 147.92 A 29.58 29.58 0 0 0 443.75 177.5 L 443.75 170.105 A 22.185 22.185 0 0 1 421.565 147.92" fill="#2E4F4F"/><rect x="443.75" y="147.92" width="29.58" height="29.58" fill="#2E4F4F"/><path d="M 443.75 177.5 A 29.58 29.58 0 0 0 473.33 147.92 L 465.935 147.92 A 22.185 22.185 0 0 1 443.75 170.105" fill="#2E4F4F"/><rect x="473.33" y="118.33" width="59.17" height="59.17" fill="#2C3333"/><rect x="473.33" y="118.33" width="59.17" height="59.17" fill="#2E4F4F"/><rect x="532.5" y="118.33333333333333" width="59.166666666666664" height="59.166666666666664" fill="#2E4F4F"/><rect x="532.5" y="118.33" width="29.58" height="29.58" fill="#2E4F4F"/><path d="M 532.5 147.91 A 29.58 29.58 0 0 1 562.08 118.33 L 562.08 125.725 A 22.185 22.185 0 0 0 539.895 147.91" fill="#2E4F4F"/><rect x="562.08" y="118.33" width="29.58" height="29.58" fill="#2E4F4F"/><path d="M 562.08 118.33 A 29.58 29.58 0 0 1 591.6600000000001 147.91 L 584.265 147.91 A 22.185 22.185 0 0 0 562.08 125.725" fill="#2E4F4F"/><rect x="532.5" y="147.92" width="29.58" height="29.58" fill="#2C3333"/><path d="M 532.5 147.92 A 29.58 29.58 0 0 0 562.08 177.5 L 562.08 170.105 A 22.185 22.185 0 0 1 539.895 147.92" fill="#2C3333"/><rect x="562.08" y="147.92" width="29.58" height="29.58" fill="#2E4F4F"/><path d="M 562.08 177.5 A 29.58 29.58 0 0 0 591.6600000000001 147.92 L 584.265 147.92 A 22.185 22.185 0 0 1 562.08 170.105" fill="#2C3333"/><rect x="591.6666666666666" y="118.33333333333333" width="59.166666666666664" height="59.166666666666664" fill="#2E4F4F"/><rect x="591.67" y="118.33" width="29.58" height="29.58" fill="#2C3333"/><path d="M 591.67 147.91 A 29.58 29.58 0 0 1  621.25 118.33 L 621.25 147.91" fill="#2E4F4F"/><rect x="621.25" y="118.33" width="29.58" height="29.58" fill="#2E4F4F"/><path d="M 621.25 118.33 A 29.58 29.58 0 0 1 650.83 147.91 L 621.25 147.91" fill="#2C3333"/><rect x="591.67" y="147.92" width="29.58" height="29.58" fill="#2E4F4F"/><path d="M 591.67 147.92 A 29.58 29.58 0 0 0 621.25 177.5 L 621.25 147.92" fill="#2E4F4F"/><rect x="621.25" y="147.92" width="29.58" height="29.58" fill="#2E4F4F"/><path d="M 621.25 177.5 A 29.58 29.58 0 0 0 650.83 147.92 L 621.25 147.92" fill="#2E4F4F"/><rect x="0" y="177.5" width="59.166666666666664" height="59.166666666666664" fill="#2E4F4F"/><rect x="0" y="177.5" width="29.58" height="29.58" fill="#2E4F4F"/><path d="M 0 177.5 A 29.58 29.58 0 0 1 29.58 207.07999999999998 L 0 207.07999999999998" fill="#2C3333"/><rect x="29.58" y="177.5" width="29.58" height="29.58" fill="#2C3333"/><path d="M 29.58 207.07999999999998 A 29.58 29.58 0 0 1  59.16 177.5 L 59.16 207.07999999999998" fill="#2C3333"/><rect x="0" y="207.08" width="29.58" height="29.58" fill="#2E4F4F"/><path d="M 0 236.66000000000003 A 29.58 29.58 0 0 0 29.58 207.08 L 0 207.08" fill="#2E4F4F"/><rect x="29.58" y="207.08" width="29.58" height="29.58" fill="#2E4F4F"/><path d="M 29.58 207.08 A 29.58 29.58 0 0 0 59.16 236.66000000000003 L 59.16 207.08" fill="#2E4F4F"/><rect x="59.166666666666664" y="177.5" width="59.166666666666664" height="59.166666666666664" fill="#2E4F4F"/><rect x="59.17" y="177.5" width="29.58" height="29.58" fill="#2E4F4F"/><polygon points="88.75,177.5 88.75,207.07999999999998 59.17,207.07999999999998" fill="#2E4F4F"/><rect x="88.75" y="177.5" width="29.58" height="29.58" fill="#2C3333"/><polygon points="88.75,177.5 118.33,207.07999999999998 88.75,207.07999999999998" fill="#2C3333"/><rect x="59.17" y="207.08" width="29.58" height="29.58" fill="#2E4F4F"/><polygon points="59.17,207.08 88.75,207.08 88.75,236.66000000000003" fill="#2C3333"/><rect x="88.75" y="207.08" width="29.58" height="29.58" fill="#2E4F4F"/><polygon points="88.75,207.08 118.33,207.08 88.75,236.66000000000003" fill="#2C3333"/><rect x="118.33333333333333" y="177.5" width="59.166666666666664" height="59.166666666666664" fill="#2E4F4F"/><rect x="118.33" y="177.5" width="29.58" height="29.58" fill="#2C3333"/><polygon points="147.91,177.5 147.91,207.07999999999998 118.33,207.07999999999998" fill="#2C3333"/><rect x="147.92" y="177.5" width="29.58" height="29.58" fill="#2C3333"/><polygon points="147.92,177.5 177.5,207.07999999999998 147.92,207.07999999999998" fill="#2E4F4F"/><rect x="118.33" y="207.08" width="29.58" height="29.58" fill="#2E4F4F"/><polygon points="118.33,207.08 147.91,207.08 147.91,236.66000000000003" fill="#2C3333"/><rect x="147.92" y="207.08" width="29.58" height="29.58" fill="#2E4F4F"/><polygon points="147.92,207.08 177.5,207.08 147.92,236.66000000000003" fill="#2C3333"/><rect x="177.5" y="177.5" width="59.166666666666664" height="59.166666666666664" fill="#2E4F4F"/><rect x="177.5" y="177.5" width="29.58" height="29.58" fill="#2C3333"/><path d="M 177.5 177.5 A 29.58 29.58 0 0 0 207.07999999999998 207.07999999999998 L 207.07999999999998 177.5" fill="#2E4F4F"/><rect x="207.08" y="177.5" width="29.58" height="29.58" fill="#2C3333"/><path d="M 207.08 207.07999999999998 A 29.58 29.58 0 0 0 236.66000000000003 177.5 L 207.08 177.5" fill="#2E4F4F"/><rect x="177.5" y="207.08" width="29.58" height="29.58" fill="#2C3333"/><path d="M 177.5 236.66000000000003 A 29.58 29.58 0 0 1  207.07999999999998 207.08 L 207.07999999999998 236.66000000000003" fill="#2C3333"/><rect x="207.08" y="207.08" width="29.58" height="29.58" fill="#2C3333"/><path d="M 207.08 207.08 A 29.58 29.58 0 0 1 236.66000000000003 236.66000000000003 L 207.08 236.66000000000003" fill="#2E4F4F"/><rect x="236.67" y="177.5" width="59.17" height="59.17" fill="#2C3333"/><rect x="236.67" y="177.5" width="59.17" height="59.17" fill="#2E4F4F"/><rect x="295.83" y="177.5" width="59.17" height="59.17" fill="#2E4F4F"/><polygon points="295.83,177.5 355,177.5 355,236.67000000000002" fill="#2C3333"/><rect x="355" y="177.5" width="59.17" height="59.17" fill="#2E4F4F"/><rect x="355" y="177.5" width="59.17" height="59.17" fill="#2E4F4F"/><rect x="414.17" y="177.5" width="59.17" height="59.17" fill="#2E4F4F"/><path d="M 414.17 236.67000000000002 A 59.17 59.17 0 0 1  473.34000000000003 177.5 L 414.17 236.67000000000002 A 59.17 59.17 0 0 0 473.34000000000003 177.5" fill="#2C3333"/><rect x="473.3333333333333" y="177.5" width="59.166666666666664" height="59.166666666666664" fill="#2E4F4F"/><rect x="473.33" y="177.5" width="29.58" height="29.58" fill="#2C3333"/><polygon points="502.90999999999997,177.5 502.90999999999997,207.07999999999998 473.33,207.07999999999998" fill="#2E4F4F"/><rect x="502.92" y="177.5" width="29.58" height="29.58" fill="#2C3333"/><polygon points="502.92,177.5 532.5,177.5 502.92,207.07999999999998" fill="#2C3333"/><rect x="473.33" y="207.08" width="29.58" height="29.58" fill="#2C3333"/><polygon points="473.33,207.08 502.90999999999997,207.08 502.90999999999997,236.66000000000003" fill="#2C3333"/><rect x="502.92" y="207.08" width="29.58" height="29.58" fill="#2E4F4F"/><polygon points="502.92,207.08 532.5,236.66000000000003 502.92,236.66000000000003" fill="#2C3333"/><rect x="532.5" y="177.5" width="59.17" height="59.17" fill="#2C3333"/><path d="M 532.5 236.67000000000002 A 59.17 59.17 0 0 1  591.67 177.5 L 591.67 236.67000000000002" fill="#2E4F4F"/><rect x="591.6666666666666" y="177.5" width="59.166666666666664" height="59.166666666666664" fill="#2E4F4F"/><rect x="591.67" y="177.5" width="29.58" height="29.58" fill="#2C3333"/><path d="M 591.67 207.07999999999998 A 29.58 29.58 0 0 1  621.25 177.5 L 621.25 207.07999999999998" fill="#2C3333"/><rect x="621.25" y="177.5" width="29.58" height="29.58" fill="#2C3333"/><path d="M 621.25 177.5 A 29.58 29.58 0 0 1 650.83 207.07999999999998 L 621.25 207.07999999999998" fill="#2E4F4F"/><rect x="591.67" y="207.08" width="29.58" height="29.58" fill="#2E4F4F"/><path d="M 591.67 207.08 A 29.58 29.58 0 0 0 621.25 236.66000000000003 L 621.25 207.08" fill="#2E4F4F"/><rect x="621.25" y="207.08" width="29.58" height="29.58" fill="#2E4F4F"/><path d="M 621.25 236.66000000000003 A 29.58 29.58 0 0 0 650.83 207.08 L 621.25 207.08" fill="#2E4F4F"/><rect x="0" y="236.67" width="59.17" height="59.17" fill="#2C3333"/><path d="M 0 295.84 A 59.17 59.17 0 0 0 59.17 236.67 L 0 236.67" fill="#2E4F4F"/><rect x="59.166666666666664" y="236.66666666666666" width="59.166666666666664" height="59.166666666666664" fill="#2E4F4F"/><rect x="59.17" y="236.67" width="29.58" height="29.58" fill="#2C3333"/><polygon points="88.75,236.67 88.75,266.25 59.17,266.25" fill="#2C3333"/><rect x="88.75" y="236.67" width="29.58" height="29.58" fill="#2E4F4F"/><polygon points="88.75,236.67 118.33,236.67 88.75,266.25" fill="#2C3333"/><rect x="59.17" y="266.25" width="29.58" height="29.58" fill="#2C3333"/><polygon points="59.17,266.25 88.75,266.25 88.75,295.83" fill="#2C3333"/><rect x="88.75" y="266.25" width="29.58" height="29.58" fill="#2E4F4F"/><polygon points="88.75,266.25 118.33,295.83 88.75,295.83" fill="#2C3333"/><rect x="118.33333333333333" y="236.66666666666666" width="59.166666666666664" height="59.166666666666664" fill="#2E4F4F"/><rect x="118.33" y="236.67" width="29.58" height="29.58" fill="#2C3333"/><path d="M 118.33 266.25 A 29.58 29.58 0 0 1  147.91 236.67 L 147.91 266.25" fill="#2C3333"/><rect x="147.92" y="236.67" width="29.58" height="29.58" fill="#2C3333"/><path d="M 147.92 236.67 A 29.58 29.58 0 0 1 177.5 266.25 L 147.92 266.25" fill="#2E4F4F"/><rect x="118.33" y="266.25" width="29.58" height="29.58" fill="#2C3333"/><path d="M 118.33 266.25 A 29.58 29.58 0 0 0 147.91 295.83 L 147.91 266.25" fill="#2C3333"/><rect x="147.92" y="266.25" width="29.58" height="29.58" fill="#2C3333"/><path d="M 147.92 295.83 A 29.58 29.58 0 0 0 177.5 266.25 L 147.92 266.25" fill="#2E4F4F"/><rect x="177.5" y="236.67" width="59.17" height="59.17" fill="#2E4F4F"/><polygon points="177.5,236.67 236.67000000000002,236.67 236.67000000000002,295.84" fill="#2E4F4F"/><rect x="236.66666666666666" y="236.66666666666666" width="59.166666666666664" height="59.166666666666664" fill="#2E4F4F"/><rect x="236.67" y="236.67" width="29.58" height="29.58" fill="#2C3333"/><path d="M 236.67 266.25 A 29.58 29.58 0 0 1  266.25 236.67 L 266.25 266.25" fill="#2E4F4F"/><rect x="266.25" y="236.67" width="29.58" height="29.58" fill="#2E4F4F"/><path d="M 266.25 236.67 A 29.58 29.58 0 0 1 295.83 266.25 L 266.25 266.25" fill="#2E4F4F"/><rect x="236.67" y="266.25" width="29.58" height="29.58" fill="#2C3333"/><path d="M 236.67 266.25 A 29.58 29.58 0 0 0 266.25 295.83 L 266.25 266.25" fill="#2C3333"/><rect x="266.25" y="266.25" width="29.58" height="29.58" fill="#2C3333"/><path d="M 266.25 295.83 A 29.58 29.58 0 0 0 295.83 266.25 L 266.25 266.25" fill="#2C3333"/><rect x="295.83" y="236.67" width="59.17" height="59.17" fill="#2E4F4F"/><polygon points="295.83,236.67 355,236.67 355,295.84" fill="#2C3333"/><rect x="355" y="236.66666666666666" width="59.166666666666664" height="59.166666666666664" fill="#2E4F4F"/><rect x="355" y="236.67" width="29.58" height="29.58" fill="#2C3333"/><path d="M 355 236.67 A 29.58 29.58 0 0 1 384.58 266.25 L 355 266.25" fill="#2C3333"/><rect x="384.58" y="236.67" width="29.58" height="29.58" fill="#2C3333"/><path d="M 384.58 266.25 A 29.58 29.58 0 0 1  414.15999999999997 236.67 L 414.15999999999997 266.25" fill="#2C3333"/><rect x="355" y="266.25" width="29.58" height="29.58" fill="#2C3333"/><path d="M 355 295.83 A 29.58 29.58 0 0 0 384.58 266.25 L 355 266.25" fill="#2E4F4F"/><rect x="384.58" y="266.25" width="29.58" height="29.58" fill="#2E4F4F"/><path d="M 384.58 266.25 A 29.58 29.58 0 0 0 414.15999999999997 295.83 L 414.15999999999997 266.25" fill="#2E4F4F"/><rect x="414.16666666666663" y="236.66666666666666" width="59.166666666666664" height="59.166666666666664" fill="#2E4F4F"/><rect x="414.17" y="236.67" width="29.58" height="29.58" fill="#2C3333"/><polygon points="443.75,236.67 443.75,266.25 414.17,266.25" fill="#2E4F4F"/><rect x="443.75" y="236.67" width="29.58" height="29.58" fill="#2E4F4F"/><polygon points="443.75,236.67 473.33,266.25 443.75,266.25" fill="#2E4F4F"/><rect x="414.17" y="266.25" width="29.58" height="29.58" fill="#2E4F4F"/><polygon points="414.17,266.25 443.75,266.25 414.17,295.83" fill="#2C3333"/><rect x="443.75" y="266.25" width="29.58" height="29.58" fill="#2E4F4F"/><polygon points="443.75,266.25 473.33,266.25 473.33,295.83" fill="#2E4F4F"/><rect x="473.33" y="236.67" width="59.17" height="59.17" fill="#2C3333"/><path d="M 473.33 295.84 A 59.17 59.17 0 0 0 532.5 236.67 L 473.33 236.67" fill="#2C3333"/><rect x="532.5" y="236.67" width="59.17" height="59.17" fill="#2E4F4F"/><path d="M 532.5 236.67 A 59.17 59.17 0 0 1 591.67 295.84 L 532.5 295.84" fill="#2E4F4F"/><rect x="591.6666666666666" y="236.66666666666666" width="59.166666666666664" height="59.166666666666664" fill="#2E4F4F"/><rect x="591.67" y="236.67" width="29.58" height="29.58" fill="#2E4F4F"/><path d="M 591.67 236.67 A 29.58 29.58 0 0 0 621.25 266.25 L 621.25 236.67" fill="#2E4F4F"/><rect x="621.25" y="236.67" width="29.58" height="29.58" fill="#2E4F4F"/><path d="M 621.25 266.25 A 29.58 29.58 0 0 0 650.83 236.67 L 621.25 236.67" fill="#2E4F4F"/><rect x="591.67" y="266.25" width="29.58" height="29.58" fill="#2E4F4F"/><path d="M 591.67 295.83 A 29.58 29.58 0 0 1  621.25 266.25 L 621.25 295.83" fill="#2C3333"/><rect x="621.25" y="266.25" width="29.58" height="29.58" fill="#2E4F4F"/><path d="M 621.25 266.25 A 29.58 29.58 0 0 1 650.83 295.83 L 621.25 295.83" fill="#2C3333"/><rect x="0" y="295.83" width="59.17" height="59.17" fill="#2E4F4F"/><path d="M 0 355 A 59.17 59.17 0 0 1  59.17 295.83 L 0 355 A 59.17 59.17 0 0 0 59.17 295.83" fill="#2E4F4F"/><rect x="59.166666666666664" y="295.8333333333333" width="59.166666666666664" height="59.166666666666664" fill="#2E4F4F"/><rect x="59.17" y="295.83" width="29.58" height="29.58" fill="#2C3333"/><polygon points="88.75,295.83 88.75,325.40999999999997 59.17,325.40999999999997" fill="#2C3333"/><rect x="88.75" y="295.83" width="29.58" height="29.58" fill="#2E4F4F"/><polygon points="88.75,295.83 118.33,325.40999999999997 88.75,325.40999999999997" fill="#2E4F4F"/><rect x="59.17" y="325.42" width="29.58" height="29.58" fill="#2C3333"/><polygon points="59.17,325.42 88.75,325.42 88.75,355" fill="#2E4F4F"/><rect x="88.75" y="325.42" width="29.58" height="29.58" fill="#2E4F4F"/><polygon points="88.75,325.42 118.33,325.42 88.75,355" fill="#2C3333"/><rect x="118.33333333333333" y="295.8333333333333" width="59.166666666666664" height="59.166666666666664" fill="#2E4F4F"/><rect x="118.33" y="295.83" width="29.58" height="29.58" fill="#2C3333"/><polygon points="147.91,295.83 147.91,325.40999999999997 118.33,325.40999999999997" fill="#2C3333"/><rect x="147.92" y="295.83" width="29.58" height="29.58" fill="#2E4F4F"/><polygon points="147.92,295.83 177.5,295.83 147.92,325.40999999999997" fill="#2C3333"/><rect x="118.33" y="325.42" width="29.58" height="29.58" fill="#2C3333"/><polygon points="118.33,325.42 147.91,325.42 147.91,355" fill="#2E4F4F"/><rect x="147.92" y="325.42" width="29.58" height="29.58" fill="#2C3333"/><polygon points="147.92,325.42 177.5,355 147.92,355" fill="#2E4F4F"/><rect x="177.5" y="295.8333333333333" width="59.166666666666664" height="59.166666666666664" fill="#2E4F4F"/><rect x="177.5" y="295.83" width="29.58" height="29.58" fill="#2E4F4F"/><path d="M 177.5 325.40999999999997 A 29.58 29.58 0 0 1  207.07999999999998 295.83 L 207.07999999999998 325.40999999999997" fill="#2E4F4F"/><rect x="207.08" y="295.83" width="29.58" height="29.58" fill="#2C3333"/><path d="M 207.08 295.83 A 29.58 29.58 0 0 1 236.66000000000003 325.40999999999997 L 207.08 325.40999999999997" fill="#2C3333"/><rect x="177.5" y="325.42" width="29.58" height="29.58" fill="#2E4F4F"/><path d="M 177.5 325.42 A 29.58 29.58 0 0 0 207.07999999999998 355 L 207.07999999999998 325.42" fill="#2E4F4F"/><rect x="207.08" y="325.42" width="29.58" height="29.58" fill="#2E4F4F"/><path d="M 207.08 355 A 29.58 29.58 0 0 0 236.66000000000003 325.42 L 207.08 325.42" fill="#2C3333"/><rect x="236.67" y="295.83" width="59.17" height="59.17" fill="#2C3333"/><polygon points="236.67,295.83 295.84,355 236.67,355" fill="#2C3333"/><rect x="295.8333333333333" y="295.8333333333333" width="59.166666666666664" height="59.166666666666664" fill="#2E4F4F"/><rect x="295.83" y="295.83" width="29.58" height="29.58" fill="#2E4F4F"/><path d="M 295.83 325.40999999999997 A 29.58 29.58 0 0 1  325.40999999999997 295.83 L 325.40999999999997 325.40999999999997" fill="#2E4F4F"/><rect x="325.42" y="295.83" width="29.58" height="29.58" fill="#2C3333"/><path d="M 325.42 295.83 A 29.58 29.58 0 0 1 355 325.40999999999997 L 325.42 325.40999999999997" fill="#2E4F4F"/><rect x="295.83" y="325.42" width="29.58" height="29.58" fill="#2E4F4F"/><path d="M 295.83 325.42 A 29.58 29.58 0 0 0 325.40999999999997 355 L 325.40999999999997 325.42" fill="#2C3333"/><rect x="325.42" y="325.42" width="29.58" height="29.58" fill="#2C3333"/><path d="M 325.42 355 A 29.58 29.58 0 0 0 355 325.42 L 325.42 325.42" fill="#2E4F4F"/><rect x="355" y="295.8333333333333" width="59.166666666666664" height="59.166666666666664" fill="#2E4F4F"/><rect x="355" y="295.83" width="29.58" height="29.58" fill="#2E4F4F"/><path d="M 355 325.40999999999997 A 29.58 29.58 0 0 1 384.58 295.83 L 384.58 303.22499999999997 A 22.185 22.185 0 0 0 362.395 325.40999999999997" fill="#2C3333"/><rect x="384.58" y="295.83" width="29.58" height="29.58" fill="#2C3333"/><path d="M 384.58 295.83 A 29.58 29.58 0 0 1 414.15999999999997 325.40999999999997 L 406.765 325.40999999999997 A 22.185 22.185 0 0 0 384.58 303.22499999999997" fill="#2C3333"/><rect x="355" y="325.42" width="29.58" height="29.58" fill="#2E4F4F"/><path d="M 355 325.42 A 29.58 29.58 0 0 0 384.58 355 L 384.58 347.605 A 22.185 22.185 0 0 1 362.395 325.42" fill="#2E4F4F"/><rect x="384.58" y="325.42" width="29.58" height="29.58" fill="#2C3333"/><path d="M 384.58 355 A 29.58 29.58 0 0 0 414.15999999999997 325.42 L 406.765 325.42 A 22.185 22.185 0 0 1 384.58 347.605" fill="#2E4F4F"/><rect x="414.16666666666663" y="295.8333333333333" width="59.166666666666664" height="59.166666666666664" fill="#2E4F4F"/><rect x="414.17" y="295.83" width="29.58" height="29.58" fill="#2E4F4F"/><polygon points="443.75,295.83 443.75,325.40999999999997 414.17,325.40999999999997" fill="#2E4F4F"/><rect x="443.75" y="295.83" width="29.58" height="29.58" fill="#2E4F4F"/><polygon points="443.75,295.83 473.33,325.40999999999997 443.75,325.40999999999997" fill="#2E4F4F"/><rect x="414.17" y="325.42" width="29.58" height="29.58" fill="#2C3333"/><polygon points="414.17,325.42 443.75,325.42 443.75,355" fill="#2C3333"/><rect x="443.75" y="325.42" width="29.58" height="29.58" fill="#2C3333"/><polygon points="443.75,325.42 473.33,325.42 443.75,355" fill="#2C3333"/><rect x="473.33" y="295.83" width="59.17" height="59.17" fill="#2E4F4F"/><rect x="473.33" y="295.83" width="59.17" height="59.17" fill="#2C3333"/><rect x="532.5" y="295.83" width="59.17" height="59.17" fill="#2E4F4F"/><polygon points="532.5,295.83 591.67,295.83 532.5,355" fill="#2C3333"/><rect x="591.6666666666666" y="295.8333333333333" width="59.166666666666664" height="59.166666666666664" fill="#2E4F4F"/><rect x="591.67" y="295.83" width="29.58" height="29.58" fill="#2E4F4F"/><polygon points="621.25,295.83 621.25,325.40999999999997 591.67,325.40999999999997" fill="#2E4F4F"/><rect x="621.25" y="295.83" width="29.58" height="29.58" fill="#2C3333"/><polygon points="621.25,295.83 650.83,295.83 621.25,325.40999999999997" fill="#2C3333"/><rect x="591.67" y="325.42" width="29.58" height="29.58" fill="#2C3333"/><polygon points="591.67,325.42 621.25,325.42 621.25,355" fill="#2E4F4F"/><rect x="621.25" y="325.42" width="29.58" height="29.58" fill="#2C3333"/><polygon points="621.25,325.42 650.83,355 621.25,355" fill="#2C3333"/></g></svg>