<?xml version="1.0" standalone="no"?><svg xmlns:xlink="http://www.w3.org/1999/xlink" xmlns="http://www.w3.org/2000/svg" viewBox="0 0 1000 545.4590152851445" preserveAspectRatio="xMaxYMax slice"><g transform="scale(1.5365042684088577)"><rect x="0" y="0" width="650.8333333333333" height="355" fill="#2C3333"/><rect x="0" y="0" width="59.166666666666664" height="59.166666666666664" fill="#2C3333"/><rect x="0" y="0" width="29.58" height="29.58" fill="#2E4F4F"/><polygon points="0,0 29.58,29.58 0,29.58" fill="#2C3333"/><rect x="29.58" y="0" width="29.58" height="29.58" fill="#2C3333"/><path d="M 29.58 29.58 A 29.58 29.58 0 0 1  59.16 0 L 29.58 29.58 A 29.58 29.58 0 0 0 59.16 0" fill="#2C3333"/><rect x="0" y="29.58" width="29.58" height="29.58" fill="#2E4F4F"/><path d="M 0 29.58 A 29.58 29.58 0 0 1  29.58 59.16 L 0 29.58 A 29.58 29.58 0 0 0 29.58 59.16" fill="#2C3333"/><rect x="29.58" y="29.58" width="29.58" height="29.58" fill="#2C3333"/><path d="M 29.58 59.16 A 29.58 29.58 0 0 0 59.16 29.58 L 29.58 29.58" fill="#2C3333"/><rect x="59.17" y="0" width="59.17" height="59.17" fill="#2C3333"/><g transform="translate(59.17,0) scale(2.9585) rotate(0)"><rect width="20" height="10" fill="#2C3333"/></g><rect x="118.33" y="0" width="59.17" height="59.17" fill="#2C3333"/><path d="M 118.33 0 A 59.17 59.17 0 0 1  177.5 59.17 L 118.33 0 A 59.17 59.17 0 0 0 177.5 59.17" fill="#2C3333"/><rect x="177.5" y="0" width="59.17" height="59.17" fill="#2C3333"/><path d="M 177.5 0 A 59.17 59.17 0 0 1 236.67000000000002 59.17 L 177.5 59.17" fill="#2C3333"/><rect x="236.67" y="0" width="59.17" height="59.17" fill="#2C3333"/><path d="M 236.67 0 A 59.17 59.17 0 0 1  295.84 59.17 L 236.67 0 A 59.17 59.17 0 0 0 295.84 59.17" fill="#2E4F4F"/><rect x="295.83" y="0" width="59.17" height="59.17" fill="#2C3333"/><g transform="translate(295.83,0) scale(2.9585) rotate(0)"><rect width="20" height="10" fill="#2C3333"/></g><rect x="355" y="0" width="59.166666666666664" height="59.166666666666664" fill="#2C3333"/><rect x="355" y="0" width="29.58" height="29.58" fill="#2E4F4F"/><path d="M 355 0 A 29.58 29.58 0 0 1  384.58 29.58 L 355 0 A 29.58 29.58 0 0 0 384.58 29.58" fill="#2E4F4F"/><rect x="384.58" y="0" width="29.58" height="29.58" fill="#2C3333"/><path d="M 384.58 29.58 A 29.58 29.58 0 0 1  414.15999999999997 0 L 384.58 29.58 A 29.58 29.58 0 0 0 414.15999999999997 0" fill="#2E4F4F"/><rect x="355" y="29.58" width="29.58" height="29.58" fill="#2C3333"/><g transform="translate(355,29.58) scale(1.4789999999999999) rotate(0)"><rect width="20" height="10" fill="#2C3333"/></g><rect x="384.58" y="29.58" width="29.58" height="29.58" fill="#2C3333"/><g transform="translate(384.58,29.58) scale(1.4789999999999999) rotate(0)"><rect width="20" height="10" fill="#2C3333"/></g><rect x="414.17" y="0" width="59.17" height="59.17" fill="#2C3333"/><path d="M 414.17 0 A 59.17 59.17 0 0 1  473.34000000000003 59.17 L 414.17 0 A 59.17 59.17 0 0 0 473.34000000000003 59.17" fill="#2C3333"/><rect x="473.33" y="0" width="59.17" height="59.17" fill="#2C3333"/><polygon points="532.5,0 532.5,59.17 473.33,59.17" fill="#2C3333"/><rect x="532.5" y="0" width="59.17" height="59.17" fill="#2C3333"/><path d="M 532.5 59.17 A 59.17 59.17 0 0 1  591.67 0 L 532.5 59.17 A 59.17 59.17 0 0 0 591.67 0" fill="#2C3333"/><rect x="591.67" y="0" width="59.17" height="59.17" fill="#2C3333"/><path d="M 591.67 59.17 A 59.17 59.17 0 0 1  650.8399999999999 0 L 591.67 59.17 A 59.17 59.17 0 0 0 650.8399999999999 0" fill="#2C3333"/><rect x="0" y="59.166666666666664" width="59.166666666666664" height="59.166666666666664" fill="#2C3333"/><rect x="0" y="59.17" width="29.58" height="29.58" fill="#2C3333"/><path d="M 0 59.17 A 29.58 29.58 0 0 1  29.58 88.75 L 0 59.17 A 29.58 29.58 0 0 0 29.58 88.75" fill="#2C3333"/><rect x="29.58" y="59.17" width="29.58" height="29.58" fill="#2E4F4F"/><g transform="translate(29.58,59.17) scale(1.4789999999999999) rotate(0)"><rect width="20" height="10" fill="#2E4F4F"/></g><rect x="0" y="88.75" width="29.58" height="29.58" fill="#2C3333"/><polygon points="0,88.75 29.58,88.75 29.58,118.33" fill="#2E4F4F"/><rect x="29.58" y="88.75" width="29.58" height="29.58" fill="#2C3333"/><path d="M 29.58 118.33 A 29.58 29.58 0 0 1  59.16 88.75 L 29.58 118.33 A 29.58 29.58 0 0 0 59.16 88.75" fill="#2E4F4F"/><rect x="59.17" y="59.17" width="59.17" height="59.17" fill="#2E4F4F"/><path d="M 59.17 118.34 A 59.17 59.17 0 0 1  118.34 59.17 L 59.17 118.34 A 59.17 59.17 0 0 0 118.34 59.17" fill="#2C3333"/><rect x="118.33" y="59.17" width="59.17" height="59.17" fill="#2C3333"/><polygon points="118.33,59.17 177.5,118.34 118.33,118.34" fill="#2C3333"/><rect x="177.5" y="59.17" width="59.17" height="59.17" fill="#2C3333"/><g transform="translate(177.5,59.17) scale(2.9585) rotate(0)"><rect width="20" height="10" fill="#2E4F4F"/></g><rect x="236.67" y="59.17" width="59.17" height="59.17" fill="#2C3333"/><g transform="translate(236.67,59.17) scale(2.9585) rotate(0)"><rect width="20" height="10" fill="#2C3333"/></g><rect x="295.83" y="59.17" width="59.17" height="59.17" fill="#2C3333"/><polygon points="295.83,59.17 355,118.34 295.83,118.34" fill="#2C3333"/><rect x="355" y="59.17" width="59.17" height="59.17" fill="#2C3333"/><g transform="translate(355,59.17) scale(2.9585) rotate(0)"><rect width="20" height="10" fill="#2E4F4F"/></g><rect x="414.16666666666663" y="59.166666666666664" width="59.166666666666664" height="59.166666666666664" fill="#2C3333"/><rect x="414.17" y="59.17" width="29.58" height="29.58" fill="#2C3333"/><g transform="translate(414.17,59.17) scale(1.4789999999999999) rotate(0)"><rect width="20" height="10" fill="#2C3333"/></g><rect x="443.75" y="59.17" width="29.58" height="29.58" fill="#2C3333"/><path d="M 443.75 88.75 A 29.58 29.58 0 0 1  473.33 59.17 L 443.75 88.75 A 29.58 29.58 0 0 0 473.33 59.17" fill="#2E4F4F"/><rect x="414.17" y="88.75" width="29.58" height="29.58" fill="#2E4F4F"/><path d="M 414.17 88.75 A 29.58 29.58 0 0 1  443.75 118.33 L 414.17 88.75 A 29.58 29.58 0 0 0 443.75 118.33" fill="#2C3333"/><rect x="443.75" y="88.75" width="29.58" height="29.58" fill="#2E4F4F"/><g transform="translate(443.75,88.75) scale(1.4789999999999999) rotate(0)"><rect width="20" height="10" fill="#2C3333"/></g><rect x="473.33" y="59.17" width="59.17" height="59.17" fill="#2C3333"/><path d="M 473.33 59.17 A 59.17 59.17 0 0 1 532.5 118.34 L 473.33 118.34" fill="#2C3333"/><rect x="532.5" y="59.166666666666664" width="59.166666666666664" height="59.166666666666664" fill="#2C3333"/><rect x="532.5" y="59.17" width="29.58" height="29.58" fill="#2C3333"/><g transform="translate(532.5,59.17) scale(1.4789999999999999) rotate(0)"><rect width="20" height="10" fill="#2C3333"/></g><rect x="562.08" y="59.17" width="29.58" height="29.58" fill="#2E4F4F"/><polygon points="562.08,59.17 591.6600000000001,88.75 562.08,88.75" fill="#2C3333"/><rect x="532.5" y="88.75" width="29.58" height="29.58" fill="#2C3333"/><path d="M 532.5 118.33 A 29.58 29.58 0 0 1  562.08 88.75 L 532.5 118.33 A 29.58 29.58 0 0 0 562.08 88.75" fill="#2C3333"/><rect x="562.08" y="88.75" width="29.58" height="29.58" fill="#2C3333"/><polygon points="562.08,88.75 591.6600000000001,88.75 591.6600000000001,118.33" fill="#2C3333"/><rect x="591.6666666666666" y="59.166666666666664" width="59.166666666666664" height="59.166666666666664" fill="#2C3333"/><rect x="591.67" y="59.17" width="29.58" height="29.58" fill="#2C3333"/><path d="M 591.67 88.75 A 29.58 29.58 0 0 1  621.25 59.17 L 591.67 88.75 A 29.58 29.58 0 0 0 621.25 59.17" fill="#2E4F4F"/><rect x="621.25" y="59.17" width="29.58" height="29.58" fill="#2E4F4F"/><g transform="translate(621.25,59.17) scale(1.4789999999999999) rotate(0)"><rect width="20" height="10" fill="#2E4F4F"/></g><rect x="591.67" y="88.75" width="29.58" height="29.58" fill="#2E4F4F"/><path d="M 591.67 118.33 A 29.58 29.58 0 0 1  621.25 88.75 L 591.67 118.33 A 29.58 29.58 0 0 0 621.25 88.75" fill="#2C3333"/><rect x="621.25" y="88.75" width="29.58" height="29.58" fill="#2C3333"/><path d="M 621.25 88.75 A 29.58 29.58 0 0 1  650.83 118.33 L 621.25 88.75 A 29.58 29.58 0 0 0 650.83 118.33" fill="#2C3333"/><rect x="0" y="118.33333333333333" width="59.166666666666664" height="59.166666666666664" fill="#2C3333"/><rect x="0" y="118.33" width="29.58" height="29.58" fill="#2C3333"/><polygon points="0,118.33 29.58,118.33 0,147.91" fill="#2E4F4F"/><rect x="29.58" y="118.33" width="29.58" height="29.58" fill="#2C3333"/><path d="M 29.58 147.91 A 29.58 29.58 0 0 0 59.16 118.33 L 29.58 118.33" fill="#2C3333"/><rect x="0" y="147.92" width="29.58" height="29.58" fill="#2C3333"/><path d="M 0 147.92 A 29.58 29.58 0 0 1  29.58 177.5 L 0 147.92 A 29.58 29.58 0 0 0 29.58 177.5" fill="#2C3333"/><rect x="29.58" y="147.92" width="29.58" height="29.58" fill="#2C3333"/><path d="M 29.58 177.5 A 29.58 29.58 0 0 1  59.16 147.92 L 59.16 177.5" fill="#2E4F4F"/><rect x="59.166666666666664" y="118.33333333333333" width="59.166666666666664" height="59.166666666666664" fill="#2C3333"/><rect x="59.17" y="118.33" width="29.58" height="29.58" fill="#2C3333"/><path d="M 59.17 118.33 A 29.58 29.58 0 0 0 88.75 147.91 L 88.75 118.33" fill="#2E4F4F"/><rect x="88.75" y="118.33" width="29.58" height="29.58" fill="#2C3333"/><path d="M 88.75 118.33 A 29.58 29.58 0 0 1 118.33 147.91 L 88.75 147.91" fill="#2C3333"/><rect x="59.17" y="147.92" width="29.58" height="29.58" fill="#2C3333"/><path d="M 59.17 147.92 A 29.58 29.58 0 0 1 88.75 177.5 L 59.17 177.5" fill="#2E4F4F"/><rect x="88.75" y="147.92" width="29.58" height="29.58" fill="#2C3333"/><path d="M 88.75 147.92 A 29.58 29.58 0 0 0 118.33 177.5 L 118.33 147.92" fill="#2E4F4F"/><rect x="118.33" y="118.33" width="59.17" height="59.17" fill="#2C3333"/><g transform="translate(118.33,118.33) scale(2.9585) rotate(0)"><rect width="20" height="10" fill="#2C3333"/></g><rect x="177.5" y="118.33" width="59.17" height="59.17" fill="#2C3333"/><polygon points="177.5,118.33 236.67000000000002,118.33 177.5,177.5" fill="#2C3333"/><rect x="236.66666666666666" y="118.33333333333333" width="59.166666666666664" height="59.166666666666664" fill="#2C3333"/><rect x="236.67" y="118.33" width="29.58" height="29.58" fill="#2E4F4F"/><path d="M 236.67 118.33 A 29.58 29.58 0 0 1  266.25 147.91 L 236.67 118.33 A 29.58 29.58 0 0 0 266.25 147.91" fill="#2E4F4F"/><rect x="266.25" y="118.33" width="29.58" height="29.58" fill="#2C3333"/><path d="M 266.25 118.33 A 29.58 29.58 0 0 1  295.83 147.91 L 266.25 118.33 A 29.58 29.58 0 0 0 295.83 147.91" fill="#2E4F4F"/><rect x="236.67" y="147.92" width="29.58" height="29.58" fill="#2C3333"/><path d="M 236.67 177.5 A 29.58 29.58 0 0 1  266.25 147.92 L 236.67 177.5 A 29.58 29.58 0 0 0 266.25 147.92" fill="#2C3333"/><rect x="266.25" y="147.92" width="29.58" height="29.58" fill="#2E4F4F"/><g transform="translate(266.25,147.92) scale(1.4789999999999999) rotate(0)"><rect width="20" height="10" fill="#2C3333"/></g><rect x="295.83" y="118.33" width="59.17" height="59.17" fill="#2C3333"/><path d="M 295.83 118.33 A 59.17 59.17 0 0 1  355 177.5 L 295.83 118.33 A 59.17 59.17 0 0 0 355 177.5" fill="#2C3333"/><rect x="355" y="118.33" width="59.17" height="59.17" fill="#2C3333"/><path d="M 355 177.5 A 59.17 59.17 0 0 1  414.17 118.33 L 355 177.5 A 59.17 59.17 0 0 0 414.17 118.33" fill="#2C3333"/><rect x="414.16666666666663" y="118.33333333333333" width="59.166666666666664" height="59.166666666666664" fill="#2C3333"/><rect x="414.17" y="118.33" width="29.58" height="29.58" fill="#2C3333"/><g transform="translate(414.17,118.33) scale(1.4789999999999999) rotate(0)"><rect width="20" height="10" fill="#2C3333"/></g><rect x="443.75" y="118.33" width="29.58" height="29.58" fill="#2C3333"/><g transform="translate(443.75,118.33) scale(1.4789999999999999) rotate(0)"><rect width="20" height="10" fill="#2C3333"/></g><rect x="414.17" y="147.92" width="29.58" height="29.58" fill="#2C3333"/><path d="M 414.17 147.92 A 29.58 29.58 0 0 1  443.75 177.5 L 414.17 147.92 A 29.58 29.58 0 0 0 443.75 177.5" fill="#2C3333"/><rect x="443.75" y="147.92" width="29.58" height="29.58" fill="#2C3333"/><g transform="translate(443.75,147.92) scale(1.4789999999999999) rotate(0)"><rect width="20" height="10" fill="#2E4F4F"/></g><rect x="473.33" y="118.33" width="59.17" height="59.17" fill="#2C3333"/><path d="M 473.33 118.33 A 59.17 59.17 0 0 1  532.5 177.5 L 473.33 118.33 A 59.17 59.17 0 0 0 532.5 177.5" fill="#2E4F4F"/><rect x="532.5" y="118.33333333333333" width="59.166666666666664" height="59.166666666666664" fill="#2C3333"/><rect x="532.5" y="118.33" width="29.58" height="29.58" fill="#2C3333"/><path d="M 532.5 118.33 A 29.58 29.58 0 0 1  562.08 147.91 L 532.5 118.33 A 29.58 29.58 0 0 0 562.08 147.91" fill="#2C3333"/><rect x="562.08" y="118.33" width="29.58" height="29.58" fill="#2C3333"/><g transform="translate(562.08,118.33) scale(1.4789999999999999) rotate(0)"><rect width="20" height="10" fill="#2C3333"/></g><rect x="532.5" y="147.92" width="29.58" height="29.58" fill="#2E4F4F"/><polygon points="532.5,147.92 562.08,147.92 562.08,177.5" fill="#2C3333"/><rect x="562.08" y="147.92" width="29.58" height="29.58" fill="#2C3333"/><polygon points="562.08,147.92 591.6600000000001,177.5 562.08,177.5" fill="#2C3333"/><rect x="591.6666666666666" y="118.33333333333333" width="59.166666666666664" height="59.166666666666664" fill="#2C3333"/><rect x="591.67" y="118.33" width="29.58" height="29.58" fill="#2C3333"/><g transform="translate(591.67,118.33) scale(1.4789999999999999) rotate(0)"><rect width="20" height="10" fill="#2E4F4F"/></g><rect x="621.25" y="118.33" width="29.58" height="29.58" fill="#2C3333"/><polygon points="621.25,118.33 650.83,118.33 650.83,147.91" fill="#2C3333"/><rect x="591.67" y="147.92" width="29.58" height="29.58" fill="#2C3333"/><polygon points="591.67,147.92 621.25,147.92 621.25,177.5" fill="#2C3333"/><rect x="621.25" y="147.92" width="29.58" height="29.58" fill="#2E4F4F"/><polygon points="621.25,147.92 650.83,147.92 650.83,177.5" fill="#2C3333"/><rect x="0" y="177.5" width="59.17" height="59.17" fill="#2C3333"/><polygon points="0,177.5 59.17,177.5 59.17,236.67000000000002" fill="#2C3333"/><rect x="59.17" y="177.5" width="59.17" height="59.17" fill="#2C3333"/><polygon points="118.34,177.5 118.34,236.67000000000002 59.17,236.67000000000002" fill="#2C3333"/><rect x="118.33" y="177.5" width="59.17" height="59.17" fill="#2C3333"/><g transform="translate(118.33,177.5) scale(2.9585) rotate(0)"><rect width="20" height="10" fill="#2E4F4F"/></g><rect x="177.5" y="177.5" width="59.17" height="59.17" fill="#2C3333"/><g transform="translate(177.5,177.5) scale(2.9585) rotate(0)"><rect width="20" height="10" fill="#2C3333"/></g><rect x="236.67" y="177.5" width="59.17" height="59.17" fill="#2C3333"/><g transform="translate(236.67,177.5) scale(2.9585) rotate(0)"><rect width="20" height="10" fill="#2C3333"/></g><rect x="295.83" y="177.5" width="59.17" height="59.17" fill="#2C3333"/><polygon points="355,177.5 355,236.67000000000002 295.83,236.67000000000002" fill="#2E4F4F"/><rect x="355" y="177.5" width="59.17" height="59.17" fill="#2E4F4F"/><g transform="translate(355,177.5) scale(2.9585) rotate(0)"><rect width="20" height="10" fill="#2C3333"/></g><rect x="414.17" y="177.5" width="59.17" height="59.17" fill="#2C3333"/><polygon points="414.17,177.5 473.34000000000003,177.5 473.34000000000003,236.67000000000002" fill="#2C3333"/><rect x="473.33" y="177.5" width="59.17" height="59.17" fill="#2C3333"/><g transform="translate(473.33,177.5) scale(2.9585) rotate(0)"><rect width="20" height="10" fill="#2E4F4F"/></g><rect x="532.5" y="177.5" width="59.17" height="59.17" fill="#2E4F4F"/><path d="M 532.5 236.67000000000002 A 59.17 59.17 0 0 1  591.67 177.5 L 532.5 236.67000000000002 A 59.17 59.17 0 0 0 591.67 177.5" fill="#2C3333"/><rect x="591.6666666666666" y="177.5" width="59.166666666666664" height="59.166666666666664" fill="#2C3333"/><rect x="591.67" y="177.5" width="29.58" height="29.58" fill="#2C3333"/><polygon points="591.67,177.5 621.25,207.07999999999998 591.67,207.07999999999998" fill="#2C3333"/><rect x="621.25" y="177.5" width="29.58" height="29.58" fill="#2C3333"/><g transform="translate(621.25,177.5) scale(1.4789999999999999) rotate(0)"><rect width="20" height="10" fill="#2E4F4F"/></g><rect x="591.67" y="207.08" width="29.58" height="29.58" fill="#2E4F4F"/><path d="M 591.67 207.08 A 29.58 29.58 0 0 0 621.25 236.66000000000003 L 621.25 207.08" fill="#2C3333"/><rect x="621.25" y="207.08" width="29.58" height="29.58" fill="#2C3333"/><path d="M 621.25 236.66000000000003 A 29.58 29.58 0 0 1  650.83 207.08 L 621.25 236.66000000000003 A 29.58 29.58 0 0 0 650.83 207.08" fill="#2E4F4F"/><rect x="0" y="236.67" width="59.17" height="59.17" fill="#2C3333"/><polygon points="0,236.67 59.17,295.84 0,295.84" fill="#2C3333"/><rect x="59.17" y="236.67" width="59.17" height="59.17" fill="#2C3333"/><path d="M 59.17 236.67 A 59.17 59.17 0 0 1 118.34 295.84 L 59.17 295.84" fill="#2E4F4F"/><rect x="118.33" y="236.67" width="59.17" height="59.17" fill="#2C3333"/><polygon points="118.33,236.67 177.5,236.67 177.5,295.84" fill="#2C3333"/><rect x="177.5" y="236.67" width="59.17" height="59.17" fill="#2C3333"/><path d="M 177.5 295.84 A 59.17 59.17 0 0 0 236.67000000000002 236.67 L 177.5 236.67" fill="#2E4F4F"/><rect x="236.66666666666666" y="236.66666666666666" width="59.166666666666664" height="59.166666666666664" fill="#2C3333"/><rect x="236.67" y="236.67" width="29.58" height="29.58" fill="#2E4F4F"/><path d="M 236.67 266.25 A 29.58 29.58 0 0 1  266.25 236.67 L 236.67 266.25 A 29.58 29.58 0 0 0 266.25 236.67" fill="#2E4F4F"/><rect x="266.25" y="236.67" width="29.58" height="29.58" fill="#2C3333"/><polygon points="266.25,236.67 295.83,266.25 266.25,266.25" fill="#2E4F4F"/><rect x="236.67" y="266.25" width="29.58" height="29.58" fill="#2E4F4F"/><path d="M 236.67 266.25 A 29.58 29.58 0 0 1  266.25 295.83 L 236.67 266.25 A 29.58 29.58 0 0 0 266.25 295.83" fill="#2C3333"/><rect x="266.25" y="266.25" width="29.58" height="29.58" fill="#2C3333"/><polygon points="266.25,266.25 295.83,266.25 266.25,295.83" fill="#2E4F4F"/><rect x="295.83" y="236.67" width="59.17" height="59.17" fill="#2C3333"/><g transform="translate(295.83,236.67) scale(2.9585) rotate(0)"><rect width="20" height="10" fill="#2C3333"/></g><rect x="355" y="236.66666666666666" width="59.166666666666664" height="59.166666666666664" fill="#2C3333"/><rect x="355" y="236.67" width="29.58" height="29.58" fill="#2C3333"/><path d="M 355 266.25 A 29.58 29.58 0 0 1  384.58 236.67 L 355 266.25 A 29.58 29.58 0 0 0 384.58 236.67" fill="#2C3333"/><rect x="384.58" y="236.67" width="29.58" height="29.58" fill="#2C3333"/><polygon points="384.58,236.67 414.15999999999997,236.67 384.58,266.25" fill="#2C3333"/><rect x="355" y="266.25" width="29.58" height="29.58" fill="#2E4F4F"/><path d="M 355 266.25 A 29.58 29.58 0 0 1 384.58 295.83 L 355 295.83" fill="#2C3333"/><rect x="384.58" y="266.25" width="29.58" height="29.58" fill="#2C3333"/><path d="M 384.58 295.83 A 29.58 29.58 0 0 1  414.15999999999997 266.25 L 384.58 295.83 A 29.58 29.58 0 0 0 414.15999999999997 266.25" fill="#2E4F4F"/><rect x="414.16666666666663" y="236.66666666666666" width="59.166666666666664" height="59.166666666666664" fill="#2C3333"/><rect x="414.17" y="236.67" width="29.58" height="29.58" fill="#2C3333"/><g transform="translate(414.17,236.67) scale(1.4789999999999999) rotate(0)"><rect width="20" height="10" fill="#2E4F4F"/></g><rect x="443.75" y="236.67" width="29.58" height="29.58" fill="#2E4F4F"/><polygon points="443.75,236.67 473.33,266.25 443.75,266.25" fill="#2E4F4F"/><rect x="414.17" y="266.25" width="29.58" height="29.58" fill="#2C3333"/><g transform="translate(414.17,266.25) scale(1.4789999999999999) rotate(0)"><rect width="20" height="10" fill="#2C3333"/></g><rect x="443.75" y="266.25" width="29.58" height="29.58" fill="#2E4F4F"/><polygon points="473.33,266.25 473.33,295.83 443.75,295.83" fill="#2E4F4F"/><rect x="473.33" y="236.67" width="59.17" height="59.17" fill="#2E4F4F"/><path d="M 473.33 236.67 A 59.17 59.17 0 0 1  532.5 295.84 L 473.33 236.67 A 59.17 59.17 0 0 0 532.5 295.84" fill="#2C3333"/><rect x="532.5" y="236.67" width="59.17" height="59.17" fill="#2C3333"/><path d="M 532.5 236.67 A 59.17 59.17 0 0 0 591.67 295.84 L 591.67 236.67" fill="#2E4F4F"/><rect x="591.67" y="236.67" width="59.17" height="59.17" fill="#2C3333"/><path d="M 591.67 236.67 A 59.17 59.17 0 0 1  650.8399999999999 295.84 L 591.67 236.67 A 59.17 59.17 0 0 0 650.8399999999999 295.84" fill="#2E4F4F"/><rect x="0" y="295.83" width="59.17" height="59.17" fill="#2C3333"/><polygon points="0,295.83 59.17,295.83 0,355" fill="#2C3333"/><rect x="59.17" y="295.83" width="59.17" height="59.17" fill="#2C3333"/><path d="M 59.17 295.83 A 59.17 59.17 0 0 1 118.34 355 L 59.17 355" fill="#2C3333"/><rect x="118.33333333333333" y="295.8333333333333" width="59.166666666666664" height="59.166666666666664" fill="#2C3333"/><rect x="118.33" y="295.83" width="29.58" height="29.58" fill="#2C3333"/><g transform="translate(118.33,295.83) scale(1.4789999999999999) rotate(0)"><rect width="20" height="10" fill="#2C3333"/></g><rect x="147.92" y="295.83" width="29.58" height="29.58" fill="#2C3333"/><path d="M 147.92 325.40999999999997 A 29.58 29.58 0 0 0 177.5 295.83 L 147.92 295.83" fill="#2E4F4F"/><rect x="118.33" y="325.42" width="29.58" height="29.58" fill="#2C3333"/><path d="M 118.33 325.42 A 29.58 29.58 0 0 1  147.91 355 L 118.33 325.42 A 29.58 29.58 0 0 0 147.91 355" fill="#2E4F4F"/><rect x="147.92" y="325.42" width="29.58" height="29.58" fill="#2E4F4F"/><polygon points="177.5,325.42 177.5,355 147.92,355" fill="#2C3333"/><rect x="177.5" y="295.8333333333333" width="59.166666666666664" height="59.166666666666664" fill="#2C3333"/><rect x="177.5" y="295.83" width="29.58" height="29.58" fill="#2C3333"/><g transform="translate(177.5,295.83) scale(1.4789999999999999) rotate(0)"><rect width="20" height="10" fill="#2E4F4F"/></g><rect x="207.08" y="295.83" width="29.58" height="29.58" fill="#2C3333"/><polygon points="207.08,295.83 236.66000000000003,325.40999999999997 207.08,325.40999999999997" fill="#2E4F4F"/><rect x="177.5" y="325.42" width="29.58" height="29.58" fill="#2C3333"/><polygon points="177.5,325.42 207.07999999999998,355 177.5,355" fill="#2E4F4F"/><rect x="207.08" y="325.42" width="29.58" height="29.58" fill="#2E4F4F"/><path d="M 207.08 355 A 29.58 29.58 0 0 1  236.66000000000003 325.42 L 207.08 355 A 29.58 29.58 0 0 0 236.66000000000003 325.42" fill="#2C3333"/><rect x="236.67" y="295.83" width="59.17" height="59.17" fill="#2E4F4F"/><g transform="translate(236.67,295.83) scale(2.9585) rotate(0)"><rect width="20" height="10" fill="#2E4F4F"/></g><rect x="295.83" y="295.83" width="59.17" height="59.17" fill="#2C3333"/><path d="M 295.83 355 A 59.17 59.17 0 0 1  355 295.83 L 295.83 355 A 59.17 59.17 0 0 0 355 295.83" fill="#2C3333"/><rect x="355" y="295.8333333333333" width="59.166666666666664" height="59.166666666666664" fill="#2C3333"/><rect x="355" y="295.83" width="29.58" height="29.58" fill="#2C3333"/><g transform="translate(355,295.83) scale(1.4789999999999999) rotate(0)"><rect width="20" height="10" fill="#2C3333"/></g><rect x="384.58" y="295.83" width="29.58" height="29.58" fill="#2C3333"/><g transform="translate(384.58,295.83) scale(1.4789999999999999) rotate(0)"><rect width="20" height="10" fill="#2C3333"/></g><rect x="355" y="325.42" width="29.58" height="29.58" fill="#2E4F4F"/><g transform="translate(355,325.42) scale(1.4789999999999999) rotate(0)"><rect width="20" height="10" fill="#2C3333"/></g><rect x="384.58" y="325.42" width="29.58" height="29.58" fill="#2C3333"/><path d="M 384.58 325.42 A 29.58 29.58 0 0 1  414.15999999999997 355 L 384.58 325.42 A 29.58 29.58 0 0 0 414.15999999999997 355" fill="#2C3333"/><rect x="414.16666666666663" y="295.8333333333333" width="59.166666666666664" height="59.166666666666664" fill="#2C3333"/><rect x="414.17" y="295.83" width="29.58" height="29.58" fill="#2C3333"/><g transform="translate(414.17,295.83) scale(1.4789999999999999) rotate(0)"><rect width="20" height="10" fill="#2C3333"/></g><rect x="443.75" y="295.83" width="29.58" height="29.58" fill="#2E4F4F"/><path d="M 443.75 325.40999999999997 A 29.58 29.58 0 0 1  473.33 295.83 L 473.33 325.40999999999997" fill="#2C3333"/><rect x="414.17" y="325.42" width="29.58" height="29.58" fill="#2C3333"/><polygon points="414.17,325.42 443.75,325.42 414.17,355" fill="#2C3333"/><rect x="443.75" y="325.42" width="29.58" height="29.58" fill="#2E4F4F"/><polygon points="443.75,325.42 473.33,325.42 473.33,355" fill="#2C3333"/><rect x="473.33" y="295.83" width="59.17" height="59.17" fill="#2C3333"/><path d="M 473.33 295.83 A 59.17 59.17 0 0 1  532.5 355 L 473.33 295.83 A 59.17 59.17 0 0 0 532.5 355" fill="#2C3333"/><rect x="532.5" y="295.83" width="59.17" height="59.17" fill="#2E4F4F"/><path d="M 532.5 295.83 A 59.17 59.17 0 0 1 591.67 355 L 532.5 355" fill="#2E4F4F"/><rect x="591.67" y="295.83" width="59.17" height="59.17" fill="#2E4F4F"/><path d="M 591.67 295.83 A 59.17 59.17 0 0 1  650.8399999999999 355 L 591.67 295.83 A 59.17 59.17 0 0 0 650.8399999999999 355" fill="#2E4F4F"/></g></svg>