<svg id="visual" viewBox="0 0 1270 720" width="1270" height="720" xmlns="http://www.w3.org/2000/svg" xmlns:xlink="http://www.w3.org/1999/xlink" version="1.1"><rect x="0" y="0" width="1270" height="720" fill="#2E4F4F"></rect><defs><linearGradient id="grad1_0" x1="43.3%" y1="0%" x2="100%" y2="100%"><stop offset="14.722222222222223%" stop-color="#2e4f4f" stop-opacity="1"></stop><stop offset="85.27777777777779%" stop-color="#2e4f4f" stop-opacity="1"></stop></linearGradient></defs><defs><linearGradient id="grad2_0" x1="0%" y1="0%" x2="56.7%" y2="100%"><stop offset="14.722222222222223%" stop-color="#2e4f4f" stop-opacity="1"></stop><stop offset="85.27777777777779%" stop-color="#2e4f4f" stop-opacity="1"></stop></linearGradient></defs><g transform="translate(1270, 0)"><path d="M0 540C-59.6 506.8 -119.2 473.5 -187.5 452.7C-255.9 431.9 -333 423.5 -381.8 381.8C-430.7 340.1 -451.4 265.1 -473 195.9C-494.7 126.7 -517.3 63.4 -540 0L0 0Z" fill="#2C3333"></path></g><g transform="translate(0, 720)"><path d="M0 -540C72.4 -533.6 144.8 -527.1 206.6 -498.9C268.5 -470.6 319.7 -420.6 369.8 -369.8C419.9 -319.1 468.9 -267.6 497 -205.9C525.2 -144.1 532.6 -72.1 540 0L0 0Z" fill="#2C3333"></path></g></svg>