<svg id="visual" viewBox="0 0 1270 720" width="1270" height="720" xmlns="http://www.w3.org/2000/svg" xmlns:xlink="http://www.w3.org/1999/xlink" version="1.1"><path d="M0 159L318 282L635 224L953 181L1270 174L1270 0L953 0L635 0L318 0L0 0Z" fill="#2e4f4f"></path><path d="M0 469L318 455L635 397L953 476L1270 426L1270 172L953 179L635 222L318 280L0 157Z" fill="#2e4646"></path><path d="M0 620L318 584L635 577L953 577L1270 606L1270 424L953 474L635 395L318 453L0 467Z" fill="#2d3c3c"></path><path d="M0 721L318 721L635 721L953 721L1270 721L1270 604L953 575L635 575L318 582L0 618Z" fill="#2c3333"></path></svg>