<svg id="visual" viewBox="0 0 1270 720" width="1270" height="720" xmlns="http://www.w3.org/2000/svg" xmlns:xlink="http://www.w3.org/1999/xlink" version="1.1"><rect x="0" y="0" width="1270" height="720" fill="#2E4F4F"></rect><path d="M0 355L35.3 345.3C70.7 335.7 141.3 316.3 211.8 312.5C282.3 308.7 352.7 320.3 423.2 319.8C493.7 319.3 564.3 306.7 635 305.3C705.7 304 776.3 314 846.8 320.7C917.3 327.3 987.7 330.7 1058.2 322.2C1128.7 313.7 1199.3 293.3 1234.7 283.2L1270 273L1270 721L1234.7 721C1199.3 721 1128.7 721 1058.2 721C987.7 721 917.3 721 846.8 721C776.3 721 705.7 721 635 721C564.3 721 493.7 721 423.2 721C352.7 721 282.3 721 211.8 721C141.3 721 70.7 721 35.3 721L0 721Z" fill="#0e8388"></path><path d="M0 437L35.3 435.3C70.7 433.7 141.3 430.3 211.8 421.2C282.3 412 352.7 397 423.2 403.2C493.7 409.3 564.3 436.7 635 453.3C705.7 470 776.3 476 846.8 459C917.3 442 987.7 402 1058.2 398.3C1128.7 394.7 1199.3 427.3 1234.7 443.7L1270 460L1270 721L1234.7 721C1199.3 721 1128.7 721 1058.2 721C987.7 721 917.3 721 846.8 721C776.3 721 705.7 721 635 721C564.3 721 493.7 721 423.2 721C352.7 721 282.3 721 211.8 721C141.3 721 70.7 721 35.3 721L0 721Z" fill="#286769"></path><path d="M0 537L35.3 537.2C70.7 537.3 141.3 537.7 211.8 527.8C282.3 518 352.7 498 423.2 484.5C493.7 471 564.3 464 635 462C705.7 460 776.3 463 846.8 469.7C917.3 476.3 987.7 486.7 1058.2 501.3C1128.7 516 1199.3 535 1234.7 544.5L1270 554L1270 721L1234.7 721C1199.3 721 1128.7 721 1058.2 721C987.7 721 917.3 721 846.8 721C776.3 721 705.7 721 635 721C564.3 721 493.7 721 423.2 721C352.7 721 282.3 721 211.8 721C141.3 721 70.7 721 35.3 721L0 721Z" fill="#2e4d4d"></path><path d="M0 603L35.3 598.7C70.7 594.3 141.3 585.7 211.8 582C282.3 578.3 352.7 579.7 423.2 578.7C493.7 577.7 564.3 574.3 635 581.5C705.7 588.7 776.3 606.3 846.8 604.8C917.3 603.3 987.7 582.7 1058.2 585.5C1128.7 588.3 1199.3 614.7 1234.7 627.8L1270 641L1270 721L1234.7 721C1199.3 721 1128.7 721 1058.2 721C987.7 721 917.3 721 846.8 721C776.3 721 705.7 721 635 721C564.3 721 493.7 721 423.2 721C352.7 721 282.3 721 211.8 721C141.3 721 70.7 721 35.3 721L0 721Z" fill="#2c3333"></path></svg>